<svg width="80" height="80" viewBox="0 0 80 80" fill="none" xmlns="http://www.w3.org/2000/svg">
<rect width="80" height="80" rx="40" fill="white"/>
<path d="M58.75 41.25V30H47.5" stroke="#332A88" stroke-width="2.5" stroke-linecap="round" stroke-linejoin="round"/>
<path d="M58.75 30L45.5183 43.2317C45.2862 43.464 45.0105 43.6483 44.7071 43.774C44.4037 43.8997 44.0784 43.9645 43.75 43.9645C43.4216 43.9645 43.0963 43.8997 42.7929 43.774C42.4895 43.6483 42.2138 43.464 41.9817 43.2317L36.7683 38.0183C36.5362 37.786 36.2605 37.6017 35.9571 37.476C35.6537 37.3503 35.3284 37.2855 35 37.2855C34.6716 37.2855 34.3463 37.3503 34.0429 37.476C33.7395 37.6017 33.4638 37.786 33.2317 38.0183L21.25 50" stroke="#332A88" stroke-width="2.5" stroke-linecap="round" stroke-linejoin="round"/>
</svg>
