<svg width="80" height="81" viewBox="0 0 80 81" fill="none" xmlns="http://www.w3.org/2000/svg">
<rect y="0.5" width="80" height="80" rx="40" fill="white"/>
<path d="M39.4492 59.75C45.6624 59.75 50.6992 54.7132 50.6992 48.5C50.6992 42.2868 45.6624 37.25 39.4492 37.25C33.236 37.25 28.1992 42.2868 28.1992 48.5C28.1992 54.7132 33.236 59.75 39.4492 59.75Z" stroke="#332A88" stroke-width="2.5" stroke-linecap="round" stroke-linejoin="round"/>
<path d="M37.916 42.25V48.5L42.916 52.25" stroke="#332A88" stroke-width="2.5" stroke-linecap="round" stroke-linejoin="round"/>
<path d="M50.631 47.2733C52.4806 46.6738 54.0907 45.4996 55.2268 43.9216C56.3629 42.3437 56.9657 40.4443 56.9476 38.5C56.8903 35.2051 55.5441 32.0639 53.1976 29.75C53.1267 30.3294 52.9394 30.8884 52.6471 31.3937C52.3548 31.8989 51.9634 32.3398 51.4964 32.69C51.0295 33.0403 50.4966 33.2925 49.9297 33.4317C49.3628 33.5709 48.7737 33.5941 48.1976 33.5C46.6033 32.1596 45.4946 30.3316 45.0427 28.2983C44.5909 26.265 44.821 24.1395 45.6976 22.25C37.8843 22.25 32.8843 26.86 31.9476 33.5C30.795 33.6204 29.6394 33.3009 28.7122 32.6055C27.7851 31.9102 27.1548 30.8903 26.9476 29.75C20.6743 35.0833 22.1926 44.8217 28.2626 47.2783" stroke="#332A88" stroke-width="2.5" stroke-linecap="round" stroke-linejoin="round"/>
</svg>
