<svg width="80" height="81" viewBox="0 0 80 81" fill="none" xmlns="http://www.w3.org/2000/svg">
<rect y="0.5" width="80" height="80" rx="40" fill="white"/>
<path d="M51.2498 44.3401L43.2715 45.9351" stroke="#332A88" stroke-width="2.5" stroke-linecap="round" stroke-linejoin="round"/>
<path d="M44.0645 36.8851L40.2978 38.4768C40.0007 38.5996 39.6816 38.6606 39.3601 38.656C39.0386 38.6514 38.7214 38.5814 38.4278 38.4501C38.1301 38.3172 37.8618 38.1264 37.6383 37.889C37.4149 37.6515 37.2408 37.3721 37.1262 37.0668C36.9003 36.4865 36.8954 35.8434 37.1123 35.2597C37.3292 34.676 37.7528 34.1922 38.3028 33.9001L42.0678 32.0218C42.4749 31.8108 42.9218 31.6878 43.3795 31.6608C43.8372 31.6338 44.2955 31.7034 44.7245 31.8651L52.4562 34.9118" stroke="#332A88" stroke-width="2.5" stroke-linecap="round" stroke-linejoin="round"/>
<path d="M28.666 46H31.3327L36.4143 49.8767C36.652 50.1453 36.9848 50.3111 37.3424 50.339C37.7 50.367 38.0544 50.255 38.331 50.0267L45.431 44.1633C45.7116 43.9311 45.8909 43.5989 45.931 43.2368C45.9712 42.8748 45.8689 42.5114 45.646 42.2233L41.7343 37.875" stroke="#332A88" stroke-width="2.5" stroke-linecap="round" stroke-linejoin="round"/>
<path d="M37.8929 34.1666L37.4813 33.8332C37.0731 33.5321 36.5947 33.3402 36.0916 33.2757C35.5884 33.2113 35.0772 33.2764 34.6063 33.4649L28.6562 35.9999" stroke="#332A88" stroke-width="2.5" stroke-linecap="round" stroke-linejoin="round"/>
<path d="M22.3184 47.25H26.7517C27.2535 47.2769 27.7455 47.1041 28.1203 46.7693C28.495 46.4345 28.722 45.965 28.7517 45.4634V36.535C28.7216 36.0337 28.4944 35.5646 28.1197 35.2302C27.745 34.8958 27.2532 34.7232 26.7517 34.75H22.3184" stroke="#332A88" stroke-width="2.5" stroke-linecap="round" stroke-linejoin="round"/>
<path d="M57.6833 47.25H53.25C52.7482 47.2769 52.2562 47.1041 51.8814 46.7693C51.5067 46.4345 51.2797 45.965 51.25 45.4634V36.535C51.2801 36.0337 51.5073 35.5646 51.882 35.2302C52.2567 34.8958 52.7485 34.7232 53.25 34.75H57.6833" stroke="#332A88" stroke-width="2.5" stroke-linecap="round" stroke-linejoin="round"/>
<path d="M40 59.75C50.3553 59.75 58.75 51.3553 58.75 41C58.75 30.6447 50.3553 22.25 40 22.25C29.6447 22.25 21.25 30.6447 21.25 41C21.25 51.3553 29.6447 59.75 40 59.75Z" stroke="#332A88" stroke-width="2.5" stroke-linecap="round" stroke-linejoin="round"/>
</svg>
