<svg width="81" height="80" viewBox="0 0 81 80" fill="none" xmlns="http://www.w3.org/2000/svg">
<rect x="0.5" width="80" height="80" rx="40" fill="#332A88"/>
<path d="M48.75 50C50.1307 50 51.25 48.8807 51.25 47.5C51.25 46.1193 50.1307 45 48.75 45C47.3693 45 46.25 46.1193 46.25 47.5C46.25 48.8807 47.3693 50 48.75 50Z" stroke="white" stroke-width="2.5" stroke-linecap="round" stroke-linejoin="round"/>
<path d="M28.75 50C30.1307 50 31.25 48.8807 31.25 47.5C31.25 46.1193 30.1307 45 28.75 45C27.3693 45 26.25 46.1193 26.25 47.5C26.25 48.8807 27.3693 50 28.75 50Z" stroke="white" stroke-width="2.5" stroke-linecap="round" stroke-linejoin="round"/>
<path d="M46.25 47.5H31.25" stroke="white" stroke-width="2.5" stroke-linecap="round" stroke-linejoin="round"/>
<path d="M26.25 47.5H23.75C23.087 47.5 22.4511 47.2366 21.9822 46.7678C21.5134 46.2989 21.25 45.663 21.25 45V39.0133C21.2481 38.0269 21.5381 37.062 22.0833 36.24L26.25 28.75H38.6767C39.4725 28.75 40.2567 28.9399 40.9643 29.304C41.6719 29.6681 42.2824 30.1958 42.745 30.8433L47.5 37.5H53.265C54.4486 37.5001 55.5938 37.92 56.4968 38.6851C57.3998 39.4502 58.0022 40.5108 58.1967 41.6783L58.75 45C58.75 45.663 58.4866 46.2989 58.0178 46.7678C57.5489 47.2366 56.9131 47.5 56.25 47.5H51.25" stroke="white" stroke-width="2.5" stroke-linecap="round" stroke-linejoin="round"/>
<path d="M47.5016 37.5H21.4883" stroke="white" stroke-width="2.5" stroke-linecap="round" stroke-linejoin="round"/>
<path d="M31.25 28.75V37.5" stroke="white" stroke-width="2.5" stroke-linecap="round" stroke-linejoin="round"/>
<path d="M26.25 28.75H22.5" stroke="white" stroke-width="2.5" stroke-linecap="round" stroke-linejoin="round"/>
</svg>
