<svg width="80" height="80" viewBox="0 0 80 80" fill="none" xmlns="http://www.w3.org/2000/svg">
<rect width="80" height="80" rx="40" fill="#332A88"/>
<path d="M40.0019 54.6236L26.2718 51.7303C25.7417 51.6189 25.1922 51.6414 24.673 51.796C24.1539 51.9505 23.6814 52.2321 23.2985 52.6153L22.1035 53.8103" stroke="#F6F6FD" stroke-width="2.5" stroke-linecap="round" stroke-linejoin="round"/>
<path d="M46.0781 48.8917L51.6548 23.8C51.8156 23.0766 52.2184 22.4296 52.7965 21.966C53.3747 21.5024 54.0937 21.2498 54.8348 21.25H57.9215" stroke="#F6F6FD" stroke-width="2.5" stroke-linecap="round" stroke-linejoin="round"/>
<path d="M44.8926 58.75C47.654 58.75 49.8926 56.5114 49.8926 53.75C49.8926 50.9886 47.654 48.75 44.8926 48.75C42.1312 48.75 39.8926 50.9886 39.8926 53.75C39.8926 56.5114 42.1312 58.75 44.8926 58.75Z" stroke="#F6F6FD" stroke-width="2.5" stroke-linecap="round" stroke-linejoin="round"/>
<path d="M35.1918 48.0381L25.2718 45.6664C24.6272 45.5122 24.0702 45.1083 23.7233 44.5436C23.3764 43.9788 23.268 43.2994 23.4218 42.6547L27.7768 24.4197C27.853 24.1002 27.9914 23.7989 28.184 23.5329C28.3767 23.2669 28.6199 23.0415 28.8998 22.8695C29.1796 22.6976 29.4906 22.5824 29.815 22.5307C30.1393 22.479 30.4707 22.4917 30.7901 22.5681L42.9568 25.4731C43.6014 25.6273 44.1584 26.0312 44.5053 26.5959C44.8522 27.1607 44.9606 27.8401 44.8068 28.4847L41.6018 41.8664" stroke="#F6F6FD" stroke-width="2.5" stroke-linecap="round" stroke-linejoin="round"/>
<path d="M39.3026 24.6021L34.4395 23.4404L32.697 30.7352L37.5602 31.8968L39.3026 24.6021Z" stroke="#F6F6FD" stroke-width="2.5" stroke-linecap="round" stroke-linejoin="round"/>
</svg>
