<svg width="80" height="80" viewBox="0 0 80 80" fill="none" xmlns="http://www.w3.org/2000/svg">
<rect width="80" height="80" rx="40" fill="#332A88"/>
<path d="M22.5098 57.5H57.5098" stroke="#F6F6FD" stroke-width="2.5" stroke-linecap="round" stroke-linejoin="round"/>
<path d="M22.5098 52.5H57.5098" stroke="#F6F6FD" stroke-width="2.5" stroke-linecap="round" stroke-linejoin="round"/>
<path d="M25.0098 52.5V57.5" stroke="#F6F6FD" stroke-width="2.5" stroke-linecap="round" stroke-linejoin="round"/>
<path d="M55.0098 52.5V57.5" stroke="#F6F6FD" stroke-width="2.5" stroke-linecap="round" stroke-linejoin="round"/>
<path d="M35.0098 52.5V57.5" stroke="#F6F6FD" stroke-width="2.5" stroke-linecap="round" stroke-linejoin="round"/>
<path d="M45.0098 52.5V57.5" stroke="#F6F6FD" stroke-width="2.5" stroke-linecap="round" stroke-linejoin="round"/>
<path d="M40.0098 35H27.5098C26.8467 35 26.2108 35.2634 25.742 35.7322C25.2732 36.2011 25.0098 36.837 25.0098 37.5V45C25.0098 45.663 25.2732 46.2989 25.742 46.7678C26.2108 47.2366 26.8467 47.5 27.5098 47.5H37.5098C38.1728 47.5 38.8087 47.2366 39.2775 46.7678C39.7464 46.2989 40.0098 45.663 40.0098 45V35Z" stroke="#F6F6FD" stroke-width="2.5" stroke-linecap="round" stroke-linejoin="round"/>
<path d="M52.5098 35H40.0098V45C40.0098 45.663 40.2732 46.2989 40.742 46.7678C41.2108 47.2366 41.8467 47.5 42.5098 47.5H52.5098C53.1728 47.5 53.8087 47.2366 54.2775 46.7678C54.7464 46.2989 55.0098 45.663 55.0098 45V37.5C55.0098 36.837 54.7464 36.2011 54.2775 35.7322C53.8087 35.2634 53.1728 35 52.5098 35Z" stroke="#F6F6FD" stroke-width="2.5" stroke-linecap="round" stroke-linejoin="round"/>
<path d="M45.0098 22.5H35.0098C34.3467 22.5 33.7108 22.7634 33.242 23.2322C32.7732 23.7011 32.5098 24.337 32.5098 25V35H47.5098V25C47.5098 24.337 47.2464 23.7011 46.7775 23.2322C46.3087 22.7634 45.6728 22.5 45.0098 22.5Z" stroke="#F6F6FD" stroke-width="2.5" stroke-linecap="round" stroke-linejoin="round"/>
<path d="M40.0098 22.5V27.5" stroke="#F6F6FD" stroke-width="2.5" stroke-linecap="round" stroke-linejoin="round"/>
<path d="M32.5098 35V40" stroke="#F6F6FD" stroke-width="2.5" stroke-linecap="round" stroke-linejoin="round"/>
<path d="M47.5098 35V40" stroke="#F6F6FD" stroke-width="2.5" stroke-linecap="round" stroke-linejoin="round"/>
</svg>
