<svg width="80" height="80" viewBox="0 0 80 80" fill="none" xmlns="http://www.w3.org/2000/svg">
<rect width="80" height="80" rx="40" fill="#332A88"/>
<g clip-path="url(#clip0)">
<path d="M51.8662 36.282C50.2887 36.501 48.8464 37.2915 47.8132 38.5035C46.78 39.7155 46.2277 41.2647 46.2612 42.857V48.7504H48.7612V57.5004C48.7612 57.8319 48.8929 58.1498 49.1273 58.3842C49.3617 58.6187 49.6797 58.7504 50.0112 58.7504H55.0112C55.3427 58.7504 55.6607 58.6187 55.8951 58.3842C56.1295 58.1498 56.2612 57.8319 56.2612 57.5004V48.7504H58.7612V42.5004C58.7609 41.6252 58.577 40.7599 58.2212 39.9603C57.8654 39.1607 57.3458 38.4447 56.6959 37.8586C56.046 37.2725 55.2803 36.8293 54.4484 36.5577C53.6164 36.2862 52.7367 36.1922 51.8662 36.282V36.282Z" stroke="#F6F6FD" stroke-width="2.5" stroke-linecap="round" stroke-linejoin="round"/>
<path d="M52.5098 31.25C55.2712 31.25 57.5098 29.0114 57.5098 26.25C57.5098 23.4886 55.2712 21.25 52.5098 21.25C49.7483 21.25 47.5098 23.4886 47.5098 26.25C47.5098 29.0114 49.7483 31.25 52.5098 31.25Z" stroke="#F6F6FD" stroke-width="2.5" stroke-linecap="round" stroke-linejoin="round"/>
<path d="M42.5098 36.25H40.7798C40.2073 36.2495 39.6519 36.4456 39.2066 36.8053C38.7613 37.1651 38.4529 37.6669 38.3331 38.2267L35.4331 51.7733C35.3133 52.3329 35.0052 52.8344 34.5602 53.1941C34.1152 53.5539 33.5603 53.7501 32.9881 53.75H21.2598" stroke="#F6F6FD" stroke-width="2.5" stroke-linecap="round" stroke-linejoin="round"/>
<path d="M23.1348 57.5C23.2584 57.5 23.3792 57.5367 23.482 57.6053C23.5848 57.674 23.6649 57.7716 23.7122 57.8858C23.7595 58 23.7719 58.1257 23.7478 58.2469C23.7236 58.3682 23.6641 58.4795 23.5767 58.5669C23.4893 58.6543 23.3779 58.7139 23.2567 58.738C23.1355 58.7621 23.0098 58.7497 22.8956 58.7024C22.7814 58.6551 22.6838 58.575 22.6151 58.4722C22.5464 58.3695 22.5098 58.2486 22.5098 58.125C22.5098 57.9592 22.5756 57.8003 22.6928 57.6831C22.81 57.5658 22.969 57.5 23.1348 57.5" stroke="#F6F6FD" stroke-width="2.5" stroke-linecap="round" stroke-linejoin="round"/>
<path d="M33.1348 57.5C33.2584 57.5 33.3792 57.5367 33.482 57.6053C33.5848 57.674 33.6649 57.7716 33.7122 57.8858C33.7595 58 33.7719 58.1257 33.7478 58.2469C33.7236 58.3682 33.6641 58.4795 33.5767 58.5669C33.4893 58.6543 33.3779 58.7139 33.2567 58.738C33.1355 58.7621 33.0098 58.7497 32.8956 58.7024C32.7814 58.6551 32.6838 58.575 32.6151 58.4722C32.5464 58.3695 32.5098 58.2486 32.5098 58.125C32.5098 57.9592 32.5756 57.8003 32.6928 57.6831C32.81 57.5658 32.969 57.5 33.1348 57.5" stroke="#F6F6FD" stroke-width="2.5" stroke-linecap="round" stroke-linejoin="round"/>
<path d="M30.0098 38.75H22.5098C21.8194 38.75 21.2598 39.3096 21.2598 40V47.5C21.2598 48.1904 21.8194 48.75 22.5098 48.75H30.0098C30.7001 48.75 31.2598 48.1904 31.2598 47.5V40C31.2598 39.3096 30.7001 38.75 30.0098 38.75Z" stroke="#F6F6FD" stroke-width="2.5" stroke-linecap="round" stroke-linejoin="round"/>
<path d="M57.5098 26.25H45.0098" stroke="#F6F6FD" stroke-width="2.5" stroke-linecap="round" stroke-linejoin="round"/>
</g>
<defs>
<clipPath id="clip0">
<rect width="40" height="40" fill="white" transform="translate(20 20)"/>
</clipPath>
</defs>
</svg>
