<svg width="81" height="80" viewBox="0 0 81 80" fill="none" xmlns="http://www.w3.org/2000/svg">
<rect x="0.5" width="80" height="80" rx="40" fill="#332A88"/>
<g clip-path="url(#clip0)">
<path d="M31.2031 29.1283C31.3489 27.6675 31.8598 26.2668 32.6887 25.0552C33.5177 23.8436 34.6382 22.86 35.9469 22.195C37.2557 21.53 38.7108 21.2048 40.1781 21.2495C41.6455 21.2943 43.078 21.7074 44.3439 22.4509C45.6097 23.1944 46.6682 24.2444 47.4219 25.5042C48.1756 26.764 48.6002 28.1932 48.6567 29.6602C48.7133 31.1271 48.3999 32.5847 47.7454 33.8988C47.0909 35.2129 46.1163 36.3412 44.9115 37.18" stroke="white" stroke-width="2.5" stroke-linecap="round" stroke-linejoin="round"/>
<path d="M32.4004 25.5834C33.7548 26.9816 35.3765 28.0931 37.1692 28.8519C38.9618 29.6106 40.8888 30.0011 42.8354 30C44.7997 30.002 46.744 29.6051 48.5504 28.8334" stroke="white" stroke-width="2.5" stroke-linecap="round" stroke-linejoin="round"/>
<path d="M38.0371 36.25C37.5427 36.25 37.0593 36.3966 36.6482 36.6713C36.2371 36.946 35.9166 37.3365 35.7274 37.7933C35.5382 38.2501 35.4887 38.7528 35.5851 39.2377C35.6816 39.7227 35.9197 40.1681 36.2693 40.5178C36.619 40.8674 37.0644 41.1055 37.5494 41.202C38.0343 41.2984 38.537 41.2489 38.9938 41.0597C39.4506 40.8705 39.8411 40.55 40.1158 40.1389C40.3905 39.7278 40.5371 39.2445 40.5371 38.75C40.5371 38.087 40.2737 37.4511 39.8049 36.9822C39.336 36.5134 38.7002 36.25 38.0371 36.25Z" stroke="white" stroke-width="2.5" stroke-linecap="round" stroke-linejoin="round"/>
<path d="M35.5371 38.7503H33.0371C31.711 38.7503 30.4393 38.2235 29.5016 37.2858C28.5639 36.3481 28.0371 35.0764 28.0371 33.7503V31.9536" stroke="white" stroke-width="2.5" stroke-linecap="round" stroke-linejoin="round"/>
<path d="M56.166 58.7498C56.166 55.7776 55.3501 52.8623 53.8072 50.3219C52.2642 47.7816 50.0535 45.7135 47.416 44.3431" stroke="white" stroke-width="2.5" stroke-linecap="round" stroke-linejoin="round"/>
<path d="M32.4127 44.3431C29.7758 45.7139 27.5658 47.7822 26.0234 50.3226C24.4811 52.8629 23.6657 55.7779 23.666 58.7498" stroke="white" stroke-width="2.5" stroke-linecap="round" stroke-linejoin="round"/>
</g>
<defs>
<clipPath id="clip0">
<rect width="40" height="40" fill="white" transform="translate(20 20)"/>
</clipPath>
</defs>
</svg>
