<svg width="80" height="80" viewBox="0 0 80 80" fill="none" xmlns="http://www.w3.org/2000/svg">
<rect width="80" height="80" rx="40" fill="#332A88"/>
<path d="M33.8328 47.1533C34.2748 47.1533 34.6987 46.9777 35.0113 46.6652C35.3238 46.3526 35.4994 45.9287 35.4994 45.4867V44.94C35.4992 44.8441 35.5323 44.751 35.5931 44.6768C35.6539 44.6026 35.7386 44.5519 35.8328 44.5333C36.7436 44.3397 37.5678 43.8579 38.1833 43.1592C38.7989 42.4605 39.173 41.5821 39.2502 40.6541C39.3274 39.7262 39.1037 38.798 38.6121 38.0072C38.1206 37.2163 37.3874 36.6049 36.5211 36.2633L32.3944 34.6133C32.1759 34.5255 31.9946 34.3646 31.8816 34.158C31.7686 33.9514 31.7307 33.712 31.7746 33.4806C31.8185 33.2492 31.9413 33.0402 32.1222 32.8893C32.303 32.7385 32.5306 32.6551 32.7661 32.6533H36.8328C37.2748 32.6533 37.6987 32.4777 38.0113 32.1652C38.3238 31.8526 38.4994 31.4287 38.4994 30.9867C38.4994 30.5446 38.3238 30.1207 38.0113 29.8082C37.6987 29.4956 37.2748 29.32 36.8328 29.32H35.9161C35.8056 29.32 35.6996 29.2761 35.6215 29.198C35.5433 29.1198 35.4994 29.0138 35.4994 28.9033V28.4867C35.4994 28.0446 35.3238 27.6207 35.0113 27.3082C34.6987 26.9956 34.2748 26.82 33.8328 26.82C33.3907 26.82 32.9668 26.9956 32.6542 27.3082C32.3417 27.6207 32.1661 28.0446 32.1661 28.4867V29.0317C32.166 29.1275 32.1328 29.2204 32.0721 29.2945C32.0113 29.3687 31.9267 29.4195 31.8328 29.4383C30.9219 29.6319 30.0977 30.1138 29.4822 30.8125C28.8667 31.5112 28.4926 32.3896 28.4153 33.3175C28.3381 34.2455 28.5618 35.1737 29.0534 35.9645C29.5449 36.7554 30.2782 37.3668 31.1444 37.7083L35.2728 39.3583C35.493 39.4457 35.6758 39.6073 35.7896 39.8151C35.9034 40.023 35.941 40.2641 35.896 40.4967C35.8509 40.7293 35.726 40.9389 35.5428 41.0892C35.3596 41.2396 35.1297 41.3212 34.8928 41.32H30.8328C30.3907 41.32 29.9668 41.4956 29.6542 41.8082C29.3417 42.1207 29.1661 42.5446 29.1661 42.9867C29.1661 43.4287 29.3417 43.8526 29.6542 44.1652C29.9668 44.4777 30.3907 44.6533 30.8328 44.6533H31.7494C31.8599 44.6533 31.9659 44.6972 32.0441 44.7754C32.1222 44.8535 32.1661 44.9595 32.1661 45.07V45.4867C32.1661 45.7055 32.2092 45.9223 32.293 46.1245C32.3767 46.3267 32.4995 46.5104 32.6542 46.6652C32.809 46.8199 32.9927 46.9427 33.195 47.0265C33.3972 47.1102 33.6139 47.1533 33.8328 47.1533Z" fill="#F6F6FD"/>
<path d="M46.4141 40.96C46.6482 41.1895 46.9449 41.3449 47.267 41.4066C47.589 41.4683 47.9221 41.4337 48.2246 41.307C48.527 41.1803 48.7854 40.9673 48.9673 40.6944C49.1493 40.4216 49.2467 40.1012 49.2474 39.7733V23.82C49.2474 22.9359 48.8962 22.0881 48.2711 21.4629C47.646 20.8378 46.7981 20.4866 45.9141 20.4866H24.2474C23.3633 20.4866 22.5155 20.8378 21.8904 21.4629C21.2653 22.0881 20.9141 22.9359 20.9141 23.82V52.9866C20.9141 53.8707 21.2653 54.7185 21.8904 55.3437C22.5155 55.9688 23.3633 56.32 24.2474 56.32H41.7474C42.1894 56.32 42.6133 56.1444 42.9259 55.8318C43.2385 55.5193 43.4141 55.0953 43.4141 54.6533C43.4141 54.2113 43.2385 53.7873 42.9259 53.4748C42.6133 53.1622 42.1894 52.9866 41.7474 52.9866H25.9174C25.4754 52.9866 25.0514 52.811 24.7389 52.4985C24.4263 52.1859 24.2507 51.762 24.2507 51.32V25.4866C24.2507 25.0446 24.4263 24.6207 24.7389 24.3081C25.0514 23.9956 25.4754 23.82 25.9174 23.82H44.2507C44.6928 23.82 45.1167 23.9956 45.4292 24.3081C45.7418 24.6207 45.9174 25.0446 45.9174 25.4866V39.7733C45.9179 39.9944 45.9623 40.2131 46.0482 40.4169C46.134 40.6206 46.2595 40.8052 46.4174 40.96H46.4141Z" fill="#F6F6FD"/>
<path d="M41.7125 46.0633L41.7274 46.08L47.8325 52.975C47.9003 53.0512 47.9376 53.1497 47.9375 53.2517V57.5C47.9779 58.1246 48.1518 58.7333 48.4475 59.285C48.4816 59.3559 48.5351 59.4157 48.6017 59.4575C48.6683 59.4994 48.7454 59.5216 48.8241 59.5217H58.6658C58.7417 59.5218 58.8162 59.5013 58.8812 59.4622C58.9463 59.4231 58.9994 59.367 59.035 59.3C59.0705 59.2329 59.087 59.1574 59.0827 59.0816C59.0785 59.0058 59.0536 58.9327 59.0108 58.87L56.6141 55.3617C56.567 55.2923 56.5415 55.2105 56.5408 55.1267V45.3983C56.5408 43.1783 54.5775 41.01 52.4408 39.1933C52.3797 39.1419 52.3053 39.109 52.2262 39.0983C52.1471 39.0877 52.0666 39.0999 51.9941 39.1333C51.9218 39.1669 51.8608 39.2206 51.8182 39.288C51.7757 39.3554 51.7534 39.4336 51.7541 39.5133L51.7925 46.1033C51.7928 46.1986 51.8258 46.291 51.8858 46.365C52.0885 46.613 52.1883 46.9293 52.1645 47.2487C52.1408 47.5681 51.9954 47.8662 51.7583 48.0815C51.5212 48.2968 51.2104 48.4129 50.8902 48.4058C50.57 48.3987 50.2648 48.2689 50.0375 48.0433L44.3708 42.4533C44.3344 42.4167 44.2914 42.3873 44.2441 42.3667C43.8262 42.1814 43.3622 42.1265 42.9126 42.2091C42.463 42.2918 42.0488 42.5082 41.7241 42.83C41.3242 43.2728 41.1018 43.8477 41.0996 44.4444C41.0975 45.0411 41.3157 45.6176 41.7125 46.0633Z" fill="#F6F6FD"/>
</svg>
