<svg width="81" height="80" viewBox="0 0 81 80" fill="none" xmlns="http://www.w3.org/2000/svg">
<rect x="0.5" width="80" height="80" rx="40" fill="#332A88"/>
<path d="M27.5 56.2467V27.5C27.5 25.8424 28.1585 24.2527 29.3306 23.0806C30.5027 21.9085 32.0924 21.25 33.75 21.25C35.4076 21.25 36.9973 21.9085 38.1694 23.0806C39.3415 24.2527 40 25.8424 40 27.5V52.5C40 54.1576 40.6585 55.7473 41.8306 56.9194C43.0027 58.0915 44.5924 58.75 46.25 58.75C47.9076 58.75 49.4973 58.0915 50.6694 56.9194C51.8415 55.7473 52.5 54.1576 52.5 52.5V23.7467" stroke="white" stroke-width="2.5" stroke-linecap="round" stroke-linejoin="round"/>
<path d="M46.25 29.9967L52.5 23.7467L58.75 29.9967" stroke="white" stroke-width="2.5" stroke-linecap="round" stroke-linejoin="round"/>
<path d="M33.75 49.9967L27.5 56.2467L21.25 49.9967" stroke="white" stroke-width="2.5" stroke-linecap="round" stroke-linejoin="round"/>
</svg>
