<svg width="80" height="80" viewBox="0 0 80 80" fill="none" xmlns="http://www.w3.org/2000/svg">
<rect width="80" height="80" rx="40" fill="#332A88"/>
<g clip-path="url(#clip0)">
<path d="M51.5955 55H45.9238" stroke="white" stroke-width="2.5" stroke-linecap="round" stroke-linejoin="round"/>
<path d="M41.5964 55H38.7598V43.75H53.7598V53.75" stroke="white" stroke-width="2.5" stroke-linecap="round" stroke-linejoin="round"/>
<path d="M53.7598 53.75V46.5983L56.4631 47.4317C57.1114 47.6119 57.6846 47.9958 58.0982 48.5267C58.5117 49.0575 58.7436 49.7073 58.7598 50.38V54.2317C58.7511 54.4442 58.6585 54.6446 58.5023 54.7889C58.3461 54.9333 58.139 55.0098 57.9264 55.0017H55.9264" stroke="white" stroke-width="2.5" stroke-linecap="round" stroke-linejoin="round"/>
<path d="M36.2598 37.555V30.815C36.2598 30.5989 36.1739 30.3916 36.0211 30.2387C35.8682 30.0859 35.6609 30 35.4448 30H29.5764C29.4693 29.9998 29.3631 30.0207 29.264 30.0616C29.165 30.1024 29.0749 30.1624 28.9991 30.2381C28.9232 30.3138 28.863 30.4037 28.822 30.5027C28.7809 30.6017 28.7598 30.7078 28.7598 30.815V37.555" stroke="white" stroke-width="2.5" stroke-linecap="round" stroke-linejoin="round"/>
<path d="M21.2598 28.75L32.5098 21.25L43.7598 28.75" stroke="white" stroke-width="2.5" stroke-linecap="round" stroke-linejoin="round"/>
<path d="M41.2598 37.5533V27.0833" stroke="white" stroke-width="2.5" stroke-linecap="round" stroke-linejoin="round"/>
<path d="M23.7598 27.0833L23.7648 37.555" stroke="white" stroke-width="2.5" stroke-linecap="round" stroke-linejoin="round"/>
<path d="M43.7598 58.75C45.1405 58.75 46.2598 57.6307 46.2598 56.25C46.2598 54.8693 45.1405 53.75 43.7598 53.75C42.3791 53.75 41.2598 54.8693 41.2598 56.25C41.2598 57.6307 42.3791 58.75 43.7598 58.75Z" stroke="white" stroke-width="2.5" stroke-linecap="round" stroke-linejoin="round"/>
<path d="M53.7598 58.75C55.1405 58.75 56.2598 57.6307 56.2598 56.25C56.2598 54.8693 55.1405 53.75 53.7598 53.75C52.3791 53.75 51.2598 54.8693 51.2598 56.25C51.2598 57.6307 52.3791 58.75 53.7598 58.75Z" stroke="white" stroke-width="2.5" stroke-linecap="round" stroke-linejoin="round"/>
<path d="M31.2598 41.25V42.5" stroke="white" stroke-width="2.5" stroke-linecap="round" stroke-linejoin="round"/>
<path d="M31.2598 47.5V48.75" stroke="white" stroke-width="2.5" stroke-linecap="round" stroke-linejoin="round"/>
<path d="M31.2598 53.75C31.2598 54.413 31.5232 55.0489 31.992 55.5178C32.4608 55.9866 33.0967 56.25 33.7598 56.25" stroke="white" stroke-width="2.5" stroke-linecap="round" stroke-linejoin="round"/>
</g>
<defs>
<clipPath id="clip0">
<rect width="40" height="40" fill="white" transform="translate(20 20)"/>
</clipPath>
</defs>
</svg>
