<svg width="80" height="80" viewBox="0 0 80 80" fill="none" xmlns="http://www.w3.org/2000/svg">
<rect width="80" height="80" rx="40" fill="#332A88"/>
<g clip-path="url(#clip0)">
<path d="M53.7526 35V28.7484C53.7526 28.0853 53.4892 27.4494 53.0204 26.9806C52.5515 26.5117 51.9156 26.2484 51.2526 26.2484H44.5859" stroke="#F6F6FD" stroke-width="2.5" stroke-linecap="round" stroke-linejoin="round"/>
<path d="M30.4206 26.2484H23.7539C23.0909 26.2484 22.455 26.5117 21.9861 26.9806C21.5173 27.4494 21.2539 28.0853 21.2539 28.7484V56.2484C21.2539 56.9114 21.5173 57.5473 21.9861 58.0161C22.455 58.485 23.0909 58.7484 23.7539 58.7484H37.5006" stroke="#F6F6FD" stroke-width="2.5" stroke-linecap="round" stroke-linejoin="round"/>
<path d="M44.0396 27.8934C43.9566 28.142 43.7975 28.3583 43.5849 28.5117C43.3722 28.6651 43.1168 28.7479 42.8546 28.7484H32.1563C31.8938 28.7483 31.6381 28.6656 31.4251 28.5122C31.2122 28.3588 31.0528 28.1423 30.9696 27.8934L29.303 22.8934C29.24 22.7054 29.2227 22.5052 29.2524 22.3092C29.2822 22.1132 29.3582 21.9271 29.4742 21.7664C29.5902 21.6056 29.7428 21.4748 29.9194 21.3847C30.0959 21.2946 30.2914 21.2479 30.4896 21.2484H44.5213C44.7194 21.2481 44.9147 21.2951 45.0911 21.3853C45.2674 21.4754 45.4198 21.6063 45.5356 21.767C45.6514 21.9278 45.7272 22.1137 45.7569 22.3096C45.7866 22.5054 45.7693 22.7055 45.7063 22.8934L44.0396 27.8934Z" stroke="#F6F6FD" stroke-width="2.5" stroke-linecap="round" stroke-linejoin="round"/>
<path d="M33.7533 53.7484H27.5C27.1685 53.7484 26.8505 53.6167 26.6161 53.3822C26.3817 53.1478 26.25 52.8299 26.25 52.4984V31.2484" stroke="#F6F6FD" stroke-width="2.5" stroke-linecap="round" stroke-linejoin="round"/>
<path d="M48.7539 31.2484V33.7484" stroke="#F6F6FD" stroke-width="2.5" stroke-linecap="round" stroke-linejoin="round"/>
<path d="M48.75 58.7484C54.2728 58.7484 58.75 54.2712 58.75 48.7484C58.75 43.2255 54.2728 38.7484 48.75 38.7484C43.2272 38.7484 38.75 43.2255 38.75 48.7484C38.75 54.2712 43.2272 58.7484 48.75 58.7484Z" stroke="#F6F6FD" stroke-width="2.5" stroke-linecap="round" stroke-linejoin="round"/>
<path d="M53.2071 45.8333L48.3655 52.29C48.2578 52.4332 48.1207 52.5516 47.9633 52.6372C47.806 52.7228 47.6321 52.7737 47.4534 52.7863C47.2747 52.799 47.0953 52.7731 46.9275 52.7105C46.7597 52.6478 46.6072 52.5499 46.4805 52.4233L43.9805 49.9233" stroke="#F6F6FD" stroke-width="2.5" stroke-linecap="round" stroke-linejoin="round"/>
<path d="M31.2539 36.2484H38.7539" stroke="#F6F6FD" stroke-width="2.5" stroke-linecap="round" stroke-linejoin="round"/>
<path d="M31.2539 43.7484H33.7539" stroke="#F6F6FD" stroke-width="2.5" stroke-linecap="round" stroke-linejoin="round"/>
</g>
<defs>
<clipPath id="clip0">
<rect width="40" height="40" fill="white" transform="translate(20 20)"/>
</clipPath>
</defs>
</svg>
