<svg width="80" height="80" viewBox="0 0 80 80" fill="none" xmlns="http://www.w3.org/2000/svg">
<rect width="80" height="80" rx="40" fill="#332A88"/>
<path d="M58.75 27.5C58.75 30.3333 54.5217 36.9633 53.0217 39.2267C52.9647 39.3126 52.8873 39.3831 52.7964 39.4319C52.7055 39.4807 52.604 39.5062 52.5008 39.5062C52.3977 39.5062 52.2962 39.4807 52.2053 39.4319C52.1144 39.3831 52.037 39.3126 51.98 39.2267C50.4783 36.965 46.25 30.3333 46.25 27.5C46.25 25.8424 46.9085 24.2527 48.0806 23.0806C49.2527 21.9085 50.8424 21.25 52.5 21.25C54.1576 21.25 55.7473 21.9085 56.9194 23.0806C58.0915 24.2527 58.75 25.8424 58.75 27.5V27.5Z" stroke="white" stroke-width="2.5" stroke-linecap="round" stroke-linejoin="round"/>
<path d="M52.5 26.875C52.6658 26.875 52.8247 26.9408 52.9419 27.0581C53.0592 27.1753 53.125 27.3342 53.125 27.5" stroke="white" stroke-width="2.5" stroke-linecap="round" stroke-linejoin="round"/>
<path d="M51.875 27.5C51.875 27.3342 51.9408 27.1753 52.0581 27.0581C52.1753 26.9408 52.3342 26.875 52.5 26.875" stroke="white" stroke-width="2.5" stroke-linecap="round" stroke-linejoin="round"/>
<path d="M52.5 28.125C52.3342 28.125 52.1753 28.0592 52.0581 27.9419C51.9408 27.8247 51.875 27.6658 51.875 27.5" stroke="white" stroke-width="2.5" stroke-linecap="round" stroke-linejoin="round"/>
<path d="M53.125 27.5C53.125 27.6658 53.0592 27.8247 52.9419 27.9419C52.8247 28.0592 52.6658 28.125 52.5 28.125" stroke="white" stroke-width="2.5" stroke-linecap="round" stroke-linejoin="round"/>
<path d="M28.75 40.625C28.9158 40.625 29.0747 40.6908 29.1919 40.8081C29.3092 40.9253 29.375 41.0842 29.375 41.25" stroke="white" stroke-width="2.5" stroke-linecap="round" stroke-linejoin="round"/>
<path d="M28.125 41.25C28.125 41.0842 28.1908 40.9253 28.3081 40.8081C28.4253 40.6908 28.5842 40.625 28.75 40.625" stroke="white" stroke-width="2.5" stroke-linecap="round" stroke-linejoin="round"/>
<path d="M28.75 41.875C28.5842 41.875 28.4253 41.8092 28.3081 41.6919C28.1908 41.5747 28.125 41.4158 28.125 41.25" stroke="white" stroke-width="2.5" stroke-linecap="round" stroke-linejoin="round"/>
<path d="M29.375 41.25C29.375 41.4158 29.3092 41.5747 29.1919 41.6919C29.0747 41.8092 28.9158 41.875 28.75 41.875" stroke="white" stroke-width="2.5" stroke-linecap="round" stroke-linejoin="round"/>
<path d="M28.75 33.75C30.7391 33.75 32.6468 34.5402 34.0533 35.9467C35.4598 37.3532 36.25 39.2609 36.25 41.25C36.25 44.4517 31.77 50.5433 29.735 53.1467C29.6181 53.2963 29.4686 53.4173 29.298 53.5006C29.1273 53.5838 28.9399 53.6271 28.75 53.6271C28.5601 53.6271 28.3727 53.5838 28.202 53.5006C28.0314 53.4173 27.8819 53.2963 27.765 53.1467C25.73 50.545 21.25 44.4517 21.25 41.25C21.25 39.2609 22.0402 37.3532 23.4467 35.9467C24.8532 34.5402 26.7609 33.75 28.75 33.75V33.75Z" stroke="white" stroke-width="2.5" stroke-linecap="round" stroke-linejoin="round"/>
<path d="M28.75 58.75H43.75C44.413 58.75 45.0489 58.4866 45.5178 58.0178C45.9866 57.5489 46.25 56.913 46.25 56.25V48.75C46.25 48.087 46.5134 47.4511 46.9822 46.9822C47.4511 46.5134 48.087 46.25 48.75 46.25H53.75" stroke="white" stroke-width="2.5" stroke-linecap="round" stroke-linejoin="round"/>
</svg>
