<svg width="80" height="80" viewBox="0 0 80 80" fill="none" xmlns="http://www.w3.org/2000/svg">
<rect width="80" height="80" rx="40" fill="#332A88"/>
<path d="M53.75 21.25H58.75L53.75 27.5H58.75" stroke="white" stroke-width="2.5" stroke-linecap="round" stroke-linejoin="round"/>
<path d="M43.75 31.25H50L43.75 38.75H50" stroke="white" stroke-width="2.5" stroke-linecap="round" stroke-linejoin="round"/>
<path d="M32.9141 56.25C33.1258 56.9711 33.5653 57.6043 34.167 58.0547C34.7686 58.5052 35.5 58.7486 36.2516 58.7486C37.0031 58.7486 37.7345 58.5052 38.3361 58.0547C38.9378 57.6043 39.3774 56.9711 39.5891 56.25" stroke="white" stroke-width="2.5" stroke-linecap="round" stroke-linejoin="round"/>
<path d="M36.25 25V21.25" stroke="white" stroke-width="2.5" stroke-linecap="round" stroke-linejoin="round"/>
<path d="M41.6083 26.25C39.9387 25.4365 38.1073 25.0092 36.25 25C32.9348 25 29.7554 26.317 27.4112 28.6612C25.067 31.0054 23.75 34.1848 23.75 37.5C23.75 47.3133 21.25 51.25 21.25 51.25H51.25C50.1653 49.3698 49.4576 47.2961 49.1667 45.145" stroke="white" stroke-width="2.5" stroke-linecap="round" stroke-linejoin="round"/>
</svg>
