<svg width="81" height="80" viewBox="0 0 81 80" fill="none" xmlns="http://www.w3.org/2000/svg">
<rect x="0.5" width="80" height="80" rx="40" fill="#332A88"/>
<path d="M46.25 35.2717C46.2494 35.4274 46.2073 35.5801 46.1279 35.714C46.0484 35.8479 45.9347 35.9582 45.7983 36.0333C45.6601 36.1094 45.5045 36.1484 45.3468 36.1463C45.189 36.1443 45.0345 36.1013 44.8983 36.0217L40 33.75L35.055 36.1517C34.9186 36.2212 34.7669 36.2551 34.6139 36.2501C34.4609 36.2452 34.3116 36.2015 34.18 36.1233C34.0495 36.0467 33.9413 35.9373 33.8659 35.8061C33.7905 35.6749 33.7505 35.5263 33.75 35.375V21.25H46.25V35.2717Z" stroke="white" stroke-width="2.5" stroke-linecap="round" stroke-linejoin="round"/>
<path d="M56.25 21.25H23.75C22.3693 21.25 21.25 22.3693 21.25 23.75V56.25C21.25 57.6307 22.3693 58.75 23.75 58.75H56.25C57.6307 58.75 58.75 57.6307 58.75 56.25V23.75C58.75 22.3693 57.6307 21.25 56.25 21.25Z" stroke="white" stroke-width="2.5" stroke-linecap="round" stroke-linejoin="round"/>
<path d="M53.75 47.5H41.25V53.75H53.75V47.5Z" stroke="white" stroke-width="2.5" stroke-linecap="round" stroke-linejoin="round"/>
</svg>
