<svg width="80" height="80" viewBox="0 0 80 80" fill="none" xmlns="http://www.w3.org/2000/svg">
<rect width="80" height="80" rx="40" fill="#332A88"/>
<path d="M47.5 21.25V25" stroke="#F6F6FD" stroke-width="2.5" stroke-linecap="round" stroke-linejoin="round"/>
<path d="M40 25H56.8333C57.3433 25.0031 57.8313 25.2081 58.1905 25.5701C58.5497 25.9321 58.7509 26.4217 58.75 26.9317V44.3183C58.7509 44.8283 58.5497 45.3179 58.1905 45.6799C57.8313 46.0419 57.3433 46.2469 56.8333 46.25H45" stroke="#F6F6FD" stroke-width="2.5" stroke-linecap="round" stroke-linejoin="round"/>
<path d="M42.7344 36.2085L45.7794 33.1668C45.9599 32.9869 46.2045 32.8858 46.4594 32.8858C46.7143 32.8858 46.9588 32.9869 47.1394 33.1668L49.501 35.5318C49.6816 35.7118 49.9261 35.8128 50.181 35.8128C50.436 35.8128 50.6805 35.7118 50.861 35.5318L54.9227 31.4702" stroke="#F6F6FD" stroke-width="2.5" stroke-linecap="round" stroke-linejoin="round"/>
<path d="M47.5 46.25V55" stroke="#F6F6FD" stroke-width="2.5" stroke-linecap="round" stroke-linejoin="round"/>
<path d="M47.5 55L42.5 58.75" stroke="#F6F6FD" stroke-width="2.5" stroke-linecap="round" stroke-linejoin="round"/>
<path d="M47.5 55L51.985 58.75" stroke="#F6F6FD" stroke-width="2.5" stroke-linecap="round" stroke-linejoin="round"/>
<path d="M30 31.25C32.7614 31.25 35 29.0114 35 26.25C35 23.4886 32.7614 21.25 30 21.25C27.2386 21.25 25 23.4886 25 26.25C25 29.0114 27.2386 31.25 30 31.25Z" stroke="#F6F6FD" stroke-width="2.5" stroke-linecap="round" stroke-linejoin="round"/>
<path d="M38.75 42.5C38.75 40.1794 37.8281 37.9538 36.1872 36.3128C34.5462 34.6719 32.3206 33.75 30 33.75C27.6794 33.75 25.4538 34.6719 23.8128 36.3128C22.1719 37.9538 21.25 40.1794 21.25 42.5V46.25H25L26.25 58.75H33.75L35 46.25H38.75V42.5Z" stroke="#F6F6FD" stroke-width="2.5" stroke-linecap="round" stroke-linejoin="round"/>
</svg>
