<svg width="80" height="80" viewBox="0 0 80 80" fill="none" xmlns="http://www.w3.org/2000/svg">
<rect width="80" height="80" rx="40" fill="#332A88"/>
<path d="M56.25 50.8333V53.3333C56.25 54.6594 55.7232 55.9312 54.7855 56.8689C53.8479 57.8066 52.5761 58.3333 51.25 58.3333H26.25C24.9239 58.3333 23.6521 57.8066 22.7145 56.8689C21.7768 55.9312 21.25 54.6594 21.25 53.3333V35.8333C21.25 34.5073 21.7768 33.2355 22.7145 32.2978C23.6521 31.3601 24.9239 30.8333 26.25 30.8333H51.25C52.5761 30.8333 53.8479 31.3601 54.7855 32.2978C55.7232 33.2355 56.25 34.5073 56.25 35.8333V38.3333" stroke="white" stroke-width="2.5" stroke-linecap="round" stroke-linejoin="round"/>
<path d="M51.25 30.8333L47.3683 23.07C47.2215 22.7762 47.0183 22.5142 46.7702 22.299C46.5221 22.0838 46.2341 21.9196 45.9225 21.8157C45.611 21.7118 45.282 21.6704 44.9544 21.6937C44.6268 21.717 44.307 21.8047 44.0133 21.9516L26.25 30.8333" stroke="white" stroke-width="2.5" stroke-linecap="round" stroke-linejoin="round"/>
<path d="M56.25 50.8333C56.913 50.8333 57.5489 50.5699 58.0178 50.1011C58.4866 49.6323 58.75 48.9964 58.75 48.3333V40.8333C58.75 40.1703 58.4866 39.5344 58.0178 39.0656C57.5489 38.5967 56.913 38.3333 56.25 38.3333H50C48.3424 38.3333 46.7527 38.9918 45.5806 40.1639C44.4085 41.336 43.75 42.9257 43.75 44.5833C43.75 46.2409 44.4085 47.8307 45.5806 49.0028C46.7527 50.1749 48.3424 50.8333 50 50.8333H56.25Z" stroke="white" stroke-width="2.5" stroke-linecap="round" stroke-linejoin="round"/>
<path d="M50 43.9583C50.1236 43.9583 50.2445 43.995 50.3472 44.0637C50.45 44.1324 50.5301 44.23 50.5774 44.3442C50.6247 44.4584 50.6371 44.584 50.613 44.7053C50.5889 44.8265 50.5294 44.9379 50.4419 45.0253C50.3545 45.1127 50.2432 45.1722 50.1219 45.1963C50.0007 45.2204 49.875 45.2081 49.7608 45.1608C49.6466 45.1135 49.549 45.0334 49.4803 44.9306C49.4117 44.8278 49.375 44.707 49.375 44.5833C49.375 44.4176 49.4408 44.2586 49.5581 44.1414C49.6753 44.0242 49.8342 43.9583 50 43.9583" stroke="white" stroke-width="2.5" stroke-linecap="round" stroke-linejoin="round"/>
</svg>
