<svg width="430" height="430" viewBox="0 0 430 430" fill="none" xmlns="http://www.w3.org/2000/svg">
<g filter="url(#filter0_dddd)">
<rect x="50" y="40" width="330" height="330" rx="165" fill="#332A88"/>
</g>
<path d="M165.764 136.319C165.764 137.718 165.528 138.941 165.057 139.988C164.586 141.028 163.919 141.823 163.056 142.372C162.192 142.922 161.185 143.196 160.034 143.196C158.909 143.196 157.912 142.922 157.042 142.372C156.172 141.816 155.495 141.028 155.011 140.008C154.533 138.981 154.288 137.794 154.275 136.446V135.416C154.275 134.043 154.514 132.829 154.991 131.776C155.469 130.723 156.142 129.919 157.012 129.363C157.889 128.8 158.889 128.519 160.014 128.519C161.159 128.519 162.166 128.797 163.036 129.353C163.913 129.902 164.586 130.703 165.057 131.757C165.528 132.803 165.764 134.023 165.764 135.416V136.319ZM163.89 135.396C163.89 133.702 163.55 132.404 162.869 131.501C162.189 130.592 161.237 130.138 160.014 130.138C158.824 130.138 157.885 130.592 157.199 131.501C156.518 132.404 156.168 133.66 156.149 135.269V136.319C156.149 137.96 156.492 139.252 157.179 140.194C157.872 141.129 158.824 141.597 160.034 141.597C161.251 141.597 162.192 141.156 162.86 140.273C163.527 139.383 163.87 138.111 163.89 136.456V135.396ZM171.807 140.537L174.437 132.384H176.291L172.484 143H171.101L167.255 132.384H169.109L171.807 140.537ZM182.305 143.196C180.866 143.196 179.695 142.725 178.793 141.783C177.89 140.835 177.439 139.569 177.439 137.987V137.653C177.439 136.6 177.638 135.661 178.037 134.837C178.443 134.007 179.005 133.359 179.725 132.895C180.451 132.424 181.236 132.188 182.079 132.188C183.459 132.188 184.532 132.643 185.297 133.552C186.063 134.461 186.445 135.763 186.445 137.457V138.212H179.254C179.28 139.259 179.584 140.106 180.166 140.753C180.755 141.394 181.501 141.715 182.403 141.715C183.044 141.715 183.587 141.584 184.032 141.322C184.477 141.061 184.866 140.714 185.199 140.282L186.308 141.146C185.418 142.513 184.084 143.196 182.305 143.196ZM182.079 133.68C181.347 133.68 180.732 133.948 180.235 134.484C179.738 135.014 179.43 135.759 179.313 136.721H184.63V136.584C184.578 135.661 184.329 134.948 183.885 134.445C183.44 133.935 182.838 133.68 182.079 133.68ZM193.686 134.013C193.411 133.967 193.114 133.944 192.793 133.944C191.603 133.944 190.795 134.451 190.37 135.465V143H188.555V132.384H190.321L190.35 133.611C190.945 132.662 191.789 132.188 192.881 132.188C193.235 132.188 193.503 132.234 193.686 132.326V134.013ZM201.525 143C201.42 142.791 201.335 142.418 201.27 141.882C200.426 142.758 199.419 143.196 198.248 143.196C197.201 143.196 196.341 142.902 195.668 142.313C195.001 141.718 194.667 140.966 194.667 140.057C194.667 138.951 195.086 138.094 195.923 137.486C196.767 136.871 197.95 136.564 199.474 136.564H201.24V135.73C201.24 135.096 201.051 134.592 200.671 134.219C200.292 133.84 199.733 133.65 198.994 133.65C198.346 133.65 197.803 133.814 197.365 134.141C196.927 134.468 196.708 134.863 196.708 135.328H194.883C194.883 134.798 195.069 134.288 195.442 133.797C195.821 133.3 196.332 132.908 196.973 132.62C197.62 132.332 198.33 132.188 199.102 132.188C200.325 132.188 201.283 132.496 201.976 133.11C202.67 133.719 203.029 134.559 203.055 135.632V140.518C203.055 141.492 203.18 142.267 203.428 142.843V143H201.525ZM198.513 141.617C199.082 141.617 199.622 141.469 200.132 141.175C200.642 140.881 201.011 140.498 201.24 140.027V137.849H199.818C197.594 137.849 196.482 138.5 196.482 139.802C196.482 140.371 196.672 140.815 197.051 141.136C197.43 141.456 197.918 141.617 198.513 141.617ZM207.873 143H206.058V127.93H207.873V143ZM212.759 143H210.943V127.93H212.759V143ZM226.18 137.221H222.825V143H220.931V128.715H225.66C227.269 128.715 228.505 129.081 229.369 129.814C230.239 130.547 230.674 131.613 230.674 133.012C230.674 133.902 230.432 134.677 229.947 135.338C229.47 135.998 228.803 136.492 227.946 136.819L231.301 142.882V143H229.28L226.18 137.221ZM222.825 135.681H225.719C226.654 135.681 227.397 135.439 227.946 134.955C228.502 134.471 228.78 133.823 228.78 133.012C228.78 132.129 228.515 131.452 227.985 130.981C227.462 130.511 226.703 130.272 225.709 130.265H222.825V135.681ZM239.592 143C239.487 142.791 239.402 142.418 239.337 141.882C238.493 142.758 237.486 143.196 236.315 143.196C235.268 143.196 234.408 142.902 233.735 142.313C233.067 141.718 232.734 140.966 232.734 140.057C232.734 138.951 233.152 138.094 233.99 137.486C234.833 136.871 236.017 136.564 237.541 136.564H239.307V135.73C239.307 135.096 239.118 134.592 238.738 134.219C238.359 133.84 237.8 133.65 237.061 133.65C236.413 133.65 235.87 133.814 235.432 134.141C234.994 134.468 234.775 134.863 234.775 135.328H232.95C232.95 134.798 233.136 134.288 233.509 133.797C233.888 133.3 234.398 132.908 235.039 132.62C235.687 132.332 236.397 132.188 237.168 132.188C238.392 132.188 239.35 132.496 240.043 133.11C240.736 133.719 241.096 134.559 241.122 135.632V140.518C241.122 141.492 241.247 142.267 241.495 142.843V143H239.592ZM236.58 141.617C237.149 141.617 237.688 141.469 238.199 141.175C238.709 140.881 239.078 140.498 239.307 140.027V137.849H237.885C235.661 137.849 234.549 138.5 234.549 139.802C234.549 140.371 234.739 140.815 235.118 141.136C235.497 141.456 235.985 141.617 236.58 141.617ZM246.43 129.814V132.384H248.412V133.787H246.43V140.371C246.43 140.796 246.518 141.116 246.695 141.332C246.872 141.541 247.172 141.646 247.598 141.646C247.807 141.646 248.095 141.607 248.461 141.528V143C247.983 143.131 247.519 143.196 247.068 143.196C246.257 143.196 245.645 142.951 245.233 142.46C244.821 141.97 244.615 141.273 244.615 140.371V133.787H242.682V132.384H244.615V129.814H246.43ZM252.513 143H250.698V132.384H252.513V143ZM250.551 129.569C250.551 129.274 250.639 129.026 250.816 128.823C250.999 128.62 251.267 128.519 251.62 128.519C251.973 128.519 252.241 128.62 252.425 128.823C252.608 129.026 252.699 129.274 252.699 129.569C252.699 129.863 252.608 130.108 252.425 130.305C252.241 130.501 251.973 130.599 251.62 130.599C251.267 130.599 250.999 130.501 250.816 130.305C250.639 130.108 250.551 129.863 250.551 129.569ZM257.144 132.384L257.203 133.719C258.014 132.698 259.073 132.188 260.381 132.188C262.625 132.188 263.756 133.454 263.776 135.985V143H261.961V135.975C261.954 135.21 261.778 134.644 261.431 134.278C261.091 133.912 260.558 133.729 259.832 133.729C259.243 133.729 258.727 133.886 258.282 134.199C257.837 134.513 257.49 134.926 257.242 135.436V143H255.427V132.384H257.144ZM266.082 137.604C266.082 135.949 266.464 134.634 267.229 133.66C267.995 132.679 269.009 132.188 270.271 132.188C271.566 132.188 272.576 132.646 273.303 133.562L273.391 132.384H275.049V142.745C275.049 144.118 274.64 145.201 273.822 145.992C273.011 146.784 271.919 147.18 270.546 147.18C269.78 147.18 269.031 147.016 268.299 146.689C267.566 146.362 267.007 145.914 266.621 145.345L267.563 144.256C268.341 145.217 269.293 145.698 270.418 145.698C271.301 145.698 271.988 145.449 272.478 144.952C272.975 144.455 273.224 143.755 273.224 142.853V141.94C272.498 142.778 271.507 143.196 270.251 143.196C269.009 143.196 268.001 142.696 267.229 141.695C266.464 140.694 266.082 139.331 266.082 137.604ZM267.906 137.81C267.906 139.007 268.152 139.949 268.642 140.636C269.133 141.316 269.82 141.656 270.703 141.656C271.847 141.656 272.688 141.136 273.224 140.096V135.249C272.668 134.235 271.834 133.729 270.722 133.729C269.839 133.729 269.149 134.072 268.652 134.759C268.155 135.445 267.906 136.463 267.906 137.81Z" fill="#F6F6FD"/>
<path d="M196.437 264H165.051V259.624L181.633 241.201C184.089 238.415 185.778 236.156 186.699 234.423C187.642 232.669 188.114 230.859 188.114 228.995C188.114 226.494 187.357 224.444 185.844 222.843C184.33 221.241 182.313 220.441 179.79 220.441C176.763 220.441 174.406 221.307 172.717 223.04C171.05 224.751 170.216 227.141 170.216 230.212H164.13C164.13 225.804 165.545 222.239 168.374 219.52C171.225 216.8 175.031 215.44 179.79 215.44C184.243 215.44 187.763 216.614 190.351 218.96C192.939 221.285 194.233 224.389 194.233 228.271C194.233 232.987 191.228 238.601 185.219 245.116L172.388 259.032H196.437V264ZM204.728 268.112H199.497L219.5 216.098H224.698L204.728 268.112ZM233.45 239.983L235.884 216.098H260.427V221.724H241.049L239.602 234.785C241.949 233.403 244.613 232.712 247.596 232.712C251.961 232.712 255.426 234.16 257.993 237.055C260.559 239.928 261.842 243.822 261.842 248.735C261.842 253.67 260.504 257.563 257.828 260.414C255.174 263.243 251.457 264.658 246.675 264.658C242.442 264.658 238.988 263.485 236.312 261.138C233.636 258.791 232.112 255.545 231.739 251.399H237.496C237.869 254.141 238.845 256.214 240.424 257.617C242.003 258.999 244.087 259.69 246.675 259.69C249.505 259.69 251.72 258.725 253.321 256.795C254.944 254.865 255.755 252.2 255.755 248.8C255.755 245.598 254.878 243.032 253.124 241.102C251.391 239.15 249.077 238.174 246.182 238.174C243.528 238.174 241.444 238.755 239.931 239.917L238.319 241.233L233.45 239.983Z" fill="#F6F6FD"/>
<path d="M141.395 167.209L145.348 175.164L154.135 176.465L147.791 182.683L149.269 191.442L141.395 187.329L133.522 191.442L135 182.683L128.656 176.465L137.443 175.164L141.395 167.209Z" fill="white"/>
<path d="M178.231 167.209L182.184 175.164L190.971 176.465L184.627 182.683L186.105 191.442L178.231 187.329L170.358 191.442L171.836 182.683L165.492 176.465L174.279 175.164L178.231 167.209Z" fill="white"/>
<path d="M215.07 167.209L219.023 175.164L227.81 176.465L221.466 182.683L222.944 191.442L215.07 187.329L207.197 191.442L208.675 182.683L202.331 176.465L211.118 175.164L215.07 167.209Z" fill="#BEBAE6"/>
<path d="M251.907 167.209L255.86 175.164L264.647 176.465L258.303 182.683L259.781 191.442L251.907 187.329L244.034 191.442L245.512 182.683L239.168 176.465L247.955 175.164L251.907 167.209Z" fill="#BEBAE6"/>
<path d="M288.743 167.209L292.696 175.164L301.483 176.465L295.138 182.683L296.617 191.442L288.743 187.329L280.869 191.442L282.348 182.683L276.003 176.465L284.79 175.164L288.743 167.209Z" fill="#BEBAE6"/>
<defs>
<filter id="filter0_dddd" x="0" y="0" width="430" height="430" filterUnits="userSpaceOnUse" color-interpolation-filters="sRGB">
<feFlood flood-opacity="0" result="BackgroundImageFix"/>
<feColorMatrix in="SourceAlpha" type="matrix" values="0 0 0 0 0 0 0 0 0 0 0 0 0 0 0 0 0 0 127 0"/>
<feOffset dy="10"/>
<feGaussianBlur stdDeviation="25"/>
<feColorMatrix type="matrix" values="0 0 0 0 0 0 0 0 0 0 0 0 0 0 0 0 0 0 0.08 0"/>
<feBlend mode="normal" in2="BackgroundImageFix" result="effect1_dropShadow"/>
<feColorMatrix in="SourceAlpha" type="matrix" values="0 0 0 0 0 0 0 0 0 0 0 0 0 0 0 0 0 0 127 0"/>
<feOffset dy="10"/>
<feGaussianBlur stdDeviation="12.5"/>
<feColorMatrix type="matrix" values="0 0 0 0 0 0 0 0 0 0 0 0 0 0 0 0 0 0 0.08 0"/>
<feBlend mode="normal" in2="effect1_dropShadow" result="effect2_dropShadow"/>
<feColorMatrix in="SourceAlpha" type="matrix" values="0 0 0 0 0 0 0 0 0 0 0 0 0 0 0 0 0 0 127 0"/>
<feOffset dy="3"/>
<feGaussianBlur stdDeviation="3"/>
<feColorMatrix type="matrix" values="0 0 0 0 0 0 0 0 0 0 0 0 0 0 0 0 0 0 0.1 0"/>
<feBlend mode="normal" in2="effect2_dropShadow" result="effect3_dropShadow"/>
<feColorMatrix in="SourceAlpha" type="matrix" values="0 0 0 0 0 0 0 0 0 0 0 0 0 0 0 0 0 0 127 0"/>
<feOffset dy="10"/>
<feGaussianBlur stdDeviation="12.5"/>
<feColorMatrix type="matrix" values="0 0 0 0 0 0 0 0 0 0 0 0 0 0 0 0 0 0 0.12 0"/>
<feBlend mode="normal" in2="effect3_dropShadow" result="effect4_dropShadow"/>
<feBlend mode="normal" in="SourceGraphic" in2="effect4_dropShadow" result="shape"/>
</filter>
</defs>
</svg>
