<svg width="430" height="431" viewBox="0 0 430 431" fill="none" xmlns="http://www.w3.org/2000/svg">
<g filter="url(#filter0_dddd)">
<rect x="50" y="40.9573" width="330" height="330" rx="165" fill="#332A88"/>
<g filter="url(#filter1_d)">
<rect x="51" y="112.957" width="328" height="173" rx="8" fill="white"/>
</g>
<path d="M83.7988 233.451C83.7988 232.729 83.5645 232.14 83.0957 231.684C82.627 231.222 81.8001 230.785 80.6152 230.375C79.1439 229.913 78.112 229.366 77.5195 228.735C76.9271 228.097 76.6309 227.273 76.6309 226.264C76.6309 225.203 76.9564 224.343 77.6074 223.686C78.2585 223.022 79.1439 222.644 80.2637 222.553V220.58H81.2598V222.553C82.4056 222.657 83.291 223.087 83.916 223.842C84.5475 224.597 84.8633 225.623 84.8633 226.918H83.7012C83.7012 225.896 83.4342 225.086 82.9004 224.487C82.373 223.881 81.6504 223.578 80.7324 223.578C79.8079 223.578 79.0853 223.823 78.5645 224.311C78.0501 224.793 77.793 225.437 77.793 226.244C77.793 227.026 78.0306 227.638 78.5059 228.08C78.9811 228.517 79.7884 228.93 80.9277 229.321C82.0736 229.705 82.9036 230.076 83.418 230.434C83.9388 230.785 84.3262 231.205 84.5801 231.694C84.8405 232.175 84.9707 232.755 84.9707 233.432C84.9707 234.5 84.6354 235.362 83.9648 236.02C83.3008 236.671 82.3861 237.042 81.2207 237.133V238.989H80.2344V237.143C78.9258 237.058 77.9134 236.648 77.1973 235.912C76.4811 235.17 76.123 234.158 76.123 232.875H77.2949C77.2949 233.891 77.5911 234.688 78.1836 235.268C78.776 235.841 79.6029 236.127 80.6641 236.127C81.5885 236.127 82.3405 235.88 82.9199 235.385C83.5059 234.89 83.7988 234.246 83.7988 233.451ZM92.8711 236.957H91.6992V224.145L87.832 225.58V224.487L92.6758 222.69H92.8711V236.957ZM98.4668 239.614L97.7734 239.106C98.3659 238.311 98.6719 237.488 98.6914 236.635V235.121H99.834V236.342C99.834 237.696 99.3783 238.787 98.4668 239.614ZM110.928 231.03C110.928 233.035 110.56 234.558 109.824 235.6C109.089 236.635 108.005 237.153 106.572 237.153C105.166 237.153 104.089 236.645 103.34 235.629C102.591 234.607 102.207 233.123 102.188 231.176V228.627C102.188 226.628 102.559 225.115 103.301 224.086C104.043 223.058 105.127 222.543 106.553 222.543C107.959 222.543 109.033 223.041 109.775 224.037C110.518 225.027 110.902 226.489 110.928 228.422V231.03ZM109.756 228.481C109.756 226.853 109.489 225.623 108.955 224.789C108.428 223.956 107.627 223.539 106.553 223.539C105.498 223.539 104.704 223.946 104.17 224.76C103.636 225.574 103.363 226.775 103.35 228.364V231.156C103.35 232.778 103.623 234.018 104.17 234.877C104.723 235.737 105.524 236.166 106.572 236.166C107.614 236.166 108.402 235.746 108.936 234.906C109.476 234.067 109.749 232.836 109.756 231.215V228.481ZM122.021 231.03C122.021 233.035 121.654 234.558 120.918 235.6C120.182 236.635 119.098 237.153 117.666 237.153C116.26 237.153 115.182 236.645 114.434 235.629C113.685 234.607 113.301 233.123 113.281 231.176V228.627C113.281 226.628 113.652 225.115 114.395 224.086C115.137 223.058 116.221 222.543 117.646 222.543C119.053 222.543 120.127 223.041 120.869 224.037C121.611 225.027 121.995 226.489 122.021 228.422V231.03ZM120.85 228.481C120.85 226.853 120.583 225.623 120.049 224.789C119.521 223.956 118.721 223.539 117.646 223.539C116.592 223.539 115.798 223.946 115.264 224.76C114.73 225.574 114.456 226.775 114.443 228.364V231.156C114.443 232.778 114.717 234.018 115.264 234.877C115.817 235.737 116.618 236.166 117.666 236.166C118.708 236.166 119.495 235.746 120.029 234.906C120.57 234.067 120.843 232.836 120.85 231.215V228.481ZM131.719 232.377H133.936V233.364H131.719V236.957H130.547V233.364H123.857V232.699L130.439 222.739H131.719V232.377ZM125.293 232.377H130.547V224.252L130.029 225.151L125.293 232.377Z" fill="#332A88"/>
<path d="M93.0996 255.452V257.957H91.6348V250.848H94.4082C94.9421 250.848 95.4108 250.946 95.8145 251.141C96.2214 251.336 96.5339 251.615 96.752 251.976C96.9701 252.334 97.0791 252.742 97.0791 253.201C97.0791 253.898 96.8398 254.448 96.3613 254.852C95.8861 255.252 95.2269 255.452 94.3838 255.452H93.0996ZM93.0996 254.266H94.4082C94.7956 254.266 95.0902 254.175 95.292 253.992C95.4971 253.81 95.5996 253.55 95.5996 253.211C95.5996 252.863 95.4971 252.581 95.292 252.366C95.0869 252.152 94.8037 252.041 94.4424 252.034H93.0996V254.266ZM101.734 256.492H99.166L98.6777 257.957H97.1201L99.7666 250.848H101.124L103.785 257.957H102.228L101.734 256.492ZM99.5615 255.306H101.339L100.445 252.645L99.5615 255.306ZM106.507 257.957H105.042V250.848H106.507V257.957ZM108.369 257.957V250.848H110.557C111.182 250.848 111.74 250.99 112.231 251.273C112.726 251.553 113.112 251.953 113.389 252.474C113.665 252.991 113.804 253.581 113.804 254.241V254.569C113.804 255.229 113.667 255.817 113.394 256.331C113.123 256.846 112.741 257.244 112.246 257.528C111.751 257.811 111.193 257.954 110.571 257.957H108.369ZM109.834 252.034V256.781H110.542C111.115 256.781 111.553 256.593 111.855 256.219C112.158 255.845 112.313 255.309 112.319 254.613V254.237C112.319 253.514 112.17 252.967 111.87 252.596C111.571 252.222 111.133 252.034 110.557 252.034H109.834ZM124.203 254.564C124.203 255.264 124.079 255.877 123.832 256.405C123.585 256.932 123.23 257.339 122.768 257.625C122.309 257.912 121.781 258.055 121.186 258.055C120.596 258.055 120.071 257.913 119.608 257.63C119.146 257.347 118.788 256.943 118.534 256.419C118.28 255.892 118.152 255.286 118.148 254.603V254.251C118.148 253.551 118.274 252.936 118.524 252.406C118.778 251.872 119.135 251.463 119.594 251.18C120.056 250.893 120.583 250.75 121.176 250.75C121.768 250.75 122.294 250.893 122.753 251.18C123.215 251.463 123.572 251.872 123.822 252.406C124.076 252.936 124.203 253.55 124.203 254.246V254.564ZM122.719 254.241C122.719 253.496 122.585 252.93 122.318 252.542C122.051 252.155 121.671 251.961 121.176 251.961C120.684 251.961 120.305 252.153 120.038 252.537C119.771 252.918 119.636 253.478 119.633 254.217V254.564C119.633 255.29 119.766 255.853 120.033 256.253C120.3 256.654 120.684 256.854 121.186 256.854C121.677 256.854 122.055 256.662 122.318 256.278C122.582 255.89 122.715 255.327 122.719 254.588V254.241ZM131.148 250.848V255.531C131.148 256.309 130.904 256.924 130.416 257.376C129.931 257.829 129.267 258.055 128.424 258.055C127.594 258.055 126.935 257.835 126.446 257.396C125.958 256.956 125.709 256.352 125.699 255.584V250.848H127.164V255.54C127.164 256.006 127.275 256.346 127.496 256.561C127.721 256.772 128.03 256.878 128.424 256.878C129.247 256.878 129.666 256.445 129.679 255.579V250.848H131.148ZM138.201 252.034H136.023V257.957H134.559V252.034H132.41V250.848H138.201V252.034Z" fill="#ADA5F3"/>
<rect x="75" y="248.957" width="11.2941" height="12" rx="5.64706" fill="#332A88"/>
<path d="M169.799 233.451C169.799 232.729 169.564 232.14 169.096 231.684C168.627 231.222 167.8 230.785 166.615 230.375C165.144 229.913 164.112 229.366 163.52 228.735C162.927 228.097 162.631 227.273 162.631 226.264C162.631 225.203 162.956 224.343 163.607 223.686C164.258 223.022 165.144 222.644 166.264 222.553V220.58H167.26V222.553C168.406 222.657 169.291 223.087 169.916 223.842C170.548 224.597 170.863 225.623 170.863 226.918H169.701C169.701 225.896 169.434 225.086 168.9 224.487C168.373 223.881 167.65 223.578 166.732 223.578C165.808 223.578 165.085 223.823 164.564 224.311C164.05 224.793 163.793 225.437 163.793 226.244C163.793 227.026 164.031 227.638 164.506 228.08C164.981 228.517 165.788 228.93 166.928 229.321C168.074 229.705 168.904 230.076 169.418 230.434C169.939 230.785 170.326 231.205 170.58 231.694C170.84 232.175 170.971 232.755 170.971 233.432C170.971 234.5 170.635 235.362 169.965 236.02C169.301 236.671 168.386 237.042 167.221 237.133V238.989H166.234V237.143C164.926 237.058 163.913 236.648 163.197 235.912C162.481 235.17 162.123 234.158 162.123 232.875H163.295C163.295 233.891 163.591 234.688 164.184 235.268C164.776 235.841 165.603 236.127 166.664 236.127C167.589 236.127 168.34 235.88 168.92 235.385C169.506 234.89 169.799 234.246 169.799 233.451ZM178.871 236.957H177.699V224.145L173.832 225.58V224.487L178.676 222.69H178.871V236.957ZM184.467 239.614L183.773 239.106C184.366 238.311 184.672 237.488 184.691 236.635V235.121H185.834V236.342C185.834 237.696 185.378 238.787 184.467 239.614ZM195.248 222.631V223.656H195.111C193.412 223.656 192.074 224.158 191.098 225.16C190.121 226.156 189.581 227.543 189.477 229.321C189.867 228.78 190.365 228.364 190.971 228.071C191.576 227.771 192.253 227.621 193.002 227.621C194.252 227.621 195.245 228.054 195.98 228.92C196.723 229.78 197.094 230.906 197.094 232.299C197.094 233.224 196.921 234.057 196.576 234.799C196.231 235.541 195.736 236.121 195.092 236.537C194.447 236.948 193.712 237.153 192.885 237.153C191.524 237.153 190.417 236.661 189.564 235.678C188.712 234.688 188.285 233.412 188.285 231.85V230.678C188.285 228.132 188.865 226.163 190.023 224.77C191.182 223.37 192.826 222.657 194.955 222.631H195.248ZM192.816 228.627C192.074 228.627 191.381 228.849 190.736 229.291C190.098 229.727 189.672 230.284 189.457 230.961V231.957C189.457 233.194 189.773 234.203 190.404 234.985C191.042 235.766 191.869 236.156 192.885 236.156C193.796 236.156 194.532 235.795 195.092 235.073C195.658 234.35 195.941 233.438 195.941 232.338C195.941 231.218 195.658 230.32 195.092 229.643C194.532 228.966 193.773 228.627 192.816 228.627ZM208.021 231.03C208.021 233.035 207.654 234.558 206.918 235.6C206.182 236.635 205.098 237.153 203.666 237.153C202.26 237.153 201.182 236.645 200.434 235.629C199.685 234.607 199.301 233.123 199.281 231.176V228.627C199.281 226.628 199.652 225.115 200.395 224.086C201.137 223.058 202.221 222.543 203.646 222.543C205.053 222.543 206.127 223.041 206.869 224.037C207.611 225.027 207.995 226.489 208.021 228.422V231.03ZM206.85 228.481C206.85 226.853 206.583 225.623 206.049 224.789C205.521 223.956 204.721 223.539 203.646 223.539C202.592 223.539 201.798 223.946 201.264 224.76C200.73 225.574 200.456 226.775 200.443 228.364V231.156C200.443 232.778 200.717 234.018 201.264 234.877C201.817 235.737 202.618 236.166 203.666 236.166C204.708 236.166 205.495 235.746 206.029 234.906C206.57 234.067 206.843 232.836 206.85 231.215V228.481ZM219.301 223.412L213.227 236.957H212.006L218.041 223.735H209.955V222.739H219.301V223.412Z" fill="#332A88"/>
<path d="M181.912 254.876H179.1V256.781H182.4V257.957H177.635V250.848H182.391V252.034H179.1V253.729H181.912V254.876ZM186.304 253.299L187.637 250.848H189.321L187.251 254.373L189.375 257.957H187.671L186.304 255.467L184.937 257.957H183.232L185.356 254.373L183.286 250.848H184.971L186.304 253.299ZM192.082 255.452V257.957H190.617V250.848H193.391C193.924 250.848 194.393 250.946 194.797 251.141C195.204 251.336 195.516 251.615 195.734 251.976C195.952 252.334 196.062 252.742 196.062 253.201C196.062 253.898 195.822 254.448 195.344 254.852C194.868 255.252 194.209 255.452 193.366 255.452H192.082ZM192.082 254.266H193.391C193.778 254.266 194.073 254.175 194.274 253.992C194.479 253.81 194.582 253.55 194.582 253.211C194.582 252.863 194.479 252.581 194.274 252.366C194.069 252.152 193.786 252.041 193.425 252.034H192.082V254.266ZM201.85 254.876H199.037V256.781H202.338V257.957H197.572V250.848H202.328V252.034H199.037V253.729H201.85V254.876ZM209.278 255.589C209.223 256.354 208.94 256.956 208.429 257.396C207.921 257.835 207.25 258.055 206.417 258.055C205.506 258.055 204.788 257.749 204.264 257.137C203.743 256.522 203.482 255.679 203.482 254.608V254.173C203.482 253.49 203.603 252.887 203.844 252.366C204.085 251.846 204.428 251.447 204.874 251.17C205.323 250.89 205.844 250.75 206.437 250.75C207.257 250.75 207.918 250.97 208.419 251.409C208.92 251.849 209.21 252.466 209.288 253.26H207.823C207.787 252.801 207.659 252.469 207.438 252.264C207.219 252.056 206.886 251.951 206.437 251.951C205.948 251.951 205.582 252.127 205.338 252.479C205.097 252.827 204.973 253.369 204.967 254.105V254.642C204.967 255.41 205.082 255.972 205.313 256.326C205.548 256.681 205.916 256.859 206.417 256.859C206.869 256.859 207.206 256.756 207.428 256.551C207.652 256.343 207.781 256.022 207.813 255.589H209.278ZM215.945 252.034H213.768V257.957H212.303V252.034H210.154V250.848H215.945V252.034ZM221.562 254.876H218.75V256.781H222.051V257.957H217.285V250.848H222.041V252.034H218.75V253.729H221.562V254.876ZM223.41 257.957V250.848H225.598C226.223 250.848 226.781 250.99 227.272 251.273C227.767 251.553 228.153 251.953 228.43 252.474C228.706 252.991 228.845 253.581 228.845 254.241V254.569C228.845 255.229 228.708 255.817 228.435 256.331C228.164 256.846 227.782 257.244 227.287 257.528C226.792 257.811 226.234 257.954 225.612 257.957H223.41ZM224.875 252.034V256.781H225.583C226.156 256.781 226.594 256.593 226.896 256.219C227.199 255.845 227.354 255.309 227.36 254.613V254.237C227.36 253.514 227.211 252.967 226.911 252.596C226.612 252.222 226.174 252.034 225.598 252.034H224.875Z" fill="#ADA5F3"/>
<rect x="161" y="248.957" width="11.2941" height="12" rx="5.64706" fill="#ADA5F3"/>
<path d="M75 198.957H355" stroke="black" stroke-opacity="0.15"/>
<path d="M284.244 157.957H275.338V157.059L280.211 151.531C281.018 150.601 281.578 149.832 281.891 149.227C282.203 148.621 282.359 148.032 282.359 147.459C282.359 146.561 282.096 145.851 281.568 145.33C281.041 144.803 280.315 144.539 279.391 144.539C278.434 144.539 277.659 144.845 277.066 145.457C276.48 146.069 276.188 146.864 276.188 147.84H275.025C275.025 147.039 275.204 146.31 275.562 145.653C275.927 144.995 276.441 144.481 277.105 144.11C277.776 143.732 278.538 143.543 279.391 143.543C280.693 143.543 281.708 143.885 282.438 144.569C283.173 145.252 283.541 146.183 283.541 147.362C283.541 148.026 283.333 148.752 282.916 149.539C282.506 150.327 281.78 151.31 280.738 152.489L276.773 156.971H284.244V157.957ZM295.006 152.03C295.006 154.035 294.638 155.558 293.902 156.6C293.167 157.635 292.083 158.153 290.65 158.153C289.244 158.153 288.167 157.645 287.418 156.629C286.669 155.607 286.285 154.123 286.266 152.176V149.627C286.266 147.628 286.637 146.115 287.379 145.086C288.121 144.058 289.205 143.543 290.631 143.543C292.037 143.543 293.111 144.041 293.854 145.037C294.596 146.027 294.98 147.489 295.006 149.422V152.03ZM293.834 149.481C293.834 147.853 293.567 146.623 293.033 145.789C292.506 144.956 291.705 144.539 290.631 144.539C289.576 144.539 288.782 144.946 288.248 145.76C287.714 146.574 287.441 147.775 287.428 149.364V152.156C287.428 153.778 287.701 155.018 288.248 155.877C288.801 156.737 289.602 157.166 290.65 157.166C291.692 157.166 292.48 156.746 293.014 155.906C293.554 155.067 293.827 153.836 293.834 152.215V149.481Z" fill="#332A88"/>
<path d="M279.986 173.034H277.809V178.957H276.344V173.034H274.195V171.848H279.986V173.034ZM287.029 175.564C287.029 176.264 286.906 176.877 286.658 177.405C286.411 177.932 286.056 178.339 285.594 178.625C285.135 178.912 284.607 179.055 284.012 179.055C283.423 179.055 282.897 178.913 282.435 178.63C281.972 178.347 281.614 177.943 281.36 177.419C281.106 176.892 280.978 176.286 280.975 175.603V175.251C280.975 174.551 281.1 173.936 281.351 173.406C281.604 172.872 281.961 172.463 282.42 172.18C282.882 171.893 283.41 171.75 284.002 171.75C284.594 171.75 285.12 171.893 285.579 172.18C286.041 172.463 286.398 172.872 286.648 173.406C286.902 173.936 287.029 174.55 287.029 175.246V175.564ZM285.545 175.241C285.545 174.496 285.411 173.93 285.145 173.542C284.878 173.155 284.497 172.961 284.002 172.961C283.51 172.961 283.131 173.153 282.864 173.537C282.597 173.918 282.462 174.478 282.459 175.217V175.564C282.459 176.29 282.592 176.853 282.859 177.253C283.126 177.654 283.51 177.854 284.012 177.854C284.503 177.854 284.881 177.662 285.145 177.278C285.408 176.89 285.542 176.327 285.545 175.588V175.241ZM293.525 173.034H291.348V178.957H289.883V173.034H287.734V171.848H293.525V173.034ZM298.293 177.492H295.725L295.236 178.957H293.679L296.325 171.848H297.683L300.344 178.957H298.786L298.293 177.492ZM296.12 176.306H297.897L297.004 173.645L296.12 176.306ZM302.973 177.781H306.083V178.957H301.508V171.848H302.973V177.781ZM313.05 176.355H311.883V178.957H310.418V171.848H313.06C313.899 171.848 314.547 172.035 315.003 172.409C315.459 172.784 315.687 173.313 315.687 173.996C315.687 174.481 315.581 174.887 315.369 175.212C315.161 175.534 314.843 175.792 314.417 175.984L315.955 178.889V178.957H314.383L313.05 176.355ZM311.883 175.168H313.064C313.432 175.168 313.717 175.075 313.919 174.89C314.121 174.701 314.222 174.442 314.222 174.114C314.222 173.778 314.126 173.515 313.934 173.323C313.745 173.13 313.453 173.034 313.06 173.034H311.883V175.168ZM321.582 175.876H318.77V177.781H322.07V178.957H317.305V171.848H322.061V173.034H318.77V174.729H321.582V175.876ZM326.057 177.195L327.668 171.848H329.299L326.823 178.957H325.295L322.829 171.848H324.455L326.057 177.195ZM332.03 178.957H330.565V171.848H332.03V178.957ZM338.17 175.876H335.357V177.781H338.658V178.957H333.893V171.848H338.648V173.034H335.357V174.729H338.17V175.876ZM345.555 176.906L346.512 171.848H347.972L346.395 178.957H344.92L343.763 174.201L342.605 178.957H341.131L339.554 171.848H341.014L341.976 176.897L343.147 171.848H344.388L345.555 176.906ZM352.954 177.092C352.954 176.815 352.856 176.604 352.661 176.457C352.466 176.308 352.114 176.151 351.606 175.989C351.099 175.823 350.697 175.66 350.4 175.5C349.593 175.064 349.189 174.476 349.189 173.738C349.189 173.353 349.297 173.012 349.512 172.712C349.73 172.409 350.041 172.173 350.444 172.004C350.851 171.835 351.307 171.75 351.812 171.75C352.319 171.75 352.772 171.843 353.169 172.029C353.566 172.211 353.874 172.47 354.092 172.805C354.313 173.14 354.424 173.521 354.424 173.948H352.959C352.959 173.622 352.856 173.37 352.651 173.191C352.446 173.008 352.158 172.917 351.787 172.917C351.429 172.917 351.151 172.994 350.952 173.147C350.754 173.296 350.654 173.495 350.654 173.742C350.654 173.974 350.77 174.167 351.001 174.323C351.235 174.48 351.579 174.626 352.031 174.763C352.865 175.014 353.472 175.324 353.853 175.696C354.233 176.067 354.424 176.529 354.424 177.082C354.424 177.698 354.191 178.181 353.726 178.532C353.26 178.881 352.633 179.055 351.846 179.055C351.299 179.055 350.801 178.956 350.352 178.757C349.902 178.555 349.559 178.28 349.321 177.932C349.087 177.584 348.97 177.18 348.97 176.721H350.439C350.439 177.505 350.908 177.898 351.846 177.898C352.194 177.898 352.466 177.828 352.661 177.688C352.856 177.545 352.954 177.346 352.954 177.092Z" fill="#ADA5F3"/>
<path d="M83.7988 154.451C83.7988 153.729 83.5645 153.14 83.0957 152.684C82.627 152.222 81.8001 151.785 80.6152 151.375C79.1439 150.913 78.112 150.366 77.5195 149.735C76.9271 149.097 76.6309 148.273 76.6309 147.264C76.6309 146.203 76.9564 145.343 77.6074 144.686C78.2585 144.022 79.1439 143.644 80.2637 143.553V141.58H81.2598V143.553C82.4056 143.657 83.291 144.087 83.916 144.842C84.5475 145.597 84.8633 146.623 84.8633 147.918H83.7012C83.7012 146.896 83.4342 146.086 82.9004 145.487C82.373 144.881 81.6504 144.578 80.7324 144.578C79.8079 144.578 79.0853 144.823 78.5645 145.311C78.0501 145.793 77.793 146.437 77.793 147.244C77.793 148.026 78.0306 148.638 78.5059 149.08C78.9811 149.517 79.7884 149.93 80.9277 150.321C82.0736 150.705 82.9036 151.076 83.418 151.434C83.9388 151.785 84.3262 152.205 84.5801 152.694C84.8405 153.175 84.9707 153.755 84.9707 154.432C84.9707 155.5 84.6354 156.362 83.9648 157.02C83.3008 157.671 82.3861 158.042 81.2207 158.133V159.989H80.2344V158.143C78.9258 158.058 77.9134 157.648 77.1973 156.912C76.4811 156.17 76.123 155.158 76.123 153.875H77.2949C77.2949 154.891 77.5911 155.688 78.1836 156.268C78.776 156.841 79.6029 157.127 80.6641 157.127C81.5885 157.127 82.3405 156.88 82.9199 156.385C83.5059 155.89 83.7988 155.246 83.7988 154.451ZM96.3379 157.957H87.4316V157.059L92.3047 151.531C93.112 150.601 93.6719 149.832 93.9844 149.227C94.2969 148.621 94.4531 148.032 94.4531 147.459C94.4531 146.561 94.1895 145.851 93.6621 145.33C93.1348 144.803 92.4089 144.539 91.4844 144.539C90.5273 144.539 89.7526 144.845 89.1602 145.457C88.5742 146.069 88.2812 146.864 88.2812 147.84H87.1191C87.1191 147.039 87.2982 146.31 87.6562 145.653C88.0208 144.995 88.5352 144.481 89.1992 144.11C89.8698 143.732 90.6315 143.543 91.4844 143.543C92.7865 143.543 93.8021 143.885 94.5312 144.569C95.2669 145.252 95.6348 146.183 95.6348 147.362C95.6348 148.026 95.4264 148.752 95.0098 149.539C94.5996 150.327 93.8737 151.31 92.832 152.489L88.8672 156.971H96.3379V157.957ZM98.4668 160.614L97.7734 160.106C98.3659 159.311 98.6719 158.488 98.6914 157.635V156.121H99.834V157.342C99.834 158.696 99.3783 159.787 98.4668 160.614ZM109.248 143.631V144.656H109.111C107.412 144.656 106.074 145.158 105.098 146.16C104.121 147.156 103.581 148.543 103.477 150.321C103.867 149.78 104.365 149.364 104.971 149.071C105.576 148.771 106.253 148.621 107.002 148.621C108.252 148.621 109.245 149.054 109.98 149.92C110.723 150.78 111.094 151.906 111.094 153.299C111.094 154.224 110.921 155.057 110.576 155.799C110.231 156.541 109.736 157.121 109.092 157.537C108.447 157.948 107.712 158.153 106.885 158.153C105.524 158.153 104.417 157.661 103.564 156.678C102.712 155.688 102.285 154.412 102.285 152.85V151.678C102.285 149.132 102.865 147.163 104.023 145.77C105.182 144.37 106.826 143.657 108.955 143.631H109.248ZM106.816 149.627C106.074 149.627 105.381 149.849 104.736 150.291C104.098 150.727 103.672 151.284 103.457 151.961V152.957C103.457 154.194 103.773 155.203 104.404 155.985C105.042 156.766 105.869 157.156 106.885 157.156C107.796 157.156 108.532 156.795 109.092 156.073C109.658 155.35 109.941 154.438 109.941 153.338C109.941 152.218 109.658 151.32 109.092 150.643C108.532 149.966 107.773 149.627 106.816 149.627ZM118.887 157.957H117.715V145.145L113.848 146.58V145.487L118.691 143.69H118.887V157.957ZM129.98 157.957H128.809V145.145L124.941 146.58V145.487L129.785 143.69H129.98V157.957Z" fill="#332A88"/>
<path d="M79.9121 175.876H77.0996V177.781H80.4004V178.957H75.6348V171.848H80.3906V173.034H77.0996V174.729H79.9121V175.876ZM85.7734 177.492H83.2051L82.7168 178.957H81.1592L83.8057 171.848H85.1631L87.8242 178.957H86.2666L85.7734 177.492ZM83.6006 176.306H85.3779L84.4844 173.645L83.6006 176.306ZM91.6201 176.355H90.4531V178.957H88.9883V171.848H91.6299C92.4697 171.848 93.1175 172.035 93.5732 172.409C94.029 172.784 94.2568 173.313 94.2568 173.996C94.2568 174.481 94.151 174.887 93.9395 175.212C93.7311 175.534 93.4137 175.792 92.9873 175.984L94.5254 178.889V178.957H92.9531L91.6201 176.355ZM90.4531 175.168H91.6348C92.0026 175.168 92.2874 175.075 92.4893 174.89C92.6911 174.701 92.792 174.442 92.792 174.114C92.792 173.778 92.696 173.515 92.5039 173.323C92.3151 173.13 92.0238 173.034 91.6299 173.034H90.4531V175.168ZM101.656 178.957H100.191L97.3398 174.28V178.957H95.875V171.848H97.3398L100.196 176.535V171.848H101.656V178.957ZM104.993 178.957H103.528V171.848H104.993V178.957ZM112.637 178.957H111.172L108.32 174.28V178.957H106.855V171.848H108.32L111.177 176.535V171.848H112.637V178.957ZM120.041 178.059C119.777 178.375 119.405 178.62 118.923 178.796C118.441 178.969 117.907 179.055 117.321 179.055C116.706 179.055 116.166 178.921 115.7 178.655C115.238 178.384 114.88 177.994 114.626 177.483C114.375 176.972 114.247 176.371 114.24 175.681V175.198C114.24 174.488 114.359 173.874 114.597 173.357C114.838 172.836 115.183 172.439 115.632 172.165C116.084 171.889 116.613 171.75 117.219 171.75C118.062 171.75 118.721 171.952 119.196 172.356C119.672 172.756 119.953 173.34 120.041 174.109H118.615C118.55 173.702 118.405 173.404 118.181 173.215C117.959 173.026 117.653 172.932 117.263 172.932C116.765 172.932 116.385 173.119 116.125 173.493C115.865 173.868 115.733 174.424 115.729 175.163V175.617C115.729 176.363 115.871 176.926 116.154 177.307C116.438 177.688 116.853 177.878 117.399 177.878C117.95 177.878 118.342 177.761 118.576 177.527V176.301H117.243V175.222H120.041V178.059ZM125.419 177.092C125.419 176.815 125.321 176.604 125.126 176.457C124.931 176.308 124.579 176.151 124.071 175.989C123.563 175.823 123.161 175.66 122.865 175.5C122.058 175.064 121.654 174.476 121.654 173.738C121.654 173.353 121.762 173.012 121.977 172.712C122.195 172.409 122.506 172.173 122.909 172.004C123.316 171.835 123.772 171.75 124.276 171.75C124.784 171.75 125.237 171.843 125.634 172.029C126.031 172.211 126.339 172.47 126.557 172.805C126.778 173.14 126.889 173.521 126.889 173.948H125.424C125.424 173.622 125.321 173.37 125.116 173.191C124.911 173.008 124.623 172.917 124.252 172.917C123.894 172.917 123.616 172.994 123.417 173.147C123.218 173.296 123.119 173.495 123.119 173.742C123.119 173.974 123.235 174.167 123.466 174.323C123.7 174.48 124.044 174.626 124.496 174.763C125.329 175.014 125.937 175.324 126.317 175.696C126.698 176.067 126.889 176.529 126.889 177.082C126.889 177.698 126.656 178.181 126.19 178.532C125.725 178.881 125.098 179.055 124.311 179.055C123.764 179.055 123.266 178.956 122.816 178.757C122.367 178.555 122.024 178.28 121.786 177.932C121.552 177.584 121.435 177.18 121.435 176.721H122.904C122.904 177.505 123.373 177.898 124.311 177.898C124.659 177.898 124.931 177.828 125.126 177.688C125.321 177.545 125.419 177.346 125.419 177.092Z" fill="#ADA5F3"/>
<path d="M169.516 153.377H171.732V154.364H169.516V157.957H168.344V154.364H161.654V153.699L168.236 143.739H169.516V153.377ZM163.09 153.377H168.344V145.252L167.826 146.151L163.09 153.377ZM173.51 157.254C173.51 157.026 173.581 156.834 173.725 156.678C173.874 156.515 174.079 156.434 174.34 156.434C174.6 156.434 174.805 156.515 174.955 156.678C175.105 156.834 175.18 157.026 175.18 157.254C175.18 157.482 175.105 157.671 174.955 157.821C174.805 157.964 174.6 158.035 174.34 158.035C174.079 158.035 173.874 157.964 173.725 157.821C173.581 157.671 173.51 157.482 173.51 157.254ZM186.596 147.401C186.596 148.136 186.381 148.797 185.951 149.383C185.521 149.962 184.955 150.389 184.252 150.662C185.072 150.942 185.73 151.395 186.225 152.02C186.719 152.645 186.967 153.367 186.967 154.188C186.967 155.405 186.553 156.372 185.727 157.088C184.9 157.798 183.806 158.153 182.445 158.153C181.072 158.153 179.971 157.798 179.145 157.088C178.324 156.378 177.914 155.412 177.914 154.188C177.914 153.38 178.152 152.661 178.627 152.03C179.102 151.398 179.753 150.942 180.58 150.662C179.877 150.389 179.317 149.962 178.9 149.383C178.484 148.797 178.275 148.136 178.275 147.401C178.275 146.222 178.653 145.285 179.408 144.588C180.17 143.892 181.176 143.543 182.426 143.543C183.676 143.543 184.682 143.895 185.443 144.598C186.212 145.301 186.596 146.235 186.596 147.401ZM185.795 154.198C185.795 153.312 185.479 152.586 184.848 152.02C184.216 151.447 183.409 151.16 182.426 151.16C181.443 151.16 180.639 151.44 180.014 152C179.389 152.56 179.076 153.293 179.076 154.198C179.076 155.102 179.379 155.825 179.984 156.365C180.59 156.899 181.41 157.166 182.445 157.166C183.454 157.166 184.265 156.899 184.877 156.365C185.489 155.832 185.795 155.109 185.795 154.198ZM185.424 147.391C185.424 146.577 185.141 145.9 184.574 145.36C184.014 144.813 183.298 144.539 182.426 144.539C181.54 144.539 180.821 144.803 180.268 145.33C179.721 145.851 179.447 146.538 179.447 147.391C179.447 148.224 179.721 148.895 180.268 149.403C180.821 149.91 181.544 150.164 182.436 150.164C183.314 150.164 184.031 149.91 184.584 149.403C185.144 148.888 185.424 148.218 185.424 147.391ZM196.605 151.375C196.189 151.987 195.671 152.462 195.053 152.801C194.434 153.133 193.764 153.299 193.041 153.299C192.234 153.299 191.521 153.091 190.902 152.674C190.284 152.257 189.805 151.681 189.467 150.946C189.128 150.21 188.959 149.406 188.959 148.533C188.959 147.596 189.138 146.743 189.496 145.975C189.861 145.207 190.365 144.611 191.01 144.188C191.661 143.758 192.41 143.543 193.256 143.543C194.682 143.543 195.792 144.045 196.586 145.047C197.38 146.043 197.777 147.459 197.777 149.295V150.35C197.777 152.915 197.23 154.842 196.137 156.131C195.043 157.42 193.373 158.065 191.127 158.065H190.912L190.922 157.049H191.332C193.031 157.023 194.324 156.541 195.209 155.604C196.094 154.666 196.56 153.257 196.605 151.375ZM193.188 152.293C193.969 152.293 194.669 152.062 195.287 151.6C195.912 151.131 196.355 150.526 196.615 149.783V149.11C196.615 147.664 196.312 146.545 195.707 145.75C195.108 144.949 194.298 144.549 193.275 144.549C192.351 144.549 191.592 144.923 191 145.672C190.408 146.414 190.111 147.352 190.111 148.485C190.111 149.572 190.395 150.48 190.961 151.209C191.534 151.932 192.276 152.293 193.188 152.293Z" fill="#332A88"/>
<path d="M167.475 175.564C167.475 176.264 167.351 176.877 167.104 177.405C166.856 177.932 166.501 178.339 166.039 178.625C165.58 178.912 165.053 179.055 164.457 179.055C163.868 179.055 163.342 178.913 162.88 178.63C162.418 178.347 162.06 177.943 161.806 177.419C161.552 176.892 161.423 176.286 161.42 175.603V175.251C161.42 174.551 161.545 173.936 161.796 173.406C162.05 172.872 162.406 172.463 162.865 172.18C163.327 171.893 163.855 171.75 164.447 171.75C165.04 171.75 165.565 171.893 166.024 172.18C166.487 172.463 166.843 172.872 167.094 173.406C167.348 173.936 167.475 174.55 167.475 175.246V175.564ZM165.99 175.241C165.99 174.496 165.857 173.93 165.59 173.542C165.323 173.155 164.942 172.961 164.447 172.961C163.956 172.961 163.576 173.153 163.31 173.537C163.043 173.918 162.908 174.478 162.904 175.217V175.564C162.904 176.29 163.038 176.853 163.305 177.253C163.572 177.654 163.956 177.854 164.457 177.854C164.949 177.854 165.326 177.662 165.59 177.278C165.854 176.89 165.987 176.327 165.99 175.588V175.241ZM171.559 177.195L173.17 171.848H174.801L172.325 178.957H170.797L168.331 171.848H169.957L171.559 177.195ZM180.252 175.876H177.439V177.781H180.74V178.957H175.975V171.848H180.73V173.034H177.439V174.729H180.252V175.876ZM184.731 176.355H183.564V178.957H182.1V171.848H184.741C185.581 171.848 186.229 172.035 186.685 172.409C187.14 172.784 187.368 173.313 187.368 173.996C187.368 174.481 187.262 174.887 187.051 175.212C186.842 175.534 186.525 175.792 186.099 175.984L187.637 178.889V178.957H186.064L184.731 176.355ZM183.564 175.168H184.746C185.114 175.168 185.399 175.075 185.601 174.89C185.802 174.701 185.903 174.442 185.903 174.114C185.903 173.778 185.807 173.515 185.615 173.323C185.426 173.13 185.135 173.034 184.741 173.034H183.564V175.168ZM193 177.492H190.432L189.943 178.957H188.386L191.032 171.848H192.39L195.051 178.957H193.493L193 177.492ZM190.827 176.306H192.604L191.711 173.645L190.827 176.306ZM197.68 177.781H200.79V178.957H196.215V171.848H197.68V177.781ZM203.6 177.781H206.71V178.957H202.135V171.848H203.6V177.781ZM213.677 176.355H212.51V178.957H211.045V171.848H213.687C214.526 171.848 215.174 172.035 215.63 172.409C216.086 172.784 216.313 173.313 216.313 173.996C216.313 174.481 216.208 174.887 215.996 175.212C215.788 175.534 215.47 175.792 215.044 175.984L216.582 178.889V178.957H215.01L213.677 176.355ZM212.51 175.168H213.691C214.059 175.168 214.344 175.075 214.546 174.89C214.748 174.701 214.849 174.442 214.849 174.114C214.849 173.778 214.753 173.515 214.561 173.323C214.372 173.13 214.08 173.034 213.687 173.034H212.51V175.168ZM221.945 177.492H219.377L218.889 178.957H217.331L219.978 171.848H221.335L223.996 178.957H222.438L221.945 177.492ZM219.772 176.306H221.55L220.656 173.645L219.772 176.306ZM229.926 173.034H227.748V178.957H226.283V173.034H224.135V171.848H229.926V173.034ZM232.823 178.957H231.358V171.848H232.823V178.957ZM240.467 178.957H239.002L236.15 174.28V178.957H234.686V171.848H236.15L239.007 176.535V171.848H240.467V178.957ZM247.871 178.059C247.607 178.375 247.235 178.62 246.753 178.796C246.271 178.969 245.737 179.055 245.151 179.055C244.536 179.055 243.996 178.921 243.53 178.655C243.068 178.384 242.71 177.994 242.456 177.483C242.205 176.972 242.077 176.371 242.07 175.681V175.198C242.07 174.488 242.189 173.874 242.427 173.357C242.668 172.836 243.013 172.439 243.462 172.165C243.914 171.889 244.443 171.75 245.049 171.75C245.892 171.75 246.551 171.952 247.026 172.356C247.502 172.756 247.783 173.34 247.871 174.109H246.445C246.38 173.702 246.235 173.404 246.011 173.215C245.789 173.026 245.483 172.932 245.093 172.932C244.595 172.932 244.215 173.119 243.955 173.493C243.695 173.868 243.563 174.424 243.56 175.163V175.617C243.56 176.363 243.701 176.926 243.984 177.307C244.268 177.688 244.683 177.878 245.229 177.878C245.78 177.878 246.172 177.761 246.406 177.527V176.301H245.073V175.222H247.871V178.059Z" fill="#ADA5F3"/>
</g>
<defs>
<filter id="filter0_dddd" x="0" y="0.957275" width="430" height="430" filterUnits="userSpaceOnUse" color-interpolation-filters="sRGB">
<feFlood flood-opacity="0" result="BackgroundImageFix"/>
<feColorMatrix in="SourceAlpha" type="matrix" values="0 0 0 0 0 0 0 0 0 0 0 0 0 0 0 0 0 0 127 0"/>
<feOffset dy="10"/>
<feGaussianBlur stdDeviation="25"/>
<feColorMatrix type="matrix" values="0 0 0 0 0 0 0 0 0 0 0 0 0 0 0 0 0 0 0.08 0"/>
<feBlend mode="normal" in2="BackgroundImageFix" result="effect1_dropShadow"/>
<feColorMatrix in="SourceAlpha" type="matrix" values="0 0 0 0 0 0 0 0 0 0 0 0 0 0 0 0 0 0 127 0"/>
<feOffset dy="10"/>
<feGaussianBlur stdDeviation="12.5"/>
<feColorMatrix type="matrix" values="0 0 0 0 0 0 0 0 0 0 0 0 0 0 0 0 0 0 0.08 0"/>
<feBlend mode="normal" in2="effect1_dropShadow" result="effect2_dropShadow"/>
<feColorMatrix in="SourceAlpha" type="matrix" values="0 0 0 0 0 0 0 0 0 0 0 0 0 0 0 0 0 0 127 0"/>
<feOffset dy="3"/>
<feGaussianBlur stdDeviation="3"/>
<feColorMatrix type="matrix" values="0 0 0 0 0 0 0 0 0 0 0 0 0 0 0 0 0 0 0.1 0"/>
<feBlend mode="normal" in2="effect2_dropShadow" result="effect3_dropShadow"/>
<feColorMatrix in="SourceAlpha" type="matrix" values="0 0 0 0 0 0 0 0 0 0 0 0 0 0 0 0 0 0 127 0"/>
<feOffset dy="10"/>
<feGaussianBlur stdDeviation="12.5"/>
<feColorMatrix type="matrix" values="0 0 0 0 0 0 0 0 0 0 0 0 0 0 0 0 0 0 0.12 0"/>
<feBlend mode="normal" in2="effect3_dropShadow" result="effect4_dropShadow"/>
<feBlend mode="normal" in="SourceGraphic" in2="effect4_dropShadow" result="shape"/>
</filter>
<filter id="filter1_d" x="45" y="109.957" width="340" height="185" filterUnits="userSpaceOnUse" color-interpolation-filters="sRGB">
<feFlood flood-opacity="0" result="BackgroundImageFix"/>
<feColorMatrix in="SourceAlpha" type="matrix" values="0 0 0 0 0 0 0 0 0 0 0 0 0 0 0 0 0 0 127 0"/>
<feOffset dy="3"/>
<feGaussianBlur stdDeviation="3"/>
<feColorMatrix type="matrix" values="0 0 0 0 0 0 0 0 0 0 0 0 0 0 0 0 0 0 0.1 0"/>
<feBlend mode="normal" in2="BackgroundImageFix" result="effect1_dropShadow"/>
<feBlend mode="normal" in="SourceGraphic" in2="effect1_dropShadow" result="shape"/>
</filter>
</defs>
</svg>
