<?xml version="1.0" encoding="UTF-8" standalone="no"?>
<svg
   xmlns:dc="http://purl.org/dc/elements/1.1/"
   xmlns:cc="http://creativecommons.org/ns#"
   xmlns:rdf="http://www.w3.org/1999/02/22-rdf-syntax-ns#"
   xmlns:svg="http://www.w3.org/2000/svg"
   xmlns="http://www.w3.org/2000/svg"
   xmlns:sodipodi="http://sodipodi.sourceforge.net/DTD/sodipodi-0.dtd"
   xmlns:inkscape="http://www.inkscape.org/namespaces/inkscape"
   inkscape:version="1.0 (4035a4fb49, 2020-05-01)"
   sodipodi:docname="car.svg"
   id="svg744"
   version="1.1"
   fill="none"
   viewBox="0 0 142 124"
   height="124"
   width="142">
  <metadata
     id="metadata748">
    <rdf:RDF>
      <cc:Work
         rdf:about="">
        <dc:format>image/svg+xml</dc:format>
        <dc:type
           rdf:resource="http://purl.org/dc/dcmitype/StillImage" />
        <dc:title></dc:title>
      </cc:Work>
    </rdf:RDF>
  </metadata>
  <sodipodi:namedview
     inkscape:current-layer="svg744"
     inkscape:window-maximized="1"
     inkscape:window-y="-8"
     inkscape:window-x="1592"
     inkscape:cy="91.710166"
     inkscape:cx="143.06269"
     inkscape:zoom="2.9513889"
     width="142px"
     lock-margins="true"
     showgrid="false"
     id="namedview746"
     inkscape:window-height="1017"
     inkscape:window-width="1920"
     inkscape:pageshadow="2"
     inkscape:pageopacity="0"
     guidetolerance="10"
     gridtolerance="10"
     objecttolerance="10"
     borderopacity="1"
     bordercolor="#666666"
     pagecolor="#ffffff" />
  <g
     transform="matrix(0.19494758,0,0,0.19494758,5.3401052,2.0609784)"
     id="g737"
     clip-path="url(#clip0)">
    <path
       id="path565"
       fill="#134901"
       d="m 40.3526,367.722 4.2888,19.264 h 81.2766 z" />
    <path
       id="path567"
       fill="#4aac29"
       d="m 35.3607,314.428 10.6868,-6.82 -10.6165,-22.077 c -0.6328,-1.406 -0.3516,-2.952 0.4921,-4.148 l 72.1369,-17.014 376.29,21.373 c 0,0 80.292,10.968 152.077,42.537 5.766,4.429 6.469,8.367 7.312,13.288 0.282,1.617 0.563,3.234 0.774,4.922 0,7.663 -0.141,15.327 -0.071,22.991 0.141,14.835 -5.976,14.835 -20.6,30.162 -0.492,0.492 -1.266,0.492 -1.898,0.703 L 141.948,398.376 35.2903,370.112 29.0329,344.098 Z" />
    <path
       id="path569"
       fill="#ce8783"
       d="m 41.2666,371.659 -5.8356,-1.547 -6.1872,-25.873 6.2575,25.873 z" />
    <path
       id="path571"
       fill="#1b6801"
       d="M 142.019,398.306 76.3505,380.94 h 65.5275 c -0.07,-1.055 -0.07,-2.039 -0.07,-3.094 0,-12.304 3.374,-23.764 9.28,-33.607 H 29.1735 l 6.2575,25.873 5.8356,1.547 57.8638,15.327 z m 496.939,-13.077 c 3.797,-4.008 5.555,-7.594 5.555,-15.187 0,-0.141 0,-0.352 0,-0.492 0,-1.547 0,-3.094 0,-4.641 0,-6.116 0.07,-12.233 0.07,-18.28 -0.141,-1.054 -0.281,-2.109 -0.492,-3.164 -0.211,0 -0.492,0 -0.703,-0.07 0.351,0.211 0.703,0.492 0.703,0.844 0.07,0.351 -0.07,0.703 -0.492,0.703 l -0.563,-0.141 -0.281,-0.281 c 0.07,0.703 0.07,1.336 0.141,2.039 0,0.211 -0.071,0.492 -0.071,0.703 0,0 0,0 0,0.07 -0.07,0.563 -0.211,1.055 -0.351,1.477 v 0.07 c -0.071,0.211 -0.141,0.422 -0.281,0.633 -0.071,0.211 -0.352,0.351 -0.633,0.351 -1.547,0 -5.555,-2.249 -10.265,-5.484 h -58.848 c 6.327,10.054 9.983,22.007 9.983,34.803 0,0.633 0,1.266 0,1.898 h 59.903 c -0.984,1.336 -2.039,2.742 -3.375,4.149 z M 272.652,380.94 h 178.724 c 0,-0.633 0,-1.266 0,-1.899 0,-12.796 3.656,-24.748 9.983,-34.802 H 263.371 c 5.906,9.843 9.281,21.303 9.281,33.607 0.07,1.055 0,2.109 0,3.094 z" />
    <path
       id="path573"
       fill="#134901"
       d="m 642.192,380.94 c -2.953,5.273 -8.858,8.788 -18.35,18.632 -0.492,0.492 -1.266,0.492 -1.898,0.703 L 141.948,398.306 76.28,380.94 Z" />
    <path
       id="path575"
       fill="#eaa28a"
       d="m 145.112,398.447 h 30.092 l -30.162,-0.141 c 0.07,0.07 0.07,0.141 0.07,0.141 z" />
    <path
       id="path577"
       fill="#4aac29"
       d="m 151.088,344.239 h 112.353 c -11.46,-19.054 -32.342,-31.85 -56.176,-31.85 -23.905,0 -44.716,12.796 -56.177,31.85 z" />
    <path
       id="path579"
       fill="#1b6801"
       d="m 141.878,380.94 h 130.774 c 0.07,-1.055 0.07,-2.039 0.07,-3.094 0,-12.304 -3.375,-23.764 -9.281,-33.607 H 151.088 c -5.906,9.843 -9.28,21.303 -9.28,33.607 0,1.055 0,2.109 0.07,3.094 z" />
    <path
       id="path581"
       fill="#134901"
       d="m 175.204,398.447 h 94.213 c 1.828,-5.555 2.953,-11.461 3.234,-17.507 H 141.878 c 0.281,6.046 1.406,11.882 3.234,17.436 z" />
    <path
       id="path583"
       fill="#9ee287"
       d="m 105.247,267.884 c 38.529,-47.177 79.378,-67.848 79.378,-67.848 19.194,-16.522 163.889,-24.467 222.105,-5.554 32.552,10.616 93.299,112.915 93.299,112.915 l -385.853,-4.851 c 0,0 -24.9592,-15.046 -8.929,-34.662 z" />
    <path
       id="path585"
       fill="#0b2c01"
       d="m 155.518,398.447 c -1.758,-5.414 -2.742,-11.18 -2.742,-17.156 0,-30.092 24.397,-54.489 54.489,-54.489 30.092,0 54.489,24.397 54.489,54.489 0,5.976 -0.985,11.742 -2.742,17.156 z" />
    <path
       id="path587"
       fill="#2d3132"
       d="m 160.228,383.611 c 0,26.366 21.374,47.81 47.81,47.81 26.366,0 47.81,-21.374 47.81,-47.81 0,-26.365 -21.374,-47.809 -47.81,-47.809 -26.436,0 -47.81,21.374 -47.81,47.809 z" />
    <path
       id="path589"
       fill="#161a1e"
       d="m 160.228,383.611 c 0,26.366 21.374,47.81 47.81,47.81 26.366,0 47.81,-21.374 47.81,-47.81 0,-26.365 -21.374,-47.809 -47.81,-47.809 -26.436,0 -47.81,21.374 -47.81,47.809 z" />
    <path
       id="path591"
       fill="#000000"
       d="m 175.556,383.612 c 0,17.928 14.553,32.412 32.412,32.412 17.928,0 32.412,-14.484 32.412,-32.412 0,-17.929 -14.484,-32.413 -32.412,-32.413 -17.859,-0.07 -32.412,14.484 -32.412,32.413 z" />
    <path
       id="path593"
       fill="#cccbc3"
       d="m 178.368,383.612 c 0,16.381 13.288,29.599 29.6,29.599 16.382,0 29.6,-13.288 29.6,-29.599 0,-16.382 -13.289,-29.6 -29.6,-29.6 -16.312,0 -29.6,13.218 -29.6,29.6 z" />
    <path
       id="path595"
       fill="#444746"
       d="m 228.638,372.503 c 1.688,3.093 2.672,6.609 2.742,10.265 h -5.484 c -0.14,-2.742 -0.843,-5.273 -2.039,-7.523 z" />
    <path
       id="path597"
       fill="#444746"
       d="m 223.154,393.173 4.711,2.742 c -1.898,3.024 -4.5,5.625 -7.523,7.523 l -2.742,-4.781 c 2.25,-1.335 4.148,-3.234 5.554,-5.484 z" />
    <path
       id="path599"
       fill="#444746"
       d="m 217.6,368.425 2.742,-4.781 c 3.023,1.898 5.625,4.5 7.523,7.523 l -4.711,2.742 c -1.406,-2.18 -3.304,-4.078 -5.554,-5.484 z" />
    <path
       id="path601"
       fill="#444746"
       d="m 231.38,384.314 c -0.14,3.727 -1.125,7.242 -2.742,10.266 l -4.781,-2.743 c 1.196,-2.249 1.899,-4.851 2.039,-7.523 z" />
    <path
       id="path603"
       fill="#444746"
       d="m 196.929,362.941 c 3.094,-1.688 6.609,-2.672 10.265,-2.742 v 5.484 c -2.742,0.14 -5.273,0.843 -7.523,2.039 z" />
    <path
       id="path605"
       fill="#444746"
       d="m 184.625,382.838 c 0.141,-3.726 1.125,-7.241 2.742,-10.265 l 4.781,2.742 c -1.195,2.25 -1.898,4.852 -2.039,7.523 z" />
    <path
       id="path607"
       fill="#444746"
       d="m 192.851,373.979 -4.781,-2.742 c 1.899,-3.023 4.5,-5.624 7.523,-7.523 l 2.742,4.781 c -2.179,1.336 -4.077,3.234 -5.484,5.484 z" />
    <path
       id="path609"
       fill="#444746"
       d="m 208.741,360.199 c 3.727,0.14 7.242,1.125 10.265,2.742 l -2.742,4.781 c -2.25,-1.196 -4.851,-1.899 -7.523,-2.039 z" />
    <path
       id="path611"
       fill="#444746"
       d="m 219.077,404.212 c -3.094,1.687 -6.609,2.671 -10.265,2.742 v -5.484 c 2.742,-0.141 5.273,-0.844 7.523,-2.039 z" />
    <path
       id="path613"
       fill="#444746"
       d="m 192.078,391.908 -4.781,2.742 c -1.687,-3.094 -2.672,-6.609 -2.742,-10.265 h 5.484 c 0.141,2.671 0.844,5.203 2.039,7.523 z" />
    <path
       id="path615"
       fill="#444746"
       d="m 198.406,398.728 -2.742,4.781 c -3.024,-1.899 -5.625,-4.5 -7.523,-7.523 l 4.781,-2.742 c 1.336,2.179 3.234,4.078 5.484,5.484 z" />
    <path
       id="path617"
       fill="#444746"
       d="m 207.265,407.024 c -3.727,-0.141 -7.242,-1.125 -10.265,-2.742 l 2.742,-4.781 c 2.25,1.195 4.851,1.898 7.523,2.039 z" />
    <path
       id="path619"
       fill="#9c9f9a"
       d="m 193.133,383.611 c 0,8.227 6.679,14.906 14.905,14.906 8.226,0 14.905,-6.679 14.905,-14.906 0,-8.226 -6.679,-14.905 -14.905,-14.905 -8.226,0 -14.905,6.679 -14.905,14.905 z" />
    <path
       id="path621"
       fill="#4aac29"
       d="m 461.359,344.239 h 110.877 c -11.601,-18.421 -32.061,-30.655 -55.474,-30.655 -23.272,0 -43.802,12.234 -55.403,30.655 z" />
    <path
       id="path623"
       fill="#1b6801"
       d="m 451.376,380.94 h 130.843 c 0,-0.633 0,-1.266 0,-1.899 0,-12.796 -3.656,-24.748 -9.983,-34.802 H 461.359 c -6.327,10.054 -9.983,22.006 -9.983,34.802 0,0.633 0,1.266 0,1.899 z" />
    <path
       id="path625"
       fill="#134901"
       d="m 468.742,399.642 h 109.611 l 3.304,-17.085 h 0.562 c 0,-0.562 0.071,-1.125 0.071,-1.617 H 451.376 c 0.21,6.468 1.335,12.796 3.304,18.632 z" />
    <path
       id="path627"
       fill="#0b2c01"
       d="m 465.086,399.642 c -1.758,-5.414 -2.742,-11.179 -2.742,-17.155 0,-30.092 24.397,-54.489 54.489,-54.489 30.092,0 54.489,24.397 54.489,54.489 0,5.976 -0.985,11.741 -2.743,17.155 z" />
    <path
       id="path629"
       fill="#2d3132"
       d="m 469.023,383.611 c 0,26.366 21.374,47.81 47.81,47.81 26.365,0 47.809,-21.374 47.809,-47.81 0,-26.365 -21.373,-47.809 -47.809,-47.809 -26.366,0 -47.81,21.374 -47.81,47.809 z" />
    <path
       id="path631"
       fill="#161a1e"
       d="m 469.023,383.611 c 0,26.366 21.374,47.81 47.81,47.81 26.365,0 47.809,-21.374 47.809,-47.81 0,-26.365 -21.373,-47.809 -47.809,-47.809 -26.366,0 -47.81,21.374 -47.81,47.809 z" />
    <path
       id="path633"
       fill="#000000"
       d="m 484.421,383.612 c 0,17.928 14.553,32.412 32.412,32.412 17.928,0 32.412,-14.484 32.412,-32.412 0,-17.929 -14.554,-32.413 -32.412,-32.413 -17.929,-0.07 -32.412,14.484 -32.412,32.413 z" />
    <path
       id="path635"
       fill="#cccbc3"
       d="m 487.233,383.612 c 0,16.381 13.218,29.599 29.6,29.599 16.381,0 29.599,-13.288 29.599,-29.599 0,-16.382 -13.218,-29.6 -29.599,-29.6 -16.382,0 -29.6,13.218 -29.6,29.6 z" />
    <path
       id="path637"
       fill="#444746"
       d="m 537.503,372.503 c 1.688,3.093 2.672,6.609 2.742,10.265 h -5.484 c -0.14,-2.742 -0.843,-5.273 -2.039,-7.523 z" />
    <path
       id="path639"
       fill="#444746"
       d="m 531.949,393.173 4.781,2.742 c -1.898,3.024 -4.5,5.625 -7.523,7.523 l -2.742,-4.781 c 2.18,-1.335 4.078,-3.234 5.484,-5.484 z" />
    <path
       id="path641"
       fill="#444746"
       d="m 526.465,368.425 2.742,-4.781 c 3.023,1.898 5.625,4.5 7.523,7.523 l -4.781,2.742 c -1.406,-2.18 -3.304,-4.078 -5.484,-5.484 z" />
    <path
       id="path643"
       fill="#444746"
       d="m 540.245,384.314 c -0.14,3.727 -1.125,7.242 -2.742,10.266 l -4.781,-2.743 c 1.196,-2.249 1.899,-4.851 2.039,-7.523 z" />
    <path
       id="path645"
       fill="#444746"
       d="m 505.794,362.941 c 3.094,-1.688 6.609,-2.672 10.265,-2.742 v 5.484 c -2.742,0.14 -5.273,0.843 -7.523,2.039 z" />
    <path
       id="path647"
       fill="#444746"
       d="m 493.42,382.838 c 0.14,-3.726 1.125,-7.241 2.742,-10.265 l 4.781,2.742 c -1.195,2.25 -1.898,4.852 -2.039,7.523 z" />
    <path
       id="path649"
       fill="#444746"
       d="m 501.716,373.979 -4.781,-2.742 c 1.899,-3.023 4.5,-5.624 7.523,-7.523 l 2.742,4.781 c -2.179,1.336 -4.077,3.234 -5.484,5.484 z" />
    <path
       id="path651"
       fill="#444746"
       d="m 517.606,360.199 c 3.726,0.14 7.242,1.125 10.265,2.742 l -2.742,4.781 c -2.25,-1.196 -4.851,-1.899 -7.523,-2.039 z" />
    <path
       id="path653"
       fill="#444746"
       d="m 527.871,404.212 c -3.093,1.687 -6.609,2.671 -10.265,2.742 v -5.484 c 2.742,-0.141 5.273,-0.844 7.523,-2.039 z" />
    <path
       id="path655"
       fill="#444746"
       d="m 500.943,391.908 -4.781,2.742 c -1.688,-3.094 -2.672,-6.609 -2.742,-10.265 h 5.484 c 0.141,2.671 0.844,5.203 2.039,7.523 z" />
    <path
       id="path657"
       fill="#444746"
       d="m 507.2,398.728 -2.742,4.781 c -3.023,-1.899 -5.624,-4.5 -7.523,-7.523 l 4.781,-2.742 c 1.407,2.179 3.305,4.078 5.484,5.484 z" />
    <path
       id="path659"
       fill="#444746"
       d="m 516.059,407.024 c -3.726,-0.141 -7.241,-1.125 -10.265,-2.742 l 2.742,-4.781 c 2.25,1.195 4.852,1.898 7.523,2.039 z" />
    <path
       id="path661"
       fill="#9c9f9a"
       d="m 501.927,383.611 c 0,8.227 6.68,14.906 14.906,14.906 8.226,0 14.905,-6.679 14.905,-14.906 0,-8.226 -6.679,-14.905 -14.905,-14.905 -8.226,0 -14.906,6.679 -14.906,14.905 z" />
    <path
       id="path663"
       fill="#161a1e"
       d="m 639.591,373.276 c 0,0 0.352,-8.507 0,-13.991 -0.14,-2.18 -1.476,-2.953 -2.953,-3.094 1.969,-0.141 4.078,0.352 4.219,3.094 0.351,5.413 0,13.991 0,13.991 0,0 -0.492,5.554 -7.875,5.343 h -0.281 c 6.398,-0.281 6.89,-5.343 6.89,-5.343 z" />
    <path
       id="path665"
       fill="#4aac29"
       d="m 632.982,357.105 c 0,0 1.758,-0.773 3.656,-0.914 1.547,0.141 2.812,0.914 2.953,3.094 0.352,5.414 0,13.991 0,13.991 0,0 -0.492,5.063 -6.89,5.344 -7.312,-0.422 -16.804,-9.914 0.281,-21.515 z" />
    <path
       id="path667"
       fill="#161a1e"
       d="m 304.29,187.17 c 0,0 78.675,1.546 92.315,10.757 0,0 9.984,3.445 26.506,26.506 l 39.162,57.091 c 0,0 6.187,12.093 -6.117,13.147 l -303.31,-23.623 c 0,0 -8.367,-0.774 -7.875,-5.766 0.493,-4.992 2.602,-7.874 10.195,-14.694 7.593,-6.82 51.677,-47.95 74.738,-54.63 23.061,-6.749 67.848,-8.999 74.386,-8.788 z" />
    <path
       id="path669"
       fill="#02384a"
       d="M 464.383,271.821 C 447.227,240.534 418.12,200.88 418.12,200.88 c 23.483,17.577 54.207,62.715 70.589,88.237 0,0 -13.991,1.617 -24.326,-17.296 z" />
    <path
       id="path671"
       fill="#02384a"
       d="m 139.136,257.619 c 0,0 -7.664,13.077 -16.663,9.843 0,0 -8.789,-1.125 -14.343,-3.023 37.685,-44.646 76.425,-64.332 76.425,-64.332 1.477,-1.266 3.726,-2.531 6.609,-3.656 -0.211,0.773 -0.562,1.687 -1.265,2.742 -3.094,4.851 -8.297,12.374 -50.763,58.426 z" />
    <path
       id="path673"
       fill="#02384a"
       d="m 152.494,269.149 c 0,0 -7.101,-2.39 0.071,-11.53 5.554,-7.101 58.848,-54.138 79.097,-58.919 11.179,-2.672 29.178,-6.468 56.176,-7.804 0.211,17.999 0.914,45.7 3.023,87.604 -44.083,-3.375 -92.455,-6.82 -138.367,-9.351 z" />
    <path
       id="path675"
       fill="#02384a"
       d="m 372.56,194.412 c 0,0 -8.719,-0.985 4.57,0.562 9.14,1.055 18.842,3.586 27.701,11.461 13.429,12.163 54.7,76.565 54.7,76.565 0,0 4.57,9.211 -8.507,8.648 -7.875,-0.351 -65.879,-5.695 -139.633,-11.53 -4.429,-37.475 -7.733,-68.27 -9.913,-89.643 19.475,-0.352 42.958,0.632 71.082,3.937 z" />
    <path
       id="path677"
       fill="#76969f"
       d="m 423.533,205.309 c 0,0 -0.07,0 0,0 -0.07,0 0,0 0,0 z m -0.632,-0.562 c -0.071,0 -0.071,-0.07 0,0 -0.071,-0.07 -0.071,0 0,0 z m -0.141,-0.141 c 0,0 -0.07,0 0,0 -0.07,0 0,0 0,0 z m -0.141,-0.07 c 0,0 0,-0.07 0,0 0,-0.07 0,0 0,0 z m -0.07,-0.141 -0.07,-0.07 c 0,0.07 0,0.07 0.07,0.07 z m -0.14,-0.07 -0.071,-0.07 z m -0.141,-0.07 -0.07,-0.071 c 0.07,0 0.07,0 0.07,0.071 z m -0.07,-0.141 c -1.125,-0.984 -2.25,-1.898 -3.375,-2.742 0.422,0.352 0.914,0.703 1.336,1.055 l 0.07,0.07 c 0,0 0,0 0.07,0.07 0,0 0,0 0.071,0 0.07,0 0.07,0.071 0.14,0.071 l 0.07,0.07 c 0.493,0.492 1.055,0.984 1.618,1.406 z m -3.446,-2.742 c -0.07,0 -0.07,-0.07 -0.14,-0.07 0.07,0.07 0.14,0.07 0.14,0.07 z m -0.14,-0.07 c 0,0 0,-0.071 0,0 0,-0.071 0,0 0,0 z m -0.211,-0.211 c -0.07,0 -0.07,0 0,0 -0.07,0 -0.07,0 0,0 z m -0.141,-0.07 c 0,0 0,-0.071 0,0 0,-0.071 0,0 0,0 z" />
    <path
       id="path679"
       fill="#ec7f51"
       d="m 451.657,236.315 c -9.351,-11.952 -19.054,-23.061 -28.053,-30.935 -0.071,-0.071 -0.071,-0.071 -0.141,-0.141 -0.141,-0.141 -0.351,-0.281 -0.492,-0.422 l -0.07,-0.07 c 0,0 0,0 -0.071,-0.07 l -0.07,-0.071 -0.07,-0.07 -0.071,-0.07 c 0,0 -0.07,0 -0.07,-0.071 0,0 -0.07,0 -0.07,-0.07 l -0.071,-0.07 c 0,0 0,0 -0.07,-0.071 l -0.07,-0.07 -0.07,-0.07 c -0.563,-0.492 -1.125,-0.914 -1.618,-1.336 9.773,8.015 20.601,20.249 31.077,33.607 z M 420.44,202.708 c -0.071,0 -0.071,-0.07 -0.141,-0.07 0.07,0 0.141,0.07 0.141,0.07 z" />
    <path
       id="path681"
       fill="#0d6279"
       d="m 482.874,280.117 c -8.578,-13.007 -19.476,-28.896 -30.936,-43.52 -0.07,-0.071 -0.07,-0.071 -0.141,-0.141 0,0 0,0 0,-0.07 0,-0.071 -0.07,-0.071 -0.07,-0.141 -10.476,-13.359 -21.303,-25.592 -31.146,-33.537 l -0.071,-0.07 c -0.07,0 -0.07,-0.071 -0.14,-0.071 0,0 0,0 -0.071,0 0,0 0,0 -0.07,-0.07 l -0.07,-0.07 c -0.422,-0.352 -0.914,-0.703 -1.336,-1.055 -0.07,0 -0.07,-0.07 -0.141,-0.07 0,0 0,0 -0.07,0 l -0.07,-0.071 -0.071,-0.07 c 0,0 0,0 -0.07,0 l -0.07,-0.07 -0.071,-0.07 c -0.07,0 -0.07,-0.071 -0.14,-0.071 0,0 29.107,39.654 46.263,70.941 0.14,0.211 0.281,0.493 0.422,0.703 5.976,2.391 11.882,4.852 17.788,7.453 z" />
    <path
       id="path683"
       fill="#ec7f51"
       d="m 148.909,224.363 c 19.827,-16.101 34.662,-23.764 35.576,-24.256 0,0 0,0 -0.071,0 0,0 0,0 -0.07,0 -1.476,0.914 -16.03,8.577 -35.435,24.256 z m 23.553,-3.515 c 12.656,-14.414 15.468,-18.562 17.437,-21.655 0.703,-1.055 1.054,-1.969 1.265,-2.742 -0.211,0.773 -0.562,1.687 -1.265,2.742 -1.969,3.023 -4.781,7.241 -17.437,21.655 z" />
    <path
       id="path685"
       fill="#0d6279"
       d="m 148.909,224.363 c 7.031,-0.281 13.991,-0.562 21.022,-0.703 0.844,-0.984 1.687,-1.898 2.461,-2.812 12.655,-14.414 15.468,-18.562 17.436,-21.655 0.703,-1.055 1.055,-1.969 1.266,-2.742 -2.883,1.195 -5.133,2.39 -6.609,3.656 -0.914,0.492 -15.679,8.155 -35.576,24.256 z" />
    <path
       id="path687"
       fill="#2a434b"
       d="m 288.19,209.106 c -0.141,-6.961 -0.282,-13.007 -0.352,-18.21 0.141,5.203 0.211,11.249 0.352,18.21 z m -56.739,-10.335 c 0.07,0 0.07,0 0,0 0.07,0 0.07,0 0,0 z m 0.07,0 c 0,0 0.07,0 0,0 0.07,0 0,0 0,0 z" />
    <path
       id="path689"
       fill="#0d6279"
       d="m 288.752,228.089 c -0.211,-7.031 -0.422,-13.358 -0.562,-19.053 -0.141,-6.961 -0.282,-13.007 -0.352,-18.21 -26.998,1.336 -44.997,5.203 -56.176,7.804 h -0.071 c 0,0 0,0 -0.07,0 0,0 0,0 -0.07,0 -9.14,2.39 -24.678,12.866 -39.584,24.467 2.813,0 5.625,0 8.437,0 11.671,0 23.343,0.211 35.014,0.633 17.858,0.844 35.716,2.25 53.434,4.359 z" />
    <path
       id="path691"
       fill="#2a434b"
       d="m 448.634,266.337 c -4.149,-6.257 -9.141,-13.78 -14.343,-21.303 5.202,7.593 10.194,15.046 14.343,21.303 z M 305.697,230.339 c -1.547,-14.062 -2.813,-26.436 -3.867,-36.841 1.054,10.405 2.32,22.779 3.867,36.841 z" />
    <path
       id="path693"
       fill="#0d6279"
       d="m 448.634,266.337 c -4.149,-6.258 -9.141,-13.781 -14.343,-21.304 -11.179,-16.311 -23.272,-32.904 -29.46,-38.529 0,0 0,0 -0.07,-0.07 -8.859,-7.945 -18.491,-10.406 -27.701,-11.46 -5.766,-0.633 -7.383,-0.844 -7.383,-0.844 0.071,0 2.813,0.281 2.813,0.281 -24.96,-2.953 -46.263,-4.007 -64.403,-4.007 -2.25,0 -4.429,0 -6.609,0.07 0.07,0.984 0.211,2.039 0.352,3.094 1.054,10.335 2.32,22.709 3.867,36.841 42.466,6.117 84.299,16.242 125.149,29.741 5.976,1.968 11.952,4.007 17.788,6.187 z" />
    <path
       id="path695"
       fill="#9ee287"
       d="m 458.195,278.782 10.898,7.241 c 0,0 4.992,3.516 1.336,7.242 0,0 -1.687,1.969 -6.257,2.11 -4.571,0.07 -14.062,-2.11 -14.062,-2.11 z" />
    <path
       id="path697"
       fill="#def6d6"
       d="m 432.111,272.946 c 2.883,-6.187 11.249,-5.695 11.32,-5.695 6.257,0.352 14.764,4.359 18.35,9.562 4.078,6.046 3.586,19.616 -4.148,18.491 -8.859,-1.336 -5.484,-0.352 -19.827,-3.586 -3.726,-0.843 -9.21,-11.179 -5.695,-18.772 z" />
    <path
       id="path699"
       fill="#4aac29"
       d="m 458.547,295.374 c 0.562,0 1.125,-0.07 1.547,-0.281 2.882,-0.984 4.218,-4.781 4.218,-8.859 0,-3.375 -0.914,-7.031 -2.531,-9.421 -3.586,-5.203 -12.023,-9.21 -18.35,-9.562 0,0 -0.141,0 -0.493,0 -1.828,0 -8.366,0.352 -10.827,5.695 -0.773,1.687 -1.125,3.586 -1.125,5.414 0,6.327 3.937,12.655 6.82,13.358 14.343,3.234 10.968,2.25 19.827,3.586 0.351,0.07 0.633,0.07 0.914,0.07 z m -12.093,-26.225 c 0.211,0 0.351,0 0.351,0 4.852,0.282 11.39,3.305 14.132,7.383 3.024,4.429 2.813,14.272 -2.46,14.272 -0.211,0 -0.422,0 -0.703,-0.07 -6.82,-0.984 -4.219,-0.281 -15.257,-2.742 -2.883,-0.633 -7.102,-8.578 -4.359,-14.413 1.898,-4.148 6.89,-4.43 8.296,-4.43 z" />
    <path
       id="path701"
       fill="#cccbc3"
       d="m 47.1723,305.569 c 0,0 -10.265,-21.233 -9.9838,-21.936 0.2813,-0.703 12.0228,-4.711 19.1942,-1.195 7.2418,3.515 34.9433,20.952 28.7561,21.866 -5.4137,0.773 -31.9903,1.757 -37.9665,1.265 z" />
    <path
       id="path703"
       fill="#ee6d22"
       d="m 80.7095,297.906 c 4.3591,3.375 6.7496,5.976 4.4997,6.328 -5.4137,0.773 -31.9903,1.828 -37.9665,1.265 0,0 -1.0547,-2.18 -2.5311,-5.203 z" />
    <path
       id="path705"
       fill="#e69377"
       d="m 56.3125,282.367 c -0.0703,0 -0.0703,0 0,0 -0.0703,0 -0.0703,0 0,0 z m -0.0703,0 c 0,0 -0.0703,0 0,0 -0.0703,0 0,0 0,0 z m -0.0703,0 c 0,-0.07 0,-0.07 0,0 0,-0.07 0,-0.07 0,0 z m -0.0703,-0.07 c -0.0703,-0.07 -0.1406,-0.07 -0.2812,-0.141 0.1406,0.071 0.2109,0.141 0.2812,0.141 z m -0.2109,-0.07 c 0,0 -0.0703,-0.071 0,0 -0.0703,-0.071 0,0 0,0 z M 55.75,282.156 c -0.0703,0 -0.0703,0 0,0 -0.0703,0 -0.0703,0 0,0 z m -0.0702,-0.07 c 0,0 -0.0704,0 0,0 -0.0704,0 0,0 0,0 z" />
    <path
       id="path707"
       fill="#dfdfd8"
       d="m 85.1389,304.234 c 0,0 0.0703,0 0,0 z m 0.0704,0 c 0.0703,0 0.0703,0 0,0 0.0703,0 0.0703,0 0,0 z m 0.7031,-0.352 c 0.0703,-0.07 0.1406,-0.211 0.1406,-0.352 0,-3.515 -23.1315,-17.928 -29.6702,-21.092 0,0 0,0 -0.0703,0 0,0 0,0 -0.0703,0 0,0 0,0 -0.0703,0 0,0 0,0 -0.0703,0 0,0 0,0 -0.0703,0 -0.0703,-0.07 -0.1407,-0.07 -0.2813,-0.141 0,0 0,0 -0.0703,0 0,0 0,0 -0.0703,0 0,0 0,0 -0.0703,0 0,0 0,0 -0.0703,0 0,0 0,0 -0.0703,0 0,0 0,0 -0.0703,0 0,0 0,0 -0.0703,0 -1.6171,-0.632 -3.4452,-0.914 -5.2732,-0.984 4.6404,5.625 9.2808,11.249 13.6399,17.155 0.2109,0.281 0.4218,0.563 0.6328,0.844 l 16.2412,-1.055 c 3.7967,2.461 6.1168,4.781 5.4138,5.625 z" />
    <path
       id="path709"
       fill="#f49f6d"
       d="m 68.757,305.288 c 7.2418,-0.281 13.9914,-0.703 16.3819,-1.054 0.2812,-0.071 0.4219,-0.141 0.5625,-0.211 0.6328,-0.914 -1.6171,-3.164 -5.2731,-5.977 l -16.2413,1.055 c 1.7577,1.969 3.1639,4.078 4.57,6.187 z" />
    <path
       id="path711"
       fill="#9ee287"
       d="m 184.625,305.288 c 29.741,0 62.153,-0.281 94.706,-0.633 l -165.155,-2.039 c 0,0 -24.9591,-15.116 -8.929,-34.662 L 58.9843,280.68 c 6.2574,2.742 12.0227,6.679 17.5771,10.687 0.8437,0.562 1.7577,1.125 2.6014,1.687 4.9216,3.234 9.7728,6.68 14.132,10.687 0.7733,0.07 1.6171,0.141 2.4608,0.141 23.0614,1.054 54.0674,1.406 88.8694,1.406 z m 321.029,-1.477 -8.156,-0.703 c 0.07,0.071 0.07,0.141 0.14,0.211 3.094,0.141 5.766,0.352 8.016,0.492 z" />
    <path
       id="path713"
       fill="#9ee287"
       d="m 279.331,304.655 c 16.663,-0.211 33.326,-0.422 49.708,-0.633 48.302,-0.632 93.791,-1.265 127.399,-1.265 17.296,0 31.428,0.14 41.2,0.562 -0.07,-0.07 -0.07,-0.14 -0.14,-0.211 l -392.18,-35.224 c -15.9605,19.546 8.929,34.662 8.929,34.662 z" />
    <path
       id="path715"
       fill="#4aac29"
       d="m 326.859,290.734 -18.983,-1.195 c 0,0 -3.726,-0.141 -2.461,3.164 1.336,3.304 1.688,3.937 1.688,3.937 0,0 0.351,1.687 4.007,2.461 3.656,0.773 25.592,3.093 25.592,3.093 0,0 3.094,0.493 8.016,-1.617 4.921,-2.109 4.921,-6.327 3.374,-7.382 0,0 0.071,-0.422 -3.023,-1.125 -3.164,-0.633 -18.21,-1.336 -18.21,-1.336 z" />
    <path
       id="path717"
       fill="#def6d6"
       d="m 342.96,292.633 -31.99,-2.25 c 0,0 -3.516,-0.211 -4.149,1.336 -0.632,1.546 1.196,3.163 6.047,3.726 4.851,0.633 23.413,2.531 23.413,2.531 0,0 6.96,0.773 9.351,-0.984 2.39,-1.828 1.335,-3.938 -2.672,-4.359 z" />
    <path
       id="path719"
       fill="#4aac29"
       d="m 169.72,279.203 -18.913,-2.039 c 0,0 -3.726,-0.281 -2.601,3.094 1.195,3.375 1.546,4.008 1.546,4.008 0,0 0.282,1.687 3.867,2.671 3.586,0.985 25.452,4.219 25.452,4.219 0,0 3.094,0.633 8.086,-1.266 4.991,-1.898 5.202,-6.117 3.656,-7.242 0,0 0.07,-0.421 -3.024,-1.265 -3.093,-0.844 -18.069,-2.18 -18.069,-2.18 z" />
    <path
       id="path721"
       fill="#def6d6"
       d="m 185.68,281.735 -31.85,-3.656 c 0,0 -3.515,-0.352 -4.218,1.124 -0.703,1.547 1.054,3.164 5.835,4.008 4.852,0.844 23.272,3.586 23.272,3.586 0,0 6.891,1.054 9.422,-0.563 2.531,-1.687 1.547,-3.867 -2.461,-4.499 z" />
    <path
       id="path723"
       fill="#cccbc3"
       d="m 612.03,323.428 c 4.992,-0.282 9.421,-0.352 14.062,1.757 4.359,2.039 10.827,4.57 13.007,6.891 0.773,0.984 1.406,2.109 1.968,3.304 1.055,3.586 1.618,7.312 1.758,11.039 -0.14,1.124 -0.422,2.179 -0.773,2.882 -1.336,2.742 -22.71,-13.218 -32.623,-21.303 -1.125,-1.266 -2.461,-4.219 2.601,-4.57 z" />
    <path
       id="path725"
       fill="#d78473"
       d="m 642.333,348.809 v -0.07 c 0,0 0,0 0,0.07 z m 0.422,-1.547 c 0,0 0,-0.07 0,0 0,-0.07 0,0 0,0 z m 0,-0.14 c 0.07,-0.211 0.07,-0.422 0.07,-0.704 0,0.282 0,0.493 -0.07,0.704 z" />
    <path
       id="path727"
       fill="#e69377"
       d="m 626.092,325.185 c -2.25,-1.054 -4.43,-1.546 -6.68,-1.757 2.25,0.211 4.43,0.773 6.68,1.757 z" />
    <path
       id="path729"
       fill="#dfdfd8"
       d="m 642.333,348.809 v -0.071 c 0.141,-0.422 0.281,-0.914 0.352,-1.476 0,0 0,0 0,-0.07 0.07,-0.211 0.07,-0.422 0.07,-0.704 -0.141,-3.726 -0.703,-7.452 -1.758,-11.038 -0.562,-1.195 -1.195,-2.32 -1.968,-3.305 -2.25,-2.32 -8.648,-4.851 -13.008,-6.89 -2.249,-1.054 -4.429,-1.547 -6.679,-1.757 -1.054,-0.071 -2.109,-0.141 -3.164,-0.141 -1.125,0 -2.179,0.07 -3.304,0.07 12.796,4.078 22.569,13.921 29.459,25.382 z" />
    <path
       id="path731"
       fill="#161a1e"
       d="m 636.146,382.557 h -54.489 l -5.484,28.123 h 46.966 c 0,0 4.992,-0.562 6.75,-3.305 1.195,-1.828 6.538,-8.788 9.14,-17.577 1.757,-5.624 -2.883,-7.241 -2.883,-7.241 z" />
    <path
       id="path733"
       fill="#161a1e"
       d="m 638.818,390.642 c 0,-0.07 0,-0.07 0,0 0,-0.07 0,-0.07 0,0 z m 0.07,-0.14 c 0.07,-0.211 0.141,-0.492 0.211,-0.703 0.281,-0.844 0.351,-1.617 0.351,-2.32 0,0.703 -0.14,1.476 -0.351,2.32 -0.07,0.281 -0.141,0.492 -0.211,0.703 z" />
    <path
       id="path735"
       fill="#363a3c"
       d="m 595.016,395.072 c 14.764,0 34.872,-0.493 42.606,-1.196 0.422,-1.054 0.844,-2.109 1.196,-3.234 0,0 0,0 0,-0.07 v -0.071 c 0.07,-0.21 0.14,-0.492 0.211,-0.703 0.281,-0.843 0.351,-1.617 0.351,-2.32 0,-3.796 -3.304,-4.921 -3.304,-4.921 h -54.489 l -2.321,12.022 c 2.602,0.352 8.578,0.493 15.75,0.493 z" />
  </g>
  <defs
     id="defs742">
    <clipPath
       id="clip0">
      <rect
         y="0"
         x="0"
         id="rect739"
         fill="#ffffff"
         height="575.90002"
         width="673.70001" />
    </clipPath>
  </defs>
</svg>
