<?xml version="1.0" encoding="UTF-8" standalone="no"?>
<svg
   xmlns:dc="http://purl.org/dc/elements/1.1/"
   xmlns:cc="http://creativecommons.org/ns#"
   xmlns:rdf="http://www.w3.org/1999/02/22-rdf-syntax-ns#"
   xmlns:svg="http://www.w3.org/2000/svg"
   xmlns="http://www.w3.org/2000/svg"
   xmlns:sodipodi="http://sodipodi.sourceforge.net/DTD/sodipodi-0.dtd"
   xmlns:inkscape="http://www.inkscape.org/namespaces/inkscape"
   inkscape:version="1.0 (4035a4fb49, 2020-05-01)"
   sodipodi:docname="closed-trailer.svg"
   id="svg744"
   version="1.1"
   fill="none"
   viewBox="0 0 142 124"
   height="124"
   width="142">
  <metadata
     id="metadata748">
    <rdf:RDF>
      <cc:Work
         rdf:about="">
        <dc:format>image/svg+xml</dc:format>
        <dc:type
           rdf:resource="http://purl.org/dc/dcmitype/StillImage" />
        <dc:title></dc:title>
      </cc:Work>
    </rdf:RDF>
  </metadata>
  <sodipodi:namedview
     inkscape:current-layer="svg744"
     inkscape:window-maximized="1"
     inkscape:window-y="-8"
     inkscape:window-x="1592"
     inkscape:cy="44.720235"
     inkscape:cx="91.39525"
     inkscape:zoom="4.1738942"
     width="142px"
     lock-margins="true"
     showgrid="false"
     id="namedview746"
     inkscape:window-height="1017"
     inkscape:window-width="1920"
     inkscape:pageshadow="2"
     inkscape:pageopacity="0"
     guidetolerance="10"
     gridtolerance="10"
     objecttolerance="10"
     borderopacity="1"
     bordercolor="#666666"
     pagecolor="#ffffff" />
  <defs
     id="defs742">
    <clipPath
       id="clip0">
      <rect
         y="0"
         x="0"
         id="rect739"
         fill="#ffffff"
         height="575.90002"
         width="673.70001" />
    </clipPath>
    <linearGradient
       id="paint0_linear"
       x1="639.053"
       y1="257.754"
       x2="620.802"
       y2="264.974"
       gradientUnits="userSpaceOnUse">
      <stop
         stop-color="#282828"
         id="stop34559" />
      <stop
         offset="0.3"
         stop-color="#464646"
         id="stop34561" />
      <stop
         offset="0.7"
         stop-color="#A0A0A0"
         id="stop34563" />
      <stop
         offset="1"
         stop-color="white"
         id="stop34565" />
    </linearGradient>
    <linearGradient
       id="paint1_linear"
       x1="548.486"
       y1="132.436"
       x2="548.486"
       y2="16.1419"
       gradientUnits="userSpaceOnUse">
      <stop
         stop-color="#5E595D"
         id="stop34568" />
      <stop
         offset="0.3"
         stop-color="#313035"
         id="stop34570" />
      <stop
         offset="1"
         stop-color="#49484B"
         id="stop34572" />
    </linearGradient>
    <linearGradient
       id="paint2_linear"
       x1="544.347"
       y1="202.606"
       x2="544.347"
       y2="182.896"
       gradientUnits="userSpaceOnUse">
      <stop
         id="stop34575" />
      <stop
         offset="1"
         stop-color="#333333"
         id="stop34577" />
    </linearGradient>
    <linearGradient
       id="paint3_linear"
       x1="530.346"
       y1="36.326"
       x2="530.346"
       y2="-217.703"
       gradientUnits="userSpaceOnUse">
      <stop
         stop-color="#5E595D"
         id="stop34580" />
      <stop
         offset="0.3"
         stop-color="#313035"
         id="stop34582" />
      <stop
         offset="0.6"
         stop-color="#3E3C41"
         id="stop34584" />
      <stop
         offset="0.8"
         stop-color="#5D5B5F"
         id="stop34586" />
      <stop
         offset="1"
         stop-color="#605D60"
         id="stop34588" />
    </linearGradient>
    <linearGradient
       id="paint4_linear"
       x1="536.252"
       y1="182.617"
       x2="536.252"
       y2="126.671"
       gradientUnits="userSpaceOnUse">
      <stop
         stop-color="#5E595D"
         id="stop34591" />
      <stop
         offset="0.3"
         stop-color="#313035"
         id="stop34593" />
      <stop
         offset="1"
         stop-color="#49484B"
         id="stop34595" />
    </linearGradient>
    <linearGradient
       id="paint5_linear"
       x1="647.849"
       y1="334.525"
       x2="638.609"
       y2="338.181"
       gradientUnits="userSpaceOnUse">
      <stop
         stop-color="#FF8000"
         id="stop34598" />
      <stop
         offset="0.3"
         stop-color="#FFA700"
         id="stop34600" />
      <stop
         offset="0.4"
         stop-color="#FFC000"
         id="stop34602" />
      <stop
         offset="1"
         stop-color="#FF8900"
         id="stop34604" />
    </linearGradient>
    <linearGradient
       id="paint6_linear"
       x1="349.194"
       y1="249.787"
       x2="323.183"
       y2="249.787"
       gradientUnits="userSpaceOnUse">
      <stop
         stop-color="#7C7C7C"
         id="stop34607" />
      <stop
         offset="0.6"
         stop-color="#3C3C3C"
         id="stop34609" />
      <stop
         offset="1"
         stop-color="#A8A8A8"
         id="stop34611" />
    </linearGradient>
    <linearGradient
       id="paint7_linear"
       x1="355.801"
       y1="249.791"
       x2="347.778"
       y2="249.763"
       gradientUnits="userSpaceOnUse">
      <stop
         stop-color="#2A2A2A"
         id="stop34614" />
      <stop
         offset="0.3"
         stop-color="#2A2A2A"
         id="stop34616" />
      <stop
         offset="0.7"
         stop-color="#D8D8D8"
         id="stop34618" />
      <stop
         offset="0.8"
         stop-color="#D8D8D8"
         id="stop34620" />
      <stop
         offset="1"
         stop-color="#999999"
         id="stop34622" />
    </linearGradient>
    <radialGradient
       id="paint8_radial"
       cx="0"
       cy="0"
       r="1"
       gradientUnits="userSpaceOnUse"
       gradientTransform="matrix(0,-2.52313,2.15559,0,358.826,262.965)">
      <stop
         stop-color="#9E9E9E"
         id="stop34625" />
      <stop
         offset="0.2"
         stop-color="#E0E0E0"
         id="stop34627" />
      <stop
         offset="0.3"
         stop-color="#F9F9F9"
         id="stop34629" />
      <stop
         offset="0.7"
         stop-color="#F2F2F2"
         id="stop34631" />
      <stop
         offset="0.9"
         stop-color="#D2D2D2"
         id="stop34633" />
      <stop
         offset="1"
         stop-color="#B3B3B3"
         id="stop34635" />
    </radialGradient>
    <linearGradient
       id="paint9_linear"
       x1="435.74"
       y1="250.628"
       x2="435.74"
       y2="232.769"
       gradientUnits="userSpaceOnUse">
      <stop
         stop-color="#7C7C7C"
         id="stop34638" />
      <stop
         offset="0.4"
         stop-color="#7C7C7C"
         id="stop34640" />
      <stop
         offset="0.8"
         stop-color="#EFEFEF"
         id="stop34642" />
      <stop
         offset="1"
         stop-color="#A8A8A8"
         id="stop34644" />
    </linearGradient>
    <linearGradient
       id="paint10_linear"
       x1="435.741"
       y1="254.685"
       x2="435.763"
       y2="248.23"
       gradientUnits="userSpaceOnUse">
      <stop
         stop-color="#999999"
         id="stop34647" />
      <stop
         offset="0.2"
         stop-color="#D8D8D8"
         id="stop34649" />
      <stop
         offset="0.3"
         stop-color="#D8D8D8"
         id="stop34651" />
      <stop
         offset="0.7"
         stop-color="#2A2A2A"
         id="stop34653" />
      <stop
         offset="1"
         stop-color="#2A2A2A"
         id="stop34655" />
    </linearGradient>
    <radialGradient
       id="paint11_radial"
       cx="0"
       cy="0"
       r="1"
       gradientUnits="userSpaceOnUse"
       gradientTransform="matrix(1.73554,0,0,2.03142,425.139,257.125)">
      <stop
         stop-color="#9E9E9E"
         id="stop34658" />
      <stop
         offset="0.2"
         stop-color="#E0E0E0"
         id="stop34660" />
      <stop
         offset="0.3"
         stop-color="#F9F9F9"
         id="stop34662" />
      <stop
         offset="0.7"
         stop-color="#F2F2F2"
         id="stop34664" />
      <stop
         offset="0.9"
         stop-color="#D2D2D2"
         id="stop34666" />
      <stop
         offset="1"
         stop-color="#B3B3B3"
         id="stop34668" />
    </radialGradient>
    <linearGradient
       id="paint12_linear"
       x1="40.2206"
       y1="331.498"
       x2="30.9828"
       y2="335.152"
       gradientUnits="userSpaceOnUse">
      <stop
         stop-color="#FF8000"
         id="stop34671" />
      <stop
         offset="0.3"
         stop-color="#FFA700"
         id="stop34673" />
      <stop
         offset="0.4"
         stop-color="#FFC000"
         id="stop34675" />
      <stop
         offset="1"
         stop-color="#FF8900"
         id="stop34677" />
    </linearGradient>
    <linearGradient
       id="paint13_linear"
       x1="21.7032"
       y1="272.391"
       x2="44.1152"
       y2="272.391"
       gradientUnits="userSpaceOnUse">
      <stop
         stop-color="#DB2A23"
         id="stop34680" />
      <stop
         offset="1"
         stop-color="#FF6962"
         id="stop34682" />
    </linearGradient>
    <clipPath
       id="clip0-3">
      <rect
         width="673.7"
         height="575.9"
         fill="white"
         id="rect34685" />
    </clipPath>
    <clipPath
       id="clip0-1">
      <rect
         width="674.5"
         height="572.5"
         fill="white"
         id="rect43405" />
    </clipPath>
  </defs>
  <g
     transform="matrix(0.21202301,0,0,0.21202301,-1.0095191,10.588385)"
     id="g43466"
     style="fill:none">
    <g
       clip-path="url(#clip0-1)"
       id="g43403">
      <path
         fill-rule="evenodd"
         clip-rule="evenodd"
         d="m 28.2124,366.925 56.087,-28.044 v -14.522 l -56.087,2.838 z"
         fill="#134901"
         id="path43309" />
      <path
         fill-rule="evenodd"
         clip-rule="evenodd"
         d="M 30.8833,360.915 H 14.3577 V 205.341 H 470.732 V 330.034 H 30.8833 Z"
         fill="#1b6801"
         id="path43311" />
      <path
         d="M 470.732,150.843 H 14.3577 v 91.94 H 470.732 Z"
         fill="#4aac29"
         id="path43313" />
      <path
         fill-rule="evenodd"
         clip-rule="evenodd"
         d="M 470.732,86.668 448.03,60.2646 H 45.9066 L 14.3577,80.2829 V 155.006 H 470.732 Z"
         fill="#9ee287"
         id="path43315" />
      <path
         d="m 134.766,369.253 c -0.826,-4.804 -1.276,-9.684 -1.276,-14.713 0,-45.942 36.182,-83.175 80.848,-83.175 44.665,0 80.847,37.158 80.847,83.1 0,5.029 -0.45,9.984 -1.276,14.713 H 134.766 Z"
         fill="#161a1e"
         id="path43317" />
      <path
         d="m 147.753,369.253 c -0.526,-3.378 -0.751,-6.831 -0.751,-10.36 0,-38.284 30.177,-69.287 67.336,-69.287 37.158,0 67.335,31.003 67.335,69.287 0,3.529 -0.3,6.982 -0.751,10.36 z"
         fill="#1e1616"
         id="path43319" />
      <path
         d="m 150.948,360.931 c 0,35.233 28.534,63.767 63.766,63.767 35.233,0 63.767,-28.534 63.767,-63.767 0,-35.232 -28.534,-63.766 -63.767,-63.766 -35.232,0 -63.766,28.534 -63.766,63.766 z"
         fill="#161a1e"
         id="path43321" />
      <path
         d="m 171.459,360.931 c 0,23.902 19.353,43.256 43.256,43.256 23.902,0 43.255,-19.354 43.255,-43.256 0,-23.902 -19.353,-43.255 -43.255,-43.255 -23.82,0 -43.256,19.353 -43.256,43.255 z"
         fill="#000000"
         id="path43323" />
      <path
         d="m 175.264,360.931 c 0,21.835 17.699,39.451 39.45,39.451 21.752,0 39.451,-17.699 39.451,-39.451 0,-21.834 -17.699,-39.451 -39.451,-39.451 -21.751,0 -39.45,17.617 -39.45,39.451 z"
         fill="#cccbc3"
         id="path43325" />
      <path
         d="m 242.256,346.21 c 2.233,4.135 3.556,8.767 3.721,13.729 h -7.278 c -0.165,-3.639 -1.075,-7.03 -2.729,-10.09 z"
         fill="#444746"
         id="path43327" />
      <path
         d="m 234.977,373.751 6.369,3.639 c -2.564,4.053 -5.955,7.526 -10.09,10.09 l -3.639,-6.368 c 2.894,-1.82 5.458,-4.384 7.36,-7.361 z"
         fill="#444746"
         id="path43329" />
      <path
         d="m 227.534,340.751 3.639,-6.368 c 4.052,2.564 7.526,5.955 10.09,10.09 l -6.368,3.639 c -1.82,-2.977 -4.384,-5.459 -7.361,-7.361 z"
         fill="#444746"
         id="path43331" />
      <path
         d="m 245.977,361.924 c -0.165,4.962 -1.488,9.594 -3.721,13.729 l -6.369,-3.639 c 1.572,-3.06 2.564,-6.451 2.729,-10.09 z"
         fill="#444746"
         id="path43333" />
      <path
         d="m 199.993,333.39 c 4.135,-2.233 8.767,-3.556 13.729,-3.639 v 7.361 c -3.639,0.165 -7.03,1.075 -10.09,2.729 z"
         fill="#444746"
         id="path43335" />
      <path
         d="m 183.534,359.939 c 0.166,-4.962 1.489,-9.594 3.639,-13.729 l 6.369,3.639 c -1.572,3.06 -2.564,6.451 -2.73,10.09 z"
         fill="#444746"
         id="path43337" />
      <path
         d="m 194.534,348.112 -6.368,-3.639 c 2.564,-4.053 5.955,-7.526 10.09,-10.09 l 3.639,6.368 c -2.977,1.902 -5.459,4.384 -7.361,7.361 z"
         fill="#444746"
         id="path43339" />
      <path
         d="m 215.707,329.751 c 4.962,0.165 9.594,1.489 13.729,3.639 l -3.639,6.368 c -3.06,-1.571 -6.451,-2.564 -10.09,-2.729 z"
         fill="#444746"
         id="path43341" />
      <path
         d="m 229.519,388.472 c -4.135,2.233 -8.767,3.557 -13.729,3.639 v -7.278 c 3.639,-0.165 7.03,-1.075 10.09,-2.729 z"
         fill="#444746"
         id="path43343" />
      <path
         d="m 193.542,372.014 -6.369,3.639 c -2.233,-4.135 -3.556,-8.767 -3.639,-13.729 h 7.278 c 0.166,3.639 1.158,7.03 2.73,10.09 z"
         fill="#444746"
         id="path43345" />
      <path
         d="m 201.895,381.112 -3.639,6.368 c -4.053,-2.564 -7.526,-5.955 -10.09,-10.09 l 6.368,-3.639 c 1.902,2.977 4.384,5.541 7.361,7.361 z"
         fill="#444746"
         id="path43347" />
      <path
         d="m 213.722,392.194 c -4.962,-0.165 -9.594,-1.489 -13.729,-3.639 l 3.639,-6.368 c 3.06,1.571 6.451,2.563 10.09,2.729 z"
         fill="#444746"
         id="path43349" />
      <path
         d="m 194.865,360.931 c 0,11 8.85,19.85 19.85,19.85 10.999,0 19.849,-8.85 19.849,-19.85 0,-10.999 -8.85,-19.849 -19.849,-19.849 -11,0 -19.85,8.932 -19.85,19.849 z"
         fill="#9c9f9a"
         id="path43351" />
      <path
         d="m 558.161,372.637 c 0,11.805 9.56,21.365 21.365,21.365 11.804,0 21.365,-9.56 21.365,-21.365 0,-11.805 -9.561,-21.365 -21.365,-21.365 -11.805,0 -21.365,9.56 -21.365,21.365 z"
         fill="#161a1e"
         id="path43353" />
      <path
         d="m 565.033,372.637 c 0,8.008 6.484,14.493 14.493,14.493 8.008,0 14.492,-6.485 14.492,-14.493 0,-8.009 -6.484,-14.493 -14.492,-14.493 -8.009,0 -14.493,6.484 -14.493,14.493 z"
         fill="#000000"
         id="path43355" />
      <path
         d="m 566.28,372.637 c 0,7.316 5.93,13.218 13.218,13.218 7.288,0 13.218,-5.93 13.218,-13.218 0,-7.316 -5.93,-13.218 -13.218,-13.218 -7.288,0 -13.218,5.902 -13.218,13.218 z"
         fill="#cccbc3"
         id="path43357" />
      <path
         d="m 588.726,367.705 c 0.748,1.385 1.191,2.937 1.247,4.6 h -2.439 c -0.055,-1.22 -0.36,-2.356 -0.914,-3.381 z"
         fill="#444746"
         id="path43359" />
      <path
         d="m 586.287,376.932 2.134,1.219 c -0.859,1.358 -1.995,2.522 -3.381,3.381 l -1.219,-2.134 c 0.97,-0.637 1.829,-1.468 2.466,-2.466 z"
         fill="#444746"
         id="path43361" />
      <path
         d="m 583.793,365.875 1.219,-2.133 c 1.358,0.859 2.522,1.995 3.381,3.38 l -2.134,1.22 c -0.609,-0.998 -1.468,-1.857 -2.466,-2.467 z"
         fill="#444746"
         id="path43363" />
      <path
         d="m 589.973,372.97 c -0.056,1.662 -0.499,3.214 -1.247,4.6 l -2.134,-1.22 c 0.526,-1.025 0.859,-2.161 0.914,-3.38 z"
         fill="#444746"
         id="path43365" />
      <path
         d="m 574.565,363.409 c 1.386,-0.748 2.938,-1.191 4.6,-1.219 v 2.466 c -1.219,0.056 -2.355,0.36 -3.38,0.915 z"
         fill="#444746"
         id="path43367" />
      <path
         d="m 569.051,372.305 c 0.055,-1.663 0.499,-3.215 1.219,-4.6 l 2.134,1.219 c -0.526,1.025 -0.859,2.161 -0.914,3.381 z"
         fill="#444746"
         id="path43369" />
      <path
         d="m 572.736,368.342 -2.133,-1.22 c 0.859,-1.357 1.995,-2.521 3.38,-3.38 l 1.22,2.133 c -0.97,0.61 -1.829,1.469 -2.467,2.467 z"
         fill="#444746"
         id="path43371" />
      <path
         d="m 579.858,362.162 c 1.663,0.056 3.214,0.499 4.6,1.219 l -1.219,2.134 c -1.026,-0.526 -2.162,-0.859 -3.381,-0.914 z"
         fill="#444746"
         id="path43373" />
      <path
         d="m 584.458,381.865 c -1.386,0.748 -2.937,1.191 -4.6,1.219 v -2.439 c 1.219,-0.055 2.355,-0.36 3.381,-0.914 z"
         fill="#444746"
         id="path43375" />
      <path
         d="m 572.404,376.35 -2.134,1.22 c -0.748,-1.386 -1.191,-2.938 -1.219,-4.6 h 2.439 c 0.055,1.219 0.388,2.355 0.914,3.38 z"
         fill="#444746"
         id="path43377" />
      <path
         d="m 575.203,379.398 -1.22,2.134 c -1.357,-0.859 -2.521,-1.995 -3.38,-3.381 l 2.133,-1.219 c 0.638,0.998 1.497,1.829 2.467,2.466 z"
         fill="#444746"
         id="path43379" />
      <path
         d="m 579.165,383.084 c -1.662,-0.055 -3.214,-0.499 -4.6,-1.219 l 1.22,-2.134 c 1.025,0.526 2.161,0.859 3.38,0.914 z"
         fill="#444746"
         id="path43381" />
      <path
         d="m 572.847,372.637 c 0,3.685 2.965,6.651 6.651,6.651 3.685,0 6.65,-2.966 6.65,-6.651 0,-3.686 -2.965,-6.651 -6.65,-6.651 -3.686,0 -6.651,2.965 -6.651,6.651 z"
         fill="#9c9f9a"
         id="path43383" />
      <path
         d="M 5.95954,79.8619 C 6.34078,79.5674 6.77652,79.4495 7.21223,79.3906 H 14.2925 V 329.131 h 10.8928 c 1.5794,0.235 3.2133,0.117 4.6839,0.707 1.2526,0.471 2.5598,1.414 2.5598,4.654 v 30.812 c -0.1634,0.413 -0.3813,0.766 -0.7081,1.061 -0.2178,0.177 -0.4357,0.294 -0.6535,0.471 H 28.562 c 0,0 -3.8125,0.766 -9.5312,-1.885 C 13.3121,362.3 4.92471,344.331 4.92471,344.331 L 4.76136,81.924 c 0.21786,-0.8249 0.54461,-1.5318 1.19818,-2.0621 z"
         fill="#161a1e"
         id="path43385" />
      <path
         d="m 311.223,61.5135 c 0.294,0.3812 0.412,0.817 0.471,1.2527 v 7.0803 H 42.7478 v 10.8927 c -0.2357,1.5795 -0.1178,3.2134 -0.7069,4.6839 -0.4714,1.2527 -1.414,2.5598 -4.6543,2.5598 H 6.5741 C 6.16168,87.8195 5.8082,87.6017 5.51364,87.2749 5.33688,87.057 5.21906,86.8392 5.04233,86.6213 V 84.116 c 0,0 -0.76593,-3.8125 1.88522,-9.5312 C 9.57874,68.8661 27.5478,60.4787 27.5478,60.4787 L 309.102,60.3153 c 0.884,0.1634 1.649,0.4902 2.121,1.1982 z"
         fill="#161a1e"
         id="path43387" />
      <path
         d="m 190.52,61.5135 c -0.295,0.3812 -0.413,0.817 -0.471,1.2527 v 7.0803 h 250.093 v 10.8927 c 0.236,1.5795 0.118,3.2134 0.707,4.6839 0.471,1.2527 1.414,2.5598 4.654,2.5598 h 30.813 c 0.412,-0.1634 0.766,-0.3812 1.06,-0.708 0.177,-0.2179 0.295,-0.4357 0.472,-0.6536 V 84.116 c 0,0 0.765,-3.8125 -1.886,-9.5312 -2.651,-5.7187 -20.62,-14.1061 -20.62,-14.1061 l -262.76,-0.1634 c -0.825,0.1634 -1.532,0.4902 -2.062,1.1982 z"
         fill="#161a1e"
         id="path43389" />
      <path
         d="m 474.55,85.9655 c -0.381,-0.2946 -0.817,-0.4124 -1.253,-0.4714 h -7.08 l -0.164,213.4489 h -10.892 c -1.58,0.235 -3.214,0.117 -4.684,0.707 -1.253,0.471 -2.56,1.414 -2.56,4.654 v 30.812 c 0.163,0.413 0.381,0.766 0.708,1.061 0.218,0.177 0.436,0.294 0.654,0.471 h 2.505 c 0,0 3.812,0.766 9.531,-1.885 5.719,-2.651 14.106,-20.62 14.106,-20.62 l 0.327,-226.0566 c -0.218,-0.8838 -0.49,-1.6496 -1.198,-2.1209 z"
         fill="#161a1e"
         id="path43391" />
      <path
         d="M 674.643,320.413 H 372.406 V 333.6 h 302.237 z"
         fill="#161a1e"
         id="path43393" />
      <path
         d="m 427.881,342.708 93.824,-8.959 -1.253,-13.127 -93.824,8.958 z"
         fill="#161a1e"
         id="path43395" />
      <path
         d="m 429.501,326.923 h -7.511 v 15.858 h 7.511 z"
         fill="#161a1e"
         id="path43397" />
      <path
         fill-rule="evenodd"
         clip-rule="evenodd"
         d="m 608.109,365.144 c 0,0 -21.144,3.051 -29.458,4.188 -1.839,0.227 -3.166,1.928 -2.939,3.766 0.027,0.217 0.054,0.433 0.08,0.649 0.107,0.866 0.552,1.799 1.268,2.259 0.729,0.569 1.634,0.787 2.607,0.667 8.409,-1.259 29.35,-4.174 29.35,-4.174 z"
         fill="#161a1e"
         id="path43399" />
      <path
         fill-rule="evenodd"
         clip-rule="evenodd"
         d="m 612.712,372.954 c 0,0 0.169,-55 0.225,-69.323 0.045,-1.861 -1.496,-3.33 -3.357,-3.374 -1.002,-0.024 -2.004,-0.048 -3.006,-0.072 -0.859,-0.021 -1.871,0.385 -2.458,0.944 -0.732,0.698 -1.039,1.55 -1.06,2.409 -0.059,14.466 -0.222,69.179 -0.222,69.179 z"
         fill="#161a1e"
         id="path43401" />
    </g>
  </g>
</svg>
