<?xml version="1.0" encoding="UTF-8" standalone="no"?>
<svg
   xmlns:dc="http://purl.org/dc/elements/1.1/"
   xmlns:cc="http://creativecommons.org/ns#"
   xmlns:rdf="http://www.w3.org/1999/02/22-rdf-syntax-ns#"
   xmlns:svg="http://www.w3.org/2000/svg"
   xmlns="http://www.w3.org/2000/svg"
   xmlns:sodipodi="http://sodipodi.sourceforge.net/DTD/sodipodi-0.dtd"
   xmlns:inkscape="http://www.inkscape.org/namespaces/inkscape"
   inkscape:version="1.0 (4035a4fb49, 2020-05-01)"
   sodipodi:docname="mini-van.svg"
   id="svg744"
   version="1.1"
   fill="none"
   viewBox="0 0 142 124"
   height="124"
   width="142">
  <metadata
     id="metadata748">
    <rdf:RDF>
      <cc:Work
         rdf:about="">
        <dc:format>image/svg+xml</dc:format>
        <dc:type
           rdf:resource="http://purl.org/dc/dcmitype/StillImage" />
        <dc:title></dc:title>
      </cc:Work>
    </rdf:RDF>
  </metadata>
  <sodipodi:namedview
     inkscape:current-layer="svg744"
     inkscape:window-maximized="1"
     inkscape:window-y="-8"
     inkscape:window-x="1592"
     inkscape:cy="37.313387"
     inkscape:cx="41.441634"
     inkscape:zoom="2.0869471"
     width="142px"
     lock-margins="true"
     showgrid="false"
     id="namedview746"
     inkscape:window-height="1017"
     inkscape:window-width="1920"
     inkscape:pageshadow="2"
     inkscape:pageopacity="0"
     guidetolerance="10"
     gridtolerance="10"
     objecttolerance="10"
     borderopacity="1"
     bordercolor="#666666"
     pagecolor="#ffffff" />
  <defs
     id="defs742">
    <clipPath
       id="clip0">
      <rect
         y="0"
         x="0"
         id="rect739"
         fill="#ffffff"
         height="575.90002"
         width="673.70001" />
    </clipPath>
    <linearGradient
       id="paint0_linear"
       x1="639.053"
       y1="257.754"
       x2="620.802"
       y2="264.974"
       gradientUnits="userSpaceOnUse">
      <stop
         stop-color="#282828"
         id="stop34559" />
      <stop
         offset="0.3"
         stop-color="#464646"
         id="stop34561" />
      <stop
         offset="0.7"
         stop-color="#A0A0A0"
         id="stop34563" />
      <stop
         offset="1"
         stop-color="white"
         id="stop34565" />
    </linearGradient>
    <linearGradient
       id="paint1_linear"
       x1="548.486"
       y1="132.436"
       x2="548.486"
       y2="16.1419"
       gradientUnits="userSpaceOnUse">
      <stop
         stop-color="#5E595D"
         id="stop34568" />
      <stop
         offset="0.3"
         stop-color="#313035"
         id="stop34570" />
      <stop
         offset="1"
         stop-color="#49484B"
         id="stop34572" />
    </linearGradient>
    <linearGradient
       id="paint2_linear"
       x1="544.347"
       y1="202.606"
       x2="544.347"
       y2="182.896"
       gradientUnits="userSpaceOnUse">
      <stop
         id="stop34575" />
      <stop
         offset="1"
         stop-color="#333333"
         id="stop34577" />
    </linearGradient>
    <linearGradient
       id="paint3_linear"
       x1="530.346"
       y1="36.326"
       x2="530.346"
       y2="-217.703"
       gradientUnits="userSpaceOnUse">
      <stop
         stop-color="#5E595D"
         id="stop34580" />
      <stop
         offset="0.3"
         stop-color="#313035"
         id="stop34582" />
      <stop
         offset="0.6"
         stop-color="#3E3C41"
         id="stop34584" />
      <stop
         offset="0.8"
         stop-color="#5D5B5F"
         id="stop34586" />
      <stop
         offset="1"
         stop-color="#605D60"
         id="stop34588" />
    </linearGradient>
    <linearGradient
       id="paint4_linear"
       x1="536.252"
       y1="182.617"
       x2="536.252"
       y2="126.671"
       gradientUnits="userSpaceOnUse">
      <stop
         stop-color="#5E595D"
         id="stop34591" />
      <stop
         offset="0.3"
         stop-color="#313035"
         id="stop34593" />
      <stop
         offset="1"
         stop-color="#49484B"
         id="stop34595" />
    </linearGradient>
    <linearGradient
       id="paint5_linear"
       x1="647.849"
       y1="334.525"
       x2="638.609"
       y2="338.181"
       gradientUnits="userSpaceOnUse">
      <stop
         stop-color="#FF8000"
         id="stop34598" />
      <stop
         offset="0.3"
         stop-color="#FFA700"
         id="stop34600" />
      <stop
         offset="0.4"
         stop-color="#FFC000"
         id="stop34602" />
      <stop
         offset="1"
         stop-color="#FF8900"
         id="stop34604" />
    </linearGradient>
    <linearGradient
       id="paint6_linear"
       x1="349.194"
       y1="249.787"
       x2="323.183"
       y2="249.787"
       gradientUnits="userSpaceOnUse">
      <stop
         stop-color="#7C7C7C"
         id="stop34607" />
      <stop
         offset="0.6"
         stop-color="#3C3C3C"
         id="stop34609" />
      <stop
         offset="1"
         stop-color="#A8A8A8"
         id="stop34611" />
    </linearGradient>
    <linearGradient
       id="paint7_linear"
       x1="355.801"
       y1="249.791"
       x2="347.778"
       y2="249.763"
       gradientUnits="userSpaceOnUse">
      <stop
         stop-color="#2A2A2A"
         id="stop34614" />
      <stop
         offset="0.3"
         stop-color="#2A2A2A"
         id="stop34616" />
      <stop
         offset="0.7"
         stop-color="#D8D8D8"
         id="stop34618" />
      <stop
         offset="0.8"
         stop-color="#D8D8D8"
         id="stop34620" />
      <stop
         offset="1"
         stop-color="#999999"
         id="stop34622" />
    </linearGradient>
    <radialGradient
       id="paint8_radial"
       cx="0"
       cy="0"
       r="1"
       gradientUnits="userSpaceOnUse"
       gradientTransform="matrix(0,-2.52313,2.15559,0,358.826,262.965)">
      <stop
         stop-color="#9E9E9E"
         id="stop34625" />
      <stop
         offset="0.2"
         stop-color="#E0E0E0"
         id="stop34627" />
      <stop
         offset="0.3"
         stop-color="#F9F9F9"
         id="stop34629" />
      <stop
         offset="0.7"
         stop-color="#F2F2F2"
         id="stop34631" />
      <stop
         offset="0.9"
         stop-color="#D2D2D2"
         id="stop34633" />
      <stop
         offset="1"
         stop-color="#B3B3B3"
         id="stop34635" />
    </radialGradient>
    <linearGradient
       id="paint9_linear"
       x1="435.74"
       y1="250.628"
       x2="435.74"
       y2="232.769"
       gradientUnits="userSpaceOnUse">
      <stop
         stop-color="#7C7C7C"
         id="stop34638" />
      <stop
         offset="0.4"
         stop-color="#7C7C7C"
         id="stop34640" />
      <stop
         offset="0.8"
         stop-color="#EFEFEF"
         id="stop34642" />
      <stop
         offset="1"
         stop-color="#A8A8A8"
         id="stop34644" />
    </linearGradient>
    <linearGradient
       id="paint10_linear"
       x1="435.741"
       y1="254.685"
       x2="435.763"
       y2="248.23"
       gradientUnits="userSpaceOnUse">
      <stop
         stop-color="#999999"
         id="stop34647" />
      <stop
         offset="0.2"
         stop-color="#D8D8D8"
         id="stop34649" />
      <stop
         offset="0.3"
         stop-color="#D8D8D8"
         id="stop34651" />
      <stop
         offset="0.7"
         stop-color="#2A2A2A"
         id="stop34653" />
      <stop
         offset="1"
         stop-color="#2A2A2A"
         id="stop34655" />
    </linearGradient>
    <radialGradient
       id="paint11_radial"
       cx="0"
       cy="0"
       r="1"
       gradientUnits="userSpaceOnUse"
       gradientTransform="matrix(1.73554,0,0,2.03142,425.139,257.125)">
      <stop
         stop-color="#9E9E9E"
         id="stop34658" />
      <stop
         offset="0.2"
         stop-color="#E0E0E0"
         id="stop34660" />
      <stop
         offset="0.3"
         stop-color="#F9F9F9"
         id="stop34662" />
      <stop
         offset="0.7"
         stop-color="#F2F2F2"
         id="stop34664" />
      <stop
         offset="0.9"
         stop-color="#D2D2D2"
         id="stop34666" />
      <stop
         offset="1"
         stop-color="#B3B3B3"
         id="stop34668" />
    </radialGradient>
    <linearGradient
       id="paint12_linear"
       x1="40.2206"
       y1="331.498"
       x2="30.9828"
       y2="335.152"
       gradientUnits="userSpaceOnUse">
      <stop
         stop-color="#FF8000"
         id="stop34671" />
      <stop
         offset="0.3"
         stop-color="#FFA700"
         id="stop34673" />
      <stop
         offset="0.4"
         stop-color="#FFC000"
         id="stop34675" />
      <stop
         offset="1"
         stop-color="#FF8900"
         id="stop34677" />
    </linearGradient>
    <linearGradient
       id="paint13_linear"
       x1="21.7032"
       y1="272.391"
       x2="44.1152"
       y2="272.391"
       gradientUnits="userSpaceOnUse">
      <stop
         stop-color="#DB2A23"
         id="stop34680" />
      <stop
         offset="1"
         stop-color="#FF6962"
         id="stop34682" />
    </linearGradient>
    <clipPath
       id="clip0-3">
      <rect
         width="673.7"
         height="575.9"
         fill="white"
         id="rect34685" />
    </clipPath>
    <clipPath
       id="clip0-1">
      <rect
         width="674.5"
         height="572.5"
         fill="white"
         id="rect43405" />
    </clipPath>
    <clipPath
       id="clip0-19">
      <rect
         y="0"
         x="0"
         id="rect739-8"
         fill="#ffffff"
         height="575.90002"
         width="673.70001" />
    </clipPath>
    <radialGradient
       id="paint8_radial-0"
       cx="0"
       cy="0"
       r="1"
       gradientUnits="userSpaceOnUse"
       gradientTransform="matrix(0,-2.52313,2.15559,0,358.826,262.965)">
      <stop
         stop-color="#9E9E9E"
         id="stop34625-1" />
      <stop
         offset="0.2"
         stop-color="#E0E0E0"
         id="stop34627-3" />
      <stop
         offset="0.3"
         stop-color="#F9F9F9"
         id="stop34629-0" />
      <stop
         offset="0.7"
         stop-color="#F2F2F2"
         id="stop34631-2" />
      <stop
         offset="0.9"
         stop-color="#D2D2D2"
         id="stop34633-2" />
      <stop
         offset="1"
         stop-color="#B3B3B3"
         id="stop34635-5" />
    </radialGradient>
    <radialGradient
       id="paint11_radial-4"
       cx="0"
       cy="0"
       r="1"
       gradientUnits="userSpaceOnUse"
       gradientTransform="matrix(1.73554,0,0,2.03142,425.139,257.125)">
      <stop
         stop-color="#9E9E9E"
         id="stop34658-4" />
      <stop
         offset="0.2"
         stop-color="#E0E0E0"
         id="stop34660-2" />
      <stop
         offset="0.3"
         stop-color="#F9F9F9"
         id="stop34662-9" />
      <stop
         offset="0.7"
         stop-color="#F2F2F2"
         id="stop34664-9" />
      <stop
         offset="0.9"
         stop-color="#D2D2D2"
         id="stop34666-9" />
      <stop
         offset="1"
         stop-color="#B3B3B3"
         id="stop34668-3" />
    </radialGradient>
    <clipPath
       id="clip0-3-1">
      <rect
         width="673.7"
         height="575.9"
         fill="white"
         id="rect34685-6" />
    </clipPath>
    <clipPath
       id="clip0-11">
      <rect
         width="673.7"
         height="575.9"
         fill="white"
         id="rect69061" />
    </clipPath>
  </defs>
  <g
     transform="matrix(0.21078225,0,0,0.21078225,1.518875e-6,1.664951)"
     id="g69194"
     style="fill:none">
    <g
       clip-path="url(#clip0-11)"
       id="g69059">
      <path
         d="m 394.249,181.682 3.673,-3.093 c -1.031,-1.225 -25.391,-29.774 -48.269,-33.64 -15.982,-2.707 -196.17,-3.803 -203.839,-3.803 -0.451,0 -8.184,0.065 -18.495,4.318 -9.538,3.931 -23.136,12.309 -34.0915,30.031 l 4.06,2.514 c 19.5265,-31.771 48.1405,-32.094 48.4625,-32.094 1.869,0 187.469,1.096 203.001,3.738 8.7,1.482 19.269,7.411 30.611,17.207 8.7,7.604 14.822,14.758 14.887,14.822 z"
         fill="#161a1e"
         id="path68821" />
      <path
         d="m 375.237,159.578 c 0.58,-0.065 1.225,-0.065 1.805,-0.065 -8.249,-6.38 -17.98,-12.244 -27.454,-13.855 -15.982,-2.707 -196.169,-3.803 -203.838,-3.803 -0.451,0 -8.185,0.065 -18.496,4.318 -3.48,1.418 -7.475,3.48 -11.729,6.316 0.645,0.064 1.289,0.193 1.934,0.193 3.544,-2.191 6.831,-3.867 9.795,-5.027 10.311,-4.253 18.045,-4.317 18.496,-4.317 7.669,0.064 187.856,1.095 203.838,3.802 8.829,1.482 17.851,6.638 25.649,12.438 z"
         fill="#767b7c"
         id="path68823" />
      <path
         d="m 195.759,401.052 c 0,3.738 3.029,6.766 6.767,6.766 H 473.58 c 3.738,0 6.767,-3.028 6.767,-6.766 v -12.18 c 0,-3.738 -3.029,-6.767 -6.767,-6.767 H 202.59 c -3.738,0 -6.767,3.029 -6.767,6.767 v 12.18 z"
         fill="#000000"
         id="path68825" />
      <path
         d="m 187.639,405.821 c 0,2.836 2.965,5.091 6.638,5.091 H 482.28 c 3.674,0 6.638,-2.255 6.638,-5.091 0,-2.836 -2.964,-5.091 -6.638,-5.091 H 194.277 c -3.609,-0.065 -6.638,2.255 -6.638,5.091 z"
         fill="#494d52"
         id="path68827" />
      <path
         d="m 188.219,403.758 h 300.183 c -0.966,-1.74 -3.157,-2.964 -5.735,-3.029 -0.065,0 -0.065,0 -0.129,0 -0.065,0 -0.065,0 -0.129,0 H 194.277 c -0.065,0 -0.065,0 -0.129,0 -0.065,0 -0.064,0 -0.129,0 -0.064,0 -0.064,0 -0.129,0 -2.578,0.129 -4.704,1.289 -5.671,3.029 z"
         fill="#74787c"
         id="path68829" />
      <path
         d="m 20.9205,251.604 475.6665,13.083 c 0,0 83.907,12.824 158.92,49.816 5.994,5.155 6.702,9.795 7.669,15.531 0.322,1.933 0.58,3.802 0.773,5.735 2.063,9.345 6.574,29.967 -1.933,39.118 -12.438,13.405 -4.382,5.22 -19.72,23.071 -0.516,0.58 -1.289,0.516 -1.933,0.774 L 60.6184,397.185 9.90045,380.945 -0.152954,350.849 9.77155,332.354 Z"
         fill="#4aac29"
         id="path68831" />
      <path
         d="m 604.596,373.147 c -0.516,-10.891 -4.253,-21.009 -10.376,-29.387 -26.358,-1.16 -58.515,-2.255 -94.024,-3.286 -7.283,8.571 -11.923,19.14 -12.889,30.804 45.949,0.58 86.678,1.225 117.289,1.869 z M 475.127,371.02 c 0,-0.708 0,-1.417 0,-2.126 0,-10.311 2.191,-20.171 6.186,-29 -90.996,-2.385 -200.165,-4.189 -290.581,-5.478 5.478,9.795 8.7,21.073 8.958,33.06 87.065,1.096 189.339,2.32 275.437,3.544 z m -288.068,-3.673 c -1.998,-13.082 -8.829,-24.747 -18.689,-33.253 -28.742,-0.387 -55.165,-0.709 -77.7847,-0.967 -10.1178,8.313 -17.2712,19.784 -19.5912,32.867 31.1909,0.386 71.3399,0.838 116.0649,1.353 z"
         fill="#1b6801"
         id="path68833" />
      <path
         d="m 58.2342,365.93 c 0.5155,-11.987 3.9956,-23.265 9.7956,-32.996 -36.089,-0.387 -58.19359,-0.58 -58.19359,-0.58 L 0.040657,350.979 4.80958,365.35 c 0,-0.065 20.17112,0.193 53.42462,0.58 z"
         fill="#1b6801"
         id="path68835" />
      <path
         d="m 666.914,362.45 h 0.065 c 0.515,-3.545 0.451,-7.476 -0.387,-11.987 0.515,3.995 0.644,8.12 0.322,11.987 z"
         fill="#c52726"
         id="path68837" />
      <path
         d="m 616.325,362.449 h 50.589 c 0.387,-3.866 0.193,-7.991 -0.258,-11.986 -0.386,-2.127 -20.815,-4.125 -54.327,-5.865 2.063,5.671 3.48,11.6 3.996,17.851 z"
         fill="#1b6801"
         id="path68839" />
      <path
         d="m 599.376,398.667 c 3.351,-7.024 5.284,-14.886 5.284,-23.135 0,-0.774 0,-1.611 -0.064,-2.385 -30.611,-0.58 -71.34,-1.224 -117.289,-1.933 -0.129,1.418 -0.194,2.835 -0.194,4.318 0,8.12 1.869,15.853 5.156,22.877 z"
         fill="#7d1315"
         id="path68841" />
      <path
         d="m 481.507,398.345 c -3.803,-8.378 -6.058,-17.593 -6.38,-27.324 -86.163,-1.225 -188.372,-2.514 -275.437,-3.545 0,0.451 0,0.967 0,1.418 0,10.182 -2.191,19.913 -6.058,28.613 h 2.127 l 284.588,0.774 z"
         fill="#134901"
         id="path68843" />
      <path
         d="m 182.934,397.572 c 3.029,-6.767 4.769,-14.178 4.769,-22.04 0,-2.771 -0.193,-5.478 -0.644,-8.12 -44.725,-0.516 -84.874,-0.967 -116.0649,-1.353 -0.58,3.093 -0.8378,6.251 -0.8378,9.473 0,7.733 1.6756,15.08 4.64,21.718 z"
         fill="#7d1315"
         id="path68845" />
      <path
         d="m 64.0342,397.25 c -3.8023,-8.636 -5.8645,-18.238 -5.8645,-28.291 0,-1.032 0,-1.998 0.0645,-3.029 -33.2535,-0.387 -53.42465,-0.58 -53.42465,-0.58 l 5.22005,15.66 50.7179,16.24 z"
         fill="#134901"
         id="path68847" />
      <path
         d="m 61.4563,196.504 c 33.5113,-34.284 34.4134,-43.435 62.7687,-43.5 21.46,-0.064 26.358,-1.933 47.818,-1.869 29.387,0.129 58.774,0.065 88.161,1.16 29.129,1.096 58.387,2.192 87.451,4.898 20.88,1.934 39.118,5.285 40.729,5.8 34.027,11.343 130.758,122.896 130.758,122.896 L 291.202,283.118 20.7917,251.605 c 0,0 8.3779,-22.105 40.6646,-55.101 z"
         fill="#9ee287"
         id="path68849" />
      <path
         d="m 95.2899,216.74 c 42.8561,-55.293 51.1041,-59.869 60.5131,-60.191 15.467,-0.902 24.747,-0.58 36.154,-0.322 5.542,0.128 11.6,0.257 19.14,0.257 28.42,0 143.647,3.931 169.941,14.565 33.06,13.34 50.524,41.18 72.693,70.116 3.287,4.317 8.765,9.215 11.085,14.435 0,0 5.606,12.631 -5.607,13.727 0,0 -251.141,-19.205 -333.823,-27.84 -12.889,-1.354 -24.876,-14.242 -29.3228,-19.914 -0.6444,-1.482 -0.9667,-3.157 -0.7733,-4.833 z"
         fill="#000000"
         id="path68851" />
      <path
         d="M 479.573,255.987 C 454.698,223.571 413.26,187.546 404.624,180.2 c -5.22,-4.447 -4.898,-8.314 -3.866,-10.698 27.711,18.238 72.693,65.798 98.535,94.154 -8.377,0.966 -19.72,-7.669 -19.72,-7.669 z"
         fill="#02384a"
         id="path68853" />
      <path
         d="m 368.986,171.436 c 0,0 21.525,4.769 36.347,19.14 14.822,14.371 52.78,68.053 52.78,68.053 0,0 9.022,9.216 -5.349,6.96 -6.122,-0.966 -63.864,-6.186 -128.502,-11.857 -2.385,-37.378 -9.667,-68.505 -15.66,-88.612 22.749,1.547 44.015,3.673 60.384,6.316 z"
         fill="#02384a"
         id="path68855" />
      <path
         d="m 295.455,164.089 c 2.707,21.975 5.607,54.004 5.284,87.516 -50.718,-4.447 -102.338,-8.894 -134.238,-11.665 13.598,-36.024 25.52,-62.64 33.898,-80.105 26.744,0.709 61.802,2.063 95.056,4.254 z"
         fill="#02384a"
         id="path68857" />
      <path
         d="m 102.121,214.678 c 1.933,-5.027 39.247,-54.971 53.811,-55.487 3.867,-0.129 16.369,-0.064 33.705,0.387 -14.629,27.195 -28.291,53.875 -40.278,78.88 -9.216,-0.773 -14.5,-1.225 -14.5,-1.225 0,0 -8.765,-0.257 -15.467,-4.575 -6.767,-4.318 -19.204,-12.953 -17.271,-17.98 z"
         fill="#02384a"
         id="path68859" />
      <path
         d="m 604.661,375.532 c 0,-30.869 -26.294,-55.874 -58.774,-55.874 -32.416,0 -58.774,25.005 -58.774,55.874 0,8.313 1.934,16.175 5.285,23.264 h -10.762 c -4.189,-9.086 -6.574,-19.14 -6.574,-29.837 0,-39.054 31.707,-70.761 70.761,-70.761 39.053,0 70.76,31.707 70.76,70.761 0,10.633 -2.385,20.751 -6.574,29.837 h -10.762 c 3.48,-7.089 5.414,-14.951 5.414,-23.264 z"
         fill="#15161a"
         id="path68861" />
      <path
         d="m 481.7,398.796 h 1.611 c -3.544,-8.184 -5.478,-17.271 -5.478,-26.744 0,-37.571 30.418,-67.989 67.989,-67.989 34.285,0 62.705,25.391 67.345,58.387 h 3.158 c -3.287,-36.025 -33.576,-64.252 -70.438,-64.252 -39.054,0 -70.76,31.707 -70.76,70.761 0,10.633 2.384,20.751 6.573,29.837 z"
         fill="#333335"
         id="path68863" />
      <path
         d="m 608.398,398.796 h 0.645 c -0.065,-0.451 -0.065,-0.838 -0.129,-1.289 -0.129,0.387 -0.322,0.838 -0.516,1.289 z"
         fill="#333335"
         id="path68865" />
      <path
         d="m 545.887,319.658 c 32.48,0 58.773,25.005 58.773,55.874 0,8.313 -1.933,16.175 -5.284,23.264 H 492.462 c -3.415,-7.089 -5.284,-14.951 -5.284,-23.264 -0.065,-30.869 26.229,-55.874 58.709,-55.874 z"
         fill="#000000"
         id="path68867" />
      <path
         d="m 495.942,381.396 c 0,27.583 22.363,49.945 49.945,49.945 27.582,0 49.945,-22.362 49.945,-49.945 0,-27.582 -22.363,-49.944 -49.945,-49.944 -27.582,0 -49.945,22.362 -49.945,49.944 z"
         fill="#2d3132"
         id="path68869" />
      <path
         d="m 495.942,381.396 c 0,27.583 22.363,49.945 49.945,49.945 27.582,0 49.945,-22.362 49.945,-49.945 0,-27.582 -22.363,-49.944 -49.945,-49.944 -27.582,0 -49.945,22.362 -49.945,49.944 z"
         fill="#161a1e"
         id="path68871" />
      <path
         d="m 511.989,381.396 c 0,18.754 15.145,33.898 33.898,33.898 18.753,0 33.898,-15.144 33.898,-33.898 0,-18.689 -15.145,-33.897 -33.898,-33.897 -18.753,0 -33.898,15.208 -33.898,33.897 z"
         fill="#000000"
         id="path68873" />
      <path
         d="m 514.953,381.396 c 0,17.078 13.856,30.934 30.934,30.934 17.078,0 30.933,-13.856 30.933,-30.934 0,-17.078 -13.855,-30.933 -30.933,-30.933 -17.078,0 -30.934,13.855 -30.934,30.933 z"
         fill="#cccbc3"
         id="path68875" />
      <path
         d="m 530.356,362.965 c -0.065,-0.387 0,-0.709 0.129,-1.096 3.286,-2.964 7.54,-4.897 12.244,-5.22 0.451,0.065 0.838,0.258 1.16,0.58 0.129,0.258 0.322,0.452 0.387,0.774 v 17.207 c -0.065,0.257 -0.193,0.451 -0.322,0.644 l -0.323,0.129 c -0.257,0 -0.58,-0.065 -0.837,-0.193 L 530.42,363.416 Z"
         fill="#444746"
         id="path68877" />
      <path
         d="m 521.334,379.979 c -0.323,-0.258 -0.516,-0.516 -0.645,-0.838 0.258,-4.447 1.869,-8.765 4.962,-12.373 0.387,-0.258 0.774,-0.387 1.225,-0.452 0.258,0.065 0.515,0.129 0.838,0.258 l 12.18,12.18 c 0.064,0.258 0.193,0.451 0.193,0.709 l -0.129,0.322 c -0.193,0.194 -0.451,0.323 -0.709,0.452 h -17.464 z"
         fill="#444746"
         id="path68879" />
      <path
         d="m 527.198,397.83 c -0.387,0.064 -0.709,0 -1.096,-0.129 -3.029,-3.222 -5.026,-7.476 -5.477,-12.116 0.064,-0.451 0.257,-0.838 0.515,-1.224 0.258,-0.129 0.451,-0.322 0.773,-0.451 l 17.207,-0.323 c 0.258,0.065 0.451,0.194 0.645,0.323 l 0.129,0.322 c 0,0.258 -0.065,0.58 -0.129,0.838 l -12.116,12.566 z"
         fill="#444746"
         id="path68881" />
      <path
         d="m 543.889,405.499 c -0.258,0.257 -0.515,0.515 -0.838,0.644 -4.446,-0.322 -8.764,-1.998 -12.308,-5.091 -0.258,-0.387 -0.387,-0.774 -0.452,-1.225 0.065,-0.257 0.129,-0.515 0.258,-0.837 l 12.309,-11.987 c 0.258,-0.065 0.451,-0.129 0.709,-0.193 l 0.322,0.128 c 0.194,0.194 0.322,0.452 0.451,0.709 l -0.257,17.465 z"
         fill="#444746"
         id="path68883" />
      <path
         d="m 561.418,362.965 c 0.065,-0.387 0,-0.709 -0.129,-1.096 -3.286,-2.964 -7.54,-4.897 -12.244,-5.22 -0.451,0.065 -0.838,0.258 -1.16,0.58 -0.129,0.258 -0.323,0.452 -0.387,0.774 v 17.207 c 0.064,0.257 0.193,0.451 0.322,0.644 l 0.322,0.129 c 0.258,0 0.58,-0.065 0.838,-0.193 l 12.374,-12.374 z"
         fill="#444746"
         id="path68885" />
      <path
         d="m 570.441,379.979 c 0.257,-0.258 0.515,-0.516 0.644,-0.838 -0.258,-4.447 -1.869,-8.765 -4.962,-12.373 -0.387,-0.258 -0.774,-0.387 -1.225,-0.452 -0.258,0.065 -0.58,0.129 -0.838,0.258 l -12.18,12.18 c -0.064,0.258 -0.193,0.451 -0.193,0.709 l 0.129,0.322 c 0.193,0.194 0.451,0.323 0.709,0.452 h 17.464 z"
         fill="#444746"
         id="path68887" />
      <path
         d="m 564.512,397.83 c 0.386,0.064 0.708,0 1.095,-0.129 3.029,-3.222 5.027,-7.476 5.478,-12.116 -0.064,-0.451 -0.258,-0.838 -0.516,-1.224 -0.257,-0.129 -0.451,-0.322 -0.773,-0.451 l -17.207,-0.323 c -0.257,0.065 -0.451,0.194 -0.644,0.323 l -0.129,0.322 c 0,0.258 0.064,0.58 0.129,0.838 l 12.115,12.566 z"
         fill="#444746"
         id="path68889" />
      <path
         d="m 547.82,405.499 c 0.258,0.257 0.516,0.515 0.838,0.644 4.447,-0.322 8.764,-1.998 12.309,-5.091 0.258,-0.387 0.387,-0.774 0.451,-1.225 -0.064,-0.257 -0.129,-0.515 -0.258,-0.837 l -12.309,-11.987 c -0.258,-0.065 -0.451,-0.129 -0.709,-0.193 l -0.322,0.128 c -0.193,0.194 -0.322,0.452 -0.451,0.709 l 0.258,17.465 z"
         fill="#444746"
         id="path68891" />
      <path
         d="m 536.8,381.396 c 0,5.027 4.06,9.087 9.087,9.087 5.027,0 9.087,-4.06 9.087,-9.087 0,-5.026 -4.06,-9.086 -9.087,-9.086 -5.027,0 -9.087,4.06 -9.087,9.086 z"
         fill="#cccbc3"
         id="path68893" />
      <path
         d="m 539.958,376.95 c 0,0.644 0.516,1.16 1.16,1.16 0.645,0 1.16,-0.516 1.16,-1.16 0,-0.645 -0.515,-1.16 -1.16,-1.16 -0.644,0 -1.16,0.515 -1.16,1.16 z"
         fill="#444746"
         id="path68895" />
      <path
         d="m 544.727,375.338 c 0,0.645 0.515,1.16 1.16,1.16 0.644,0 1.16,-0.515 1.16,-1.16 0,-0.644 -0.516,-1.16 -1.16,-1.16 -0.709,0 -1.16,0.516 -1.16,1.16 z"
         fill="#444746"
         id="path68897" />
      <path
         d="m 549.496,377.143 c 0,0.644 0.515,1.16 1.16,1.16 0.644,0 1.16,-0.516 1.16,-1.16 0,-0.645 -0.516,-1.16 -1.16,-1.16 -0.645,0 -1.16,0.515 -1.16,1.16 z"
         fill="#444746"
         id="path68899" />
      <path
         d="m 539.958,386.809 c 0,-0.644 0.516,-1.16 1.16,-1.16 0.645,0 1.16,0.516 1.16,1.16 0,0.645 -0.515,1.16 -1.16,1.16 -0.644,0 -1.16,-0.515 -1.16,-1.16 z"
         fill="#444746"
         id="path68901" />
      <path
         d="m 537.767,382.105 c 0,-0.644 0.515,-1.16 1.16,-1.16 0.644,0 1.16,0.516 1.16,1.16 0,0.645 -0.516,1.16 -1.16,1.16 -0.645,0 -1.16,-0.515 -1.16,-1.16 z"
         fill="#444746"
         id="path68903" />
      <path
         d="m 551.687,382.105 c 0,-0.644 0.515,-1.16 1.16,-1.16 0.644,0 1.16,0.516 1.16,1.16 0,0.645 -0.516,1.16 -1.16,1.16 -0.645,0 -1.16,-0.515 -1.16,-1.16 z"
         fill="#444746"
         id="path68905" />
      <path
         d="m 544.727,388.485 c 0,-0.644 0.515,-1.16 1.16,-1.16 0.644,0 1.16,0.516 1.16,1.16 0,0.645 -0.516,1.16 -1.16,1.16 -0.709,-0.064 -1.16,-0.58 -1.16,-1.16 z"
         fill="#444746"
         id="path68907" />
      <path
         d="m 549.496,386.681 c 0,-0.645 0.515,-1.16 1.16,-1.16 0.644,0 1.16,0.515 1.16,1.16 0,0.644 -0.516,1.16 -1.16,1.16 -0.645,-0.065 -1.16,-0.58 -1.16,-1.16 z"
         fill="#444746"
         id="path68909" />
      <path
         d="m 606.529,372.889 c -0.257,-3.48 -0.58,-6.96 -0.773,-10.44 h 63.994 c 0.708,0.065 1.417,0.194 1.997,0.516 1.096,0.58 1.547,1.353 1.934,2.191 l -0.258,13.92 c 0,0 -13.211,19.849 -22.298,22.749 -9.087,2.9 -15.144,2.062 -15.144,2.062 l -26.358,0.129 c -0.065,-1.547 -2.707,-26.487 -3.094,-31.127 z"
         fill="#15161a"
         id="path68911" />
      <path
         d="m 673.423,377.465 0.258,-12.309 c -0.387,-0.838 -0.903,-1.676 -1.934,-2.191 -0.58,-0.322 -1.289,-0.451 -1.997,-0.516 h -48.785 c 0.193,3.48 52.458,15.016 52.458,15.016 z"
         fill="#2a2b2e"
         id="path68913" />
      <path
         d="m 471.389,256.954 12.631,8.377 c 0,0 5.736,4.06 1.547,8.443 0,0 -1.998,2.32 -7.282,2.384 -5.285,0.129 -16.305,-2.384 -16.305,-2.384 z"
         fill="#000000"
         id="path68915" />
      <path
         d="m 449.22,253.538 c 2.578,-7.153 15.595,-6.122 15.66,-6.122 5.607,0.451 9.795,6.058 13.018,12.051 3.673,6.96 0.966,21.073 -5.929,19.785 -7.862,-1.547 -4.898,-0.387 -17.594,-4.125 -3.415,-0.967 -8.249,-12.824 -5.155,-21.589 z"
         fill="#161a1e"
         id="path68917" />
      <path
         d="m 449.22,253.538 c 0.258,-0.645 0.58,-1.225 0.966,-1.74 -0.128,3.351 0.58,6.702 2.9,9.28 2.9,3.222 7.154,4.962 11.214,6.058 2.449,0.709 4.898,1.546 7.411,2.062 1.998,0.387 4.769,0.967 6.638,-0.193 0.451,-0.258 0.773,-0.58 1.095,-0.903 -0.257,6.123 -2.964,11.987 -7.54,11.149 -7.862,-1.546 -4.897,-0.386 -17.593,-4.124 -3.351,-0.967 -8.185,-12.825 -5.091,-21.589 z"
         fill="#030509"
         id="path68919" />
      <path
         d="m 520.689,293.494 -1.869,-0.258 c 0,0.064 0.065,0.064 0.065,0.129 z m -7.54,-0.902 -62.383,-7.54 -158.791,-1.934 205.385,9.28 c -0.129,-0.386 -0.129,-0.58 -0.129,-0.58 z"
         fill="#4aac29"
         id="path68921" />
      <path
         d="m 20.2117,256.502 0.7089,-4.897 h -0.1289 c 0,0 0.3866,-1.032 1.2889,-2.9 l -1.2889,2.255 z"
         fill="#e62d29"
         id="path68923" />
      <path
         d="m 290.815,283.053 -269.8944,-31.449 -0.6444,4.898 0.8378,-0.773 0.5155,0.258 c 1.289,0.644 2.4489,1.353 3.6734,2.126 2.3844,1.547 4.64,3.158 7.0245,4.64 2.7711,1.676 5.4133,4.254 6.8311,7.347 0.2577,0.516 0.4511,1.031 0.58,1.547 z"
         fill="#9ee287"
         id="path68925" />
      <path
         d="M 450.831,285.051 48.2452,236.46 l -1.6111,1.804 c 0,0 -6.1222,8.765 -13.7911,8.765 -2.5134,0 -5.1556,-0.967 -7.7978,-3.416 l -2.9,5.091 c -0.9022,1.869 -1.2889,2.9 -1.2889,2.9 h 0.1288 l 269.8939,31.449 1.225,0.065 z"
         fill="#def6d6"
         id="path68927" />
      <path
         d="m 345.013,273.193 -15.983,-1.675 c 0,0 -3.157,-0.258 -2.191,2.578 0.967,2.835 1.289,3.351 1.289,3.351 0,0 0.258,1.418 3.287,2.255 3.029,0.774 21.46,3.48 21.46,3.48 0,0 2.578,0.516 6.831,-1.095 4.253,-1.611 4.382,-5.156 3.093,-6.122 0,0 0.065,-0.387 -2.513,-1.032 -2.642,-0.644 -15.273,-1.74 -15.273,-1.74 z"
         fill="#384241"
         id="path68929" />
      <path
         d="m 358.482,275.256 -26.874,-2.964 c 0,0 -2.964,-0.323 -3.544,0.966 -0.58,1.289 0.902,2.707 4.962,3.351 4.06,0.709 19.656,2.965 19.656,2.965 0,0 5.8,0.902 7.926,-0.516 2.063,-1.417 1.225,-3.286 -2.126,-3.802 z"
         fill="#abaeae"
         id="path68931" />
      <path
         d="m 176.554,254.634 -15.982,-1.676 c 0,0 -3.158,-0.258 -2.191,2.578 0.967,2.836 1.289,3.351 1.289,3.351 0,0 0.258,1.418 3.287,2.256 3.029,0.773 21.46,3.48 21.46,3.48 0,0 2.577,0.515 6.831,-1.096 4.253,-1.611 4.382,-5.155 3.093,-6.122 0,0 0.065,-0.387 -2.513,-1.031 -2.642,-0.645 -15.274,-1.74 -15.274,-1.74 z"
         fill="#384241"
         id="path68933" />
      <path
         d="m 190.023,256.696 -26.873,-2.965 c 0,0 -2.964,-0.322 -3.544,0.967 -0.58,1.289 0.902,2.706 4.962,3.351 4.06,0.709 19.655,2.964 19.655,2.964 0,0 5.8,0.903 7.927,-0.515 2.062,-1.418 1.289,-3.287 -2.127,-3.802 z"
         fill="#abaeae"
         id="path68935" />
      <path
         d="m 97.0298,160.158 c 7.9272,0.193 13.6622,2.191 10.3112,8.506 l -60.7069,69.601 c 0,0 -10.9556,15.595 -21.7823,5.155 5.1556,-9.28 16.0467,-25.842 36.6045,-46.915 18.3668,-18.818 26.9379,-30.032 35.5735,-36.347 z"
         fill="#02384a"
         id="path68937" />
      <path
         d="m 619.869,306.189 c 7.089,-0.386 13.341,-0.515 19.914,2.514 6.187,2.9 15.338,6.444 18.496,9.731 1.095,1.418 1.997,3.029 2.771,4.704 1.482,5.091 2.32,10.376 2.513,15.66 -0.193,1.612 -0.58,3.029 -1.096,4.125 -1.933,3.931 -22.813,0.838 -36.862,-10.633 -4.447,-2.578 -12.889,-25.649 -5.736,-26.101 z"
         fill="#cccbc3"
         id="path68939" />
      <path
         d="m 635.143,335.511 c 0.258,0 0.515,0 0.709,-0.064 4.446,-0.645 7.282,-6.896 6.251,-13.985 -0.258,-1.74 -0.709,-3.351 -1.289,-4.833 -3.158,-2.449 -6.509,-4.64 -10.053,-6.444 -3.609,1.611 -5.736,7.282 -4.834,13.597 1.031,6.703 5.027,11.729 9.216,11.729 z"
         fill="#d3dcd9"
         id="path68941" />
      <path
         d="m 647.387,332.483 c 0.129,4.318 2.449,7.798 5.22,7.669 2.707,-0.065 4.834,-3.674 4.64,-7.991 -0.129,-4.318 -2.449,-7.798 -5.22,-7.669 -2.706,0.064 -4.769,3.673 -4.64,7.991 z"
         fill="#dcd2bc"
         id="path68943" />
      <path
         d="m 662.79,342.085 c 0.322,-0.902 0.58,-2.062 0.709,-3.287 -0.129,1.289 -0.323,2.385 -0.709,3.287 z m -23.007,-33.382 c -1.16,-0.58 -2.32,-0.967 -3.545,-1.354 1.225,0.322 2.385,0.774 3.545,1.354 z"
         fill="#ee7c77"
         id="path68945" />
      <path
         d="m 662.79,342.085 c 0.322,-0.902 0.58,-2.062 0.709,-3.287 -0.194,-5.284 -1.032,-10.633 -2.514,-15.66 -0.773,-1.675 -1.675,-3.286 -2.771,-4.704 -3.158,-3.287 -12.309,-6.831 -18.496,-9.731 -1.16,-0.58 -2.32,-0.967 -3.544,-1.354 -3.416,-1.031 -6.831,-1.353 -10.376,-1.353 -1.546,0 -3.093,0.065 -4.704,0.129 3.351,1.096 6.573,2.449 9.667,4.06 0.451,-0.193 0.966,-0.322 1.417,-0.451 0.258,-0.065 0.516,-0.065 0.709,-0.065 3.094,0 6.123,2.772 7.863,6.96 3.286,2.578 6.444,5.414 9.344,8.507 0.58,-0.386 1.224,-0.644 1.869,-0.709 h 0.129 c 2.707,0 4.962,3.416 5.091,7.669 0,0.516 0,1.031 -0.064,1.482 2.062,2.772 3.931,5.607 5.671,8.507 z"
         fill="#dfdfd8"
         id="path68947" />
      <path
         d="m 640.814,316.629 c -1.74,-4.188 -4.769,-6.96 -7.862,-6.96 -0.258,0 -0.516,0 -0.709,0.065 -0.516,0.064 -0.967,0.193 -1.418,0.451 3.544,1.804 6.831,3.996 9.989,6.444 z"
         fill="#e4e8e5"
         id="path68949" />
      <path
         d="m 657.183,333.643 c 0.064,-0.516 0.064,-0.967 0.064,-1.482 -0.129,-4.254 -2.384,-7.669 -5.091,-7.669 h -0.129 c -0.709,0 -1.289,0.257 -1.869,0.709 2.514,2.642 4.834,5.477 7.025,8.442 z"
         fill="#e8e2d4"
         id="path68951" />
      <path
         d="m 635.336,399.634 c 6.896,0 19.849,-3.674 19.398,-9.474 -0.451,-6.122 -15.854,-12.308 -22.298,-12.824 -0.322,0 -0.644,-0.065 -0.967,-0.065 -5.993,0 -10.311,4.383 -9.86,10.247 0.451,6.122 6.058,11.536 12.503,12.051 0.322,0.065 0.773,0.065 1.224,0.065 z"
         fill="#353739"
         id="path68953" />
      <path
         d="m 633.725,378.69 c -6.122,-0.516 -10.698,3.802 -10.247,9.602 0.451,5.8 5.736,10.891 11.794,11.342 6.122,0.451 19.913,-3.093 19.462,-8.893 -0.387,-5.736 -14.951,-11.6 -21.009,-12.051 z"
         fill="#000000"
         id="path68955" />
      <path
         d="m 487.564,250.831 c -2.577,-2.771 -5.22,-5.606 -7.991,-8.571 2.707,2.965 5.414,5.8 7.991,8.571 z"
         fill="#76969f"
         id="path68957" />
      <path
         d="m 469.456,243.614 c -22.878,-26.551 -52.587,-52.845 -62.77,-61.674 10.247,8.829 39.892,35.058 62.77,61.674 z m -62.834,-61.738 c -0.064,-0.065 -0.064,-0.065 -0.129,-0.129 0.065,0.064 0.129,0.064 0.129,0.129 z m -0.129,-0.129 c -0.129,-0.129 -0.258,-0.258 -0.451,-0.387 0.193,0.129 0.322,0.258 0.451,0.387 z m -0.387,-0.387 c -0.257,-0.258 -0.515,-0.451 -0.773,-0.644 0.193,0.193 0.451,0.451 0.773,0.644 z m -0.773,-0.644 c -0.064,0 -0.064,-0.065 -0.064,-0.065 0,0 0,0.065 0.064,0.065 z m -0.129,-0.065 -0.064,-0.064 c 0,0 0.064,0 0.064,0.064 z m -0.129,-0.129 c -0.064,-0.064 -0.129,-0.128 -0.193,-0.128 0.064,0 0.129,0.064 0.193,0.128 z m -0.193,-0.193 -0.064,-0.064 c 0,0.064 0,0.064 0.064,0.064 z m -0.129,-0.129 c -0.064,0 -0.064,0 0,0 -0.064,0 -0.064,0 0,0 z"
         fill="#e44546"
         id="path68959" />
      <path
         d="m 487.564,250.831 c -2.577,-2.771 -5.22,-5.607 -7.991,-8.507 -25.198,-26.68 -56.969,-58.386 -78.493,-72.629 -0.065,0 -0.065,-0.064 -0.129,-0.064 -0.065,0 -0.065,-0.065 -0.129,-0.065 -0.387,0.774 -0.645,1.74 -0.645,2.9 0,2.192 1.032,4.834 4.512,7.798 l 0.064,0.065 c 0.064,0.064 0.129,0.129 0.193,0.129 0,0 0,0 0.065,0.064 l 0.064,0.064 0.065,0.065 c 0.257,0.193 0.515,0.451 0.773,0.644 0.129,0.129 0.258,0.258 0.451,0.387 0.065,0.064 0.065,0.064 0.129,0.129 0,0 0,0 0.065,0 0,0 -10e-4,0 0.064,0 10.182,8.829 39.891,35.058 62.769,61.673 6.122,2.449 12.18,4.834 18.173,7.347 z"
         fill="#005167"
         id="path68961" />
      <path
         d="m 439.424,232.916 c -4.897,-6.573 -10.246,-13.662 -15.402,-20.236 5.22,6.509 10.569,13.598 15.402,20.236 z M 317.817,203.529 c -2.9,-15.273 -6.251,-28.291 -9.28,-38.538 3.029,10.247 6.38,23.265 9.28,38.538 z"
         fill="#001524"
         id="path68963" />
      <path
         d="m 439.424,232.916 c -4.897,-6.573 -10.246,-13.662 -15.338,-20.236 -7.282,-9.28 -14.177,-17.593 -18.753,-22.104 -14.822,-14.371 -36.347,-19.14 -36.347,-19.14 -16.369,-2.643 -37.635,-4.705 -60.449,-6.38 3.029,10.246 6.38,23.264 9.28,38.538 17.143,2.964 34.156,6.251 51.105,10.053 23.78,5.22 47.367,11.6 70.502,19.269 z"
         fill="#005167"
         id="path68965" />
      <path
         d="m 197.048,166.924 v -0.064 c 0,0 0,0 0,0.064 z m 0,-0.129 c 1.16,-2.448 2.255,-4.768 3.286,-6.96 -1.031,2.192 -2.126,4.512 -3.286,6.96 z"
         fill="#001524"
         id="path68967" />
      <path
         d="m 299.064,200.5 c -1.031,-13.727 -2.32,-26.165 -3.544,-36.347 -33.254,-2.191 -68.312,-3.544 -95.121,-4.253 -1.031,2.191 -2.127,4.511 -3.287,6.96 0,0 0,0 0,0.064 v 0.065 0.064 c 0,0 0,0 0,0.065 -2.964,6.315 -6.251,13.598 -9.795,21.782 37.249,2.062 74.691,5.864 111.747,11.6 z"
         fill="#005167"
         id="path68969" />
      <path
         d="m 174.557,188.127 c 2.062,-3.996 4.189,-8.056 6.315,-12.116 -2.126,4.06 -4.253,8.12 -6.315,12.116 z m -51.492,-1.482 c 2.772,-3.287 5.672,-6.509 8.636,-9.603 -2.964,3.094 -5.864,6.316 -8.636,9.603 z m 8.636,-9.603 c 0,-0.064 0,-0.064 0,0 0,-0.064 0,-0.064 0,0 z"
         fill="#001524"
         id="path68971" />
      <path
         d="m 174.557,188.127 c 2.062,-3.996 4.189,-8.056 6.315,-12.116 2.9,-5.478 5.8,-10.956 8.765,-16.433 -12.631,-0.258 -22.62,-0.387 -28.678,-0.387 -2.256,0 -3.996,0 -5.027,0.064 0,0 0,0 -0.064,0 h -0.065 c -5.735,0.323 -14.886,8.056 -23.973,17.723 0,0 0,0.064 -0.065,0.064 0,0 0,0 -0.064,0.065 -2.9,3.093 -5.8,6.315 -8.636,9.602 6.896,0.064 13.856,0.193 20.752,0.322 10.246,0.193 20.493,0.58 30.74,1.096 z"
         fill="#005167"
         id="path68973" />
      <path
         d="m 70.2207,187.353 c 2.0623,-2.191 3.9956,-4.318 5.8001,-6.251 -1.8045,1.933 -3.7378,3.996 -5.8001,6.251 z"
         fill="#76969f"
         id="path68975" />
      <path
         d="m 70.2208,187.353 c 5.9289,-6.315 10.6978,-11.6 14.7578,-15.917 -2.6422,2.835 -5.5422,5.993 -8.8933,9.666 -1.8689,1.934 -3.8023,3.996 -5.8645,6.251 z"
         fill="#e44546"
         id="path68977" />
      <path
         d="m 70.2208,187.353 c 7.0889,-0.257 14.2423,-0.451 21.3312,-0.58 l 7.2178,-8.249 c -0.4511,-0.193 -0.9667,-0.451 -1.6111,-0.773 -3.2223,-1.547 -8.249,-4.06 -12.2445,-6.315 -3.9956,4.317 -8.7645,9.537 -14.6934,15.917 z"
         fill="#005167"
         id="path68979" />
      <path
         d="m 187.703,375.532 c 0,-30.869 -26.293,-55.874 -58.773,-55.874 -32.4157,0 -58.7736,25.005 -58.7736,55.874 0,8.313 1.9333,16.175 5.3489,23.264 H 64.743 c -4.1889,-9.086 -6.5733,-19.14 -6.5733,-29.837 0,-39.054 31.7068,-70.761 70.7603,-70.761 39.053,0 70.76,31.707 70.76,70.761 0,10.633 -2.384,20.751 -6.573,29.837 h -10.762 c 3.415,-7.089 5.348,-14.951 5.348,-23.264 z"
         fill="#15161a"
         id="path68981" />
      <path
         d="m 128.93,319.658 c 32.48,0 58.773,25.005 58.773,55.874 0,8.313 -1.933,16.175 -5.284,23.264 H 75.5052 c -3.4155,-7.089 -5.3489,-14.951 -5.3489,-23.264 0,-30.869 26.3579,-55.874 58.7737,-55.874 z"
         fill="#000000"
         id="path68983" />
      <path
         d="m 78.9853,381.396 c 0,27.583 22.3627,49.945 49.9447,49.945 27.582,0 49.945,-22.362 49.945,-49.945 0,-27.582 -22.363,-49.944 -49.945,-49.944 -27.582,0 -49.9447,22.362 -49.9447,49.944 z"
         fill="#2d3132"
         id="path68985" />
      <path
         d="m 78.9853,381.396 c 0,27.583 22.3627,49.945 49.9447,49.945 27.582,0 49.945,-22.362 49.945,-49.945 0,-27.582 -22.363,-49.944 -49.945,-49.944 -27.582,0 -49.9447,22.362 -49.9447,49.944 z"
         fill="#161a1e"
         id="path68987" />
      <path
         d="m 95.0321,381.396 c 0,18.754 15.1449,33.898 33.8979,33.898 18.689,0 33.898,-15.144 33.898,-33.898 0,-18.689 -15.209,-33.897 -33.898,-33.897 -18.689,0 -33.8979,15.208 -33.8979,33.897 z"
         fill="#000000"
         id="path68989" />
      <path
         d="m 97.9964,381.396 c 0,17.078 13.8556,30.934 30.9336,30.934 17.078,0 30.933,-13.856 30.933,-30.934 0,-17.078 -13.855,-30.933 -30.933,-30.933 -17.078,0 -30.9336,13.855 -30.9336,30.933 z"
         fill="#cccbc3"
         id="path68991" />
      <path
         d="m 113.399,362.965 c -0.065,-0.387 0,-0.709 0.129,-1.096 3.286,-2.964 7.54,-4.897 12.244,-5.22 0.451,0.065 0.838,0.258 1.16,0.58 0.129,0.258 0.258,0.452 0.387,0.774 v 17.207 c -0.065,0.257 -0.193,0.451 -0.322,0.644 l -0.323,0.129 c -0.257,0 -0.58,-0.065 -0.837,-0.193 l -12.374,-12.374 z"
         fill="#444746"
         id="path68993" />
      <path
         d="m 104.376,379.979 c -0.322,-0.258 -0.515,-0.516 -0.644,-0.838 0.258,-4.447 1.869,-8.765 4.962,-12.373 0.387,-0.258 0.774,-0.387 1.225,-0.452 0.258,0.065 0.515,0.129 0.837,0.258 l 12.181,12.18 c 0.064,0.258 0.193,0.451 0.193,0.709 l -0.129,0.322 c -0.193,0.194 -0.451,0.323 -0.709,0.452 h -17.464 z"
         fill="#444746"
         id="path68995" />
      <path
         d="m 110.241,397.83 c -0.387,0.064 -0.709,0 -1.096,-0.129 -3.029,-3.222 -5.026,-7.476 -5.477,-12.116 0.064,-0.451 0.257,-0.838 0.515,-1.224 0.258,-0.129 0.451,-0.322 0.773,-0.451 l 17.207,-0.323 c 0.258,0.065 0.451,0.194 0.645,0.323 l 0.129,0.322 c 0,0.258 -0.065,0.58 -0.194,0.838 l -12.115,12.566 z"
         fill="#444746"
         id="path68997" />
      <path
         d="m 126.997,405.499 c -0.258,0.257 -0.516,0.515 -0.838,0.644 -4.447,-0.322 -8.765,-1.998 -12.309,-5.091 -0.258,-0.387 -0.387,-0.774 -0.451,-1.225 0.064,-0.257 0.129,-0.515 0.258,-0.837 l 12.309,-11.987 c 0.257,-0.065 0.451,-0.129 0.708,-0.193 l 0.323,0.128 c 0.193,0.194 0.322,0.452 0.451,0.709 l -0.258,17.465 z"
         fill="#444746"
         id="path68999" />
      <path
         d="m 144.461,362.965 c 0.064,-0.387 0,-0.709 -0.129,-1.096 -3.287,-2.964 -7.54,-4.897 -12.244,-5.22 -0.451,0.065 -0.838,0.258 -1.16,0.58 -0.129,0.258 -0.323,0.452 -0.387,0.774 v 17.207 c 0.064,0.257 0.193,0.451 0.322,0.644 l 0.322,0.129 c 0.258,0 0.58,-0.065 0.838,-0.193 l 12.374,-12.374 z"
         fill="#444746"
         id="path69001" />
      <path
         d="m 153.483,379.979 c 0.258,-0.258 0.516,-0.516 0.645,-0.838 -0.258,-4.447 -1.869,-8.765 -4.963,-12.373 -0.386,-0.258 -0.773,-0.387 -1.224,-0.452 -0.258,0.065 -0.516,0.129 -0.838,0.258 l -12.18,12.18 c -0.064,0.258 -0.193,0.451 -0.193,0.709 l 0.129,0.322 c 0.193,0.194 0.451,0.323 0.709,0.452 h 17.464 z"
         fill="#444746"
         id="path69003" />
      <path
         d="m 147.619,397.83 c 0.386,0.064 0.709,0 1.095,-0.129 3.029,-3.222 5.027,-7.476 5.478,-12.116 -0.064,-0.451 -0.258,-0.838 -0.515,-1.224 -0.258,-0.129 -0.452,-0.322 -0.709,-0.451 l -17.207,-0.323 c -0.258,0.065 -0.451,0.194 -0.644,0.323 l -0.129,0.322 c 0,0.258 0.064,0.58 0.129,0.838 l 12.115,12.566 z"
         fill="#444746"
         id="path69005" />
      <path
         d="m 130.928,405.499 c 0.257,0.257 0.515,0.515 0.837,0.644 4.447,-0.322 8.765,-1.998 12.309,-5.091 0.258,-0.387 0.387,-0.774 0.451,-1.225 -0.064,-0.257 -0.128,-0.515 -0.257,-0.837 l -12.309,-11.987 c -0.258,-0.065 -0.451,-0.129 -0.709,-0.193 l -0.322,0.128 c -0.194,0.194 -0.323,0.452 -0.452,0.709 l 0.258,17.465 z"
         fill="#444746"
         id="path69007" />
      <path
         d="m 119.843,381.396 c 0,5.027 4.06,9.087 9.087,9.087 5.027,0 9.087,-4.06 9.087,-9.087 0,-5.026 -4.06,-9.086 -9.087,-9.086 -5.027,0 -9.087,4.06 -9.087,9.086 z"
         fill="#cccbc3"
         id="path69009" />
      <path
         d="m 123.065,376.95 c 0,0.644 0.516,1.16 1.16,1.16 0.645,0 1.16,-0.516 1.16,-1.16 0,-0.645 -0.515,-1.16 -1.16,-1.16 -0.644,0 -1.16,0.515 -1.16,1.16 z"
         fill="#444746"
         id="path69011" />
      <path
         d="m 127.77,375.338 c 0,0.645 0.515,1.16 1.16,1.16 0.644,0 1.16,-0.515 1.16,-1.16 0,-0.644 -0.516,-1.16 -1.16,-1.16 -0.645,0 -1.16,0.516 -1.16,1.16 z"
         fill="#444746"
         id="path69013" />
      <path
         d="m 132.539,377.143 c 0,0.644 0.515,1.16 1.16,1.16 0.644,0 1.16,-0.516 1.16,-1.16 0,-0.645 -0.516,-1.16 -1.16,-1.16 -0.645,0 -1.16,0.515 -1.16,1.16 z"
         fill="#444746"
         id="path69015" />
      <path
         d="m 123.065,386.809 c 0,-0.644 0.516,-1.16 1.16,-1.16 0.645,0 1.16,0.516 1.16,1.16 0,0.645 -0.515,1.16 -1.16,1.16 -0.644,0 -1.16,-0.515 -1.16,-1.16 z"
         fill="#444746"
         id="path69017" />
      <path
         d="m 120.81,382.105 c 0,-0.644 0.515,-1.16 1.16,-1.16 0.644,0 1.16,0.516 1.16,1.16 0,0.645 -0.516,1.16 -1.16,1.16 -0.645,0 -1.16,-0.515 -1.16,-1.16 z"
         fill="#444746"
         id="path69019" />
      <path
         d="m 134.794,382.105 c 0,-0.644 0.516,-1.16 1.16,-1.16 0.645,0 1.16,0.516 1.16,1.16 0,0.645 -0.515,1.16 -1.16,1.16 -0.644,0 -1.16,-0.515 -1.16,-1.16 z"
         fill="#444746"
         id="path69021" />
      <path
         d="m 127.77,388.485 c 0,-0.644 0.515,-1.16 1.16,-1.16 0.644,0 1.16,0.516 1.16,1.16 0,0.645 -0.516,1.16 -1.16,1.16 -0.645,-0.064 -1.16,-0.58 -1.16,-1.16 z"
         fill="#444746"
         id="path69023" />
      <path
         d="m 132.539,386.681 c 0,-0.645 0.515,-1.16 1.16,-1.16 0.644,0 1.16,0.515 1.16,1.16 0,0.644 -0.516,1.16 -1.16,1.16 -0.645,-0.065 -1.16,-0.58 -1.16,-1.16 z"
         fill="#444746"
         id="path69025" />
      <path
         d="m 64.743,398.796 h 1.6756 c -3.5444,-8.184 -5.4778,-17.271 -5.4778,-26.744 0,-37.571 30.4179,-67.989 67.9892,-67.989 37.571,0 67.989,30.418 67.989,67.989 0,9.473 -1.933,18.495 -5.478,26.744 h 1.611 c 0.194,-0.386 0.387,-0.773 0.516,-1.16 3.867,-8.764 6.058,-18.431 6.058,-28.613 0,-39.053 -31.707,-70.76 -70.761,-70.76 -39.053,0 -70.7598,31.707 -70.7598,70.76 0.0645,10.569 2.4489,20.687 6.6378,29.773 z"
         fill="#333335"
         id="path69027" />
      <path
         d="m 106.245,172.853 c 0,0 8.765,-9.537 -3.157,-12.695 -6.8316,-1.805 -10.1183,0.967 -19.1406,4.382 l -4.9622,2.256 c -2.5778,1.095 21.4598,12.502 21.4598,12.502 z"
         fill="#def6d6"
         id="path69029" />
      <path
         d="m 84.9786,171.435 c -3.2866,-1.868 -5.9289,-3.48 -6.1222,-4.253 0.1933,0.709 2.8356,2.385 6.1222,4.253 z"
         fill="#c52726"
         id="path69031" />
      <path
         d="m 97.2231,177.751 c -3.2222,-1.611 -8.2489,-4.124 -12.2444,-6.315 3.9955,2.191 9.0222,4.704 12.2444,6.315 z"
         fill="#000102"
         id="path69033" />
      <path
         d="M 97.1587,177.751 C 90.2631,173.82 81.5631,168.535 83.1742,167.698 l 5.0267,-2.578 c 5.7356,-2.449 9.1511,-4.64 12.6311,-5.414 -0.644,-0.064 -1.2888,-0.128 -1.8688,-0.128 -4.5112,0 -8.0556,2.255 -15.0801,4.962 l -4.9623,2.255 c -0.1933,0.065 -0.1933,0.194 -0.1933,0.323 0.2578,0.773 2.8356,2.449 6.1223,4.253 4.1244,2.256 9.0866,4.769 12.3089,6.38 z"
         fill="#4aac29"
         id="path69035" />
      <path
         d="m 23.6917,340.345 -12.1801,-0.709 c 0,0 -3.35113,-0.257 -4.51113,1.934 l -4.05997,8.249 c 0,0 -0.38669,1.288 1.67554,1.288 H 16.6672 c 0,0 1.9334,0.129 3.3511,-0.966 1.4178,-1.096 5.4778,-8.378 5.4778,-8.378 0,0 0.6444,-1.482 -1.8044,-1.418 z"
         fill="#570f09"
         id="path69037" />
      <path
         d="M 17.9562,341.956 9.64281,341.44 c 0,0 -2.25555,-0.193 -3.09333,1.289 l -2.77116,5.607 c 0,0 -0.25774,0.902 1.16004,0.902 h 8.24894 c 0,0 1.2889,0.065 2.2555,-0.644 0.9667,-0.709 3.7378,-5.671 3.7378,-5.671 0,0 0.3223,-1.225 -1.2244,-0.967 z"
         fill="#ec3d2d"
         id="path69039" />
      <path
         d="m 32.3918,262.753 c 2.7711,1.676 5.4134,4.254 6.8312,7.347 1.4822,3.222 1.6755,6.831 1.3533,10.376 -0.2578,2.964 -0.7733,5.929 -1.2244,8.893 -0.4512,3.029 -0.9023,5.993 -1.4823,8.958 -0.5156,2.707 -1.0956,5.413 -1.9333,8.055 -0.58,1.74 -1.2245,3.416 -2.5778,4.576 -1.6756,1.482 -3.8022,2.32 -5.7356,3.222 -2.5133,1.16 -5.0911,2.256 -7.6689,3.223 -2.3845,0.902 -8.2489,4.124 -8.2489,2.642 l 7.8622,-62.898 1.6756,-1.547 0.5155,0.258 c 1.2889,0.644 2.4489,1.353 3.6734,2.127 2.2555,1.611 4.5755,3.286 6.96,4.768 z"
         fill="#e05926"
         id="path69041" />
      <path
         d="m 12.1561,320.496 c 1.4823,0 5.8001,-2.256 7.7334,-3.029 2.5778,-1.031 5.1556,-2.062 7.6689,-3.222 1.9333,-0.902 4.06,-1.74 5.7356,-3.222 1.3533,-1.16 1.9978,-2.9 2.5778,-4.576 0.8378,-2.578 1.4178,-5.349 1.9333,-8.056 0.58,-2.964 1.0311,-5.993 1.4822,-8.957 0,-0.129 10e-5,-0.194 0.0645,-0.323 0,0.129 0,0.194 -0.0645,0.323 -0.4511,3.028 -0.9022,5.993 -1.4822,8.957 -0.5155,2.707 -1.0955,5.414 -1.9333,8.056 -0.58,1.74 -1.2245,3.416 -2.5778,4.576 -1.6756,1.482 -3.8023,2.32 -5.7356,3.222 -2.5133,1.16 -5.0911,2.255 -7.6689,3.222 -1.9333,0.773 -6.2511,3.029 -7.7334,3.029 -0.3222,0 -0.5155,-0.129 -0.5155,-0.387 0,0.258 0.1933,0.387 0.5155,0.387 z"
         fill="#c12026"
         id="path69043" />
      <path
         d="m 12.8007,310.378 3.0289,-24.231 z"
         fill="#e05926"
         id="path69045" />
      <path
         d="m 11.6406,320.11 1.2244,-9.732 z"
         fill="#c12026"
         id="path69047" />
      <path
         d="m 12.1561,320.496 c 1.4822,0 5.8,-2.256 7.7334,-3.029 2.5778,-1.031 5.1555,-2.062 7.6689,-3.222 1.9333,-0.902 4.06,-1.74 5.7356,-3.222 1.3533,-1.16 1.9977,-2.9 2.5777,-4.576 0.8378,-2.578 1.4178,-5.349 1.9334,-8.056 0.58,-2.964 1.0311,-5.993 1.4822,-8.957 0,-0.129 0,-0.194 0.0645,-0.323 0.1289,-0.966 0.2577,-1.933 0.4511,-2.9 H 37.354 c -1.5467,9.925 -4.06,21.203 -4.06,21.203 0,0 -0.3222,2.384 -3.2867,3.673 l 4.5111,-24.876 H 15.8295 l -3.0289,24.167 -1.2245,9.731 c 0.0644,0.258 0.2578,0.387 0.58,0.387 z"
         fill="#bf2226"
         id="path69049" />
      <path
         d="m 34.5184,286.147 h 2.8356 c 0.7733,-4.833 1.2889,-9.344 1.2244,-12.115 -0.3222,-8.314 -17.0778,-16.627 -17.0778,-16.627 0,0 4.64,5.155 10.3756,9.924 5.7355,4.769 3.3511,15.08 3.3511,15.08 z"
         fill="#f47641"
         id="path69051" />
      <path
         d="m 30.0073,311.087 c 2.9,-1.289 3.2867,-3.673 3.2867,-3.673 0,0 2.5133,-11.278 4.06,-21.203 h -2.8355 z"
         fill="#f05336"
         id="path69053" />
      <path
         d="m 517.789,292.785 -20.558,-0.967 c 0,0 0.322,2.256 2.449,4.125 2.127,1.933 12.18,1.418 12.18,1.418 0,0 4.511,0.257 5.993,-1.225 1.418,-1.353 1.612,-3.287 -0.064,-3.351 z"
         fill="#ee6d22"
         id="path69055" />
      <path
         d="m 511.667,296.78 c 1.031,0 1.804,-0.064 1.804,-0.064 0,0 0.194,0 0.516,0 0.902,0 2.771,-0.065 3.48,-0.774 0.967,-0.966 1.095,-2.255 0,-2.32 l -13.662,-0.644 c 0,0 0.193,1.482 1.611,2.771 0.838,0.902 4.124,1.031 6.251,1.031 z"
         fill="#f68727"
         id="path69057" />
    </g>
  </g>
</svg>
