<?xml version="1.0" encoding="UTF-8" standalone="no"?>
<svg
   xmlns:dc="http://purl.org/dc/elements/1.1/"
   xmlns:cc="http://creativecommons.org/ns#"
   xmlns:rdf="http://www.w3.org/1999/02/22-rdf-syntax-ns#"
   xmlns:svg="http://www.w3.org/2000/svg"
   xmlns="http://www.w3.org/2000/svg"
   xmlns:sodipodi="http://sodipodi.sourceforge.net/DTD/sodipodi-0.dtd"
   xmlns:inkscape="http://www.inkscape.org/namespaces/inkscape"
   inkscape:version="1.0 (4035a4fb49, 2020-05-01)"
   sodipodi:docname="open-trailer.svg"
   id="svg744"
   version="1.1"
   fill="none"
   viewBox="0 0 142 124"
   height="124"
   width="142">
  <metadata
     id="metadata748">
    <rdf:RDF>
      <cc:Work
         rdf:about="">
        <dc:format>image/svg+xml</dc:format>
        <dc:type
           rdf:resource="http://purl.org/dc/dcmitype/StillImage" />
        <dc:title></dc:title>
      </cc:Work>
    </rdf:RDF>
  </metadata>
  <sodipodi:namedview
     inkscape:current-layer="svg744"
     inkscape:window-maximized="1"
     inkscape:window-y="-8"
     inkscape:window-x="1592"
     inkscape:cy="37.313387"
     inkscape:cx="41.441634"
     inkscape:zoom="2.0869471"
     width="142px"
     lock-margins="true"
     showgrid="false"
     id="namedview746"
     inkscape:window-height="1017"
     inkscape:window-width="1920"
     inkscape:pageshadow="2"
     inkscape:pageopacity="0"
     guidetolerance="10"
     gridtolerance="10"
     objecttolerance="10"
     borderopacity="1"
     bordercolor="#666666"
     pagecolor="#ffffff" />
  <defs
     id="defs742">
    <clipPath
       id="clip0">
      <rect
         y="0"
         x="0"
         id="rect739"
         fill="#ffffff"
         height="575.90002"
         width="673.70001" />
    </clipPath>
    <linearGradient
       id="paint0_linear"
       x1="639.053"
       y1="257.754"
       x2="620.802"
       y2="264.974"
       gradientUnits="userSpaceOnUse">
      <stop
         stop-color="#282828"
         id="stop34559" />
      <stop
         offset="0.3"
         stop-color="#464646"
         id="stop34561" />
      <stop
         offset="0.7"
         stop-color="#A0A0A0"
         id="stop34563" />
      <stop
         offset="1"
         stop-color="white"
         id="stop34565" />
    </linearGradient>
    <linearGradient
       id="paint1_linear"
       x1="548.486"
       y1="132.436"
       x2="548.486"
       y2="16.1419"
       gradientUnits="userSpaceOnUse">
      <stop
         stop-color="#5E595D"
         id="stop34568" />
      <stop
         offset="0.3"
         stop-color="#313035"
         id="stop34570" />
      <stop
         offset="1"
         stop-color="#49484B"
         id="stop34572" />
    </linearGradient>
    <linearGradient
       id="paint2_linear"
       x1="544.347"
       y1="202.606"
       x2="544.347"
       y2="182.896"
       gradientUnits="userSpaceOnUse">
      <stop
         id="stop34575" />
      <stop
         offset="1"
         stop-color="#333333"
         id="stop34577" />
    </linearGradient>
    <linearGradient
       id="paint3_linear"
       x1="530.346"
       y1="36.326"
       x2="530.346"
       y2="-217.703"
       gradientUnits="userSpaceOnUse">
      <stop
         stop-color="#5E595D"
         id="stop34580" />
      <stop
         offset="0.3"
         stop-color="#313035"
         id="stop34582" />
      <stop
         offset="0.6"
         stop-color="#3E3C41"
         id="stop34584" />
      <stop
         offset="0.8"
         stop-color="#5D5B5F"
         id="stop34586" />
      <stop
         offset="1"
         stop-color="#605D60"
         id="stop34588" />
    </linearGradient>
    <linearGradient
       id="paint4_linear"
       x1="536.252"
       y1="182.617"
       x2="536.252"
       y2="126.671"
       gradientUnits="userSpaceOnUse">
      <stop
         stop-color="#5E595D"
         id="stop34591" />
      <stop
         offset="0.3"
         stop-color="#313035"
         id="stop34593" />
      <stop
         offset="1"
         stop-color="#49484B"
         id="stop34595" />
    </linearGradient>
    <linearGradient
       id="paint5_linear"
       x1="647.849"
       y1="334.525"
       x2="638.609"
       y2="338.181"
       gradientUnits="userSpaceOnUse">
      <stop
         stop-color="#FF8000"
         id="stop34598" />
      <stop
         offset="0.3"
         stop-color="#FFA700"
         id="stop34600" />
      <stop
         offset="0.4"
         stop-color="#FFC000"
         id="stop34602" />
      <stop
         offset="1"
         stop-color="#FF8900"
         id="stop34604" />
    </linearGradient>
    <linearGradient
       id="paint6_linear"
       x1="349.194"
       y1="249.787"
       x2="323.183"
       y2="249.787"
       gradientUnits="userSpaceOnUse">
      <stop
         stop-color="#7C7C7C"
         id="stop34607" />
      <stop
         offset="0.6"
         stop-color="#3C3C3C"
         id="stop34609" />
      <stop
         offset="1"
         stop-color="#A8A8A8"
         id="stop34611" />
    </linearGradient>
    <linearGradient
       id="paint7_linear"
       x1="355.801"
       y1="249.791"
       x2="347.778"
       y2="249.763"
       gradientUnits="userSpaceOnUse">
      <stop
         stop-color="#2A2A2A"
         id="stop34614" />
      <stop
         offset="0.3"
         stop-color="#2A2A2A"
         id="stop34616" />
      <stop
         offset="0.7"
         stop-color="#D8D8D8"
         id="stop34618" />
      <stop
         offset="0.8"
         stop-color="#D8D8D8"
         id="stop34620" />
      <stop
         offset="1"
         stop-color="#999999"
         id="stop34622" />
    </linearGradient>
    <radialGradient
       id="paint8_radial"
       cx="0"
       cy="0"
       r="1"
       gradientUnits="userSpaceOnUse"
       gradientTransform="matrix(0,-2.52313,2.15559,0,358.826,262.965)">
      <stop
         stop-color="#9E9E9E"
         id="stop34625" />
      <stop
         offset="0.2"
         stop-color="#E0E0E0"
         id="stop34627" />
      <stop
         offset="0.3"
         stop-color="#F9F9F9"
         id="stop34629" />
      <stop
         offset="0.7"
         stop-color="#F2F2F2"
         id="stop34631" />
      <stop
         offset="0.9"
         stop-color="#D2D2D2"
         id="stop34633" />
      <stop
         offset="1"
         stop-color="#B3B3B3"
         id="stop34635" />
    </radialGradient>
    <linearGradient
       id="paint9_linear"
       x1="435.74"
       y1="250.628"
       x2="435.74"
       y2="232.769"
       gradientUnits="userSpaceOnUse">
      <stop
         stop-color="#7C7C7C"
         id="stop34638" />
      <stop
         offset="0.4"
         stop-color="#7C7C7C"
         id="stop34640" />
      <stop
         offset="0.8"
         stop-color="#EFEFEF"
         id="stop34642" />
      <stop
         offset="1"
         stop-color="#A8A8A8"
         id="stop34644" />
    </linearGradient>
    <linearGradient
       id="paint10_linear"
       x1="435.741"
       y1="254.685"
       x2="435.763"
       y2="248.23"
       gradientUnits="userSpaceOnUse">
      <stop
         stop-color="#999999"
         id="stop34647" />
      <stop
         offset="0.2"
         stop-color="#D8D8D8"
         id="stop34649" />
      <stop
         offset="0.3"
         stop-color="#D8D8D8"
         id="stop34651" />
      <stop
         offset="0.7"
         stop-color="#2A2A2A"
         id="stop34653" />
      <stop
         offset="1"
         stop-color="#2A2A2A"
         id="stop34655" />
    </linearGradient>
    <radialGradient
       id="paint11_radial"
       cx="0"
       cy="0"
       r="1"
       gradientUnits="userSpaceOnUse"
       gradientTransform="matrix(1.73554,0,0,2.03142,425.139,257.125)">
      <stop
         stop-color="#9E9E9E"
         id="stop34658" />
      <stop
         offset="0.2"
         stop-color="#E0E0E0"
         id="stop34660" />
      <stop
         offset="0.3"
         stop-color="#F9F9F9"
         id="stop34662" />
      <stop
         offset="0.7"
         stop-color="#F2F2F2"
         id="stop34664" />
      <stop
         offset="0.9"
         stop-color="#D2D2D2"
         id="stop34666" />
      <stop
         offset="1"
         stop-color="#B3B3B3"
         id="stop34668" />
    </radialGradient>
    <linearGradient
       id="paint12_linear"
       x1="40.2206"
       y1="331.498"
       x2="30.9828"
       y2="335.152"
       gradientUnits="userSpaceOnUse">
      <stop
         stop-color="#FF8000"
         id="stop34671" />
      <stop
         offset="0.3"
         stop-color="#FFA700"
         id="stop34673" />
      <stop
         offset="0.4"
         stop-color="#FFC000"
         id="stop34675" />
      <stop
         offset="1"
         stop-color="#FF8900"
         id="stop34677" />
    </linearGradient>
    <linearGradient
       id="paint13_linear"
       x1="21.7032"
       y1="272.391"
       x2="44.1152"
       y2="272.391"
       gradientUnits="userSpaceOnUse">
      <stop
         stop-color="#DB2A23"
         id="stop34680" />
      <stop
         offset="1"
         stop-color="#FF6962"
         id="stop34682" />
    </linearGradient>
    <clipPath
       id="clip0-3">
      <rect
         width="673.7"
         height="575.9"
         fill="white"
         id="rect34685" />
    </clipPath>
    <clipPath
       id="clip0-1">
      <rect
         width="674.5"
         height="572.5"
         fill="white"
         id="rect43405" />
    </clipPath>
    <clipPath
       id="clip0-19">
      <rect
         y="0"
         x="0"
         id="rect739-8"
         fill="#ffffff"
         height="575.90002"
         width="673.70001" />
    </clipPath>
    <radialGradient
       id="paint8_radial-0"
       cx="0"
       cy="0"
       r="1"
       gradientUnits="userSpaceOnUse"
       gradientTransform="matrix(0,-2.52313,2.15559,0,358.826,262.965)">
      <stop
         stop-color="#9E9E9E"
         id="stop34625-1" />
      <stop
         offset="0.2"
         stop-color="#E0E0E0"
         id="stop34627-3" />
      <stop
         offset="0.3"
         stop-color="#F9F9F9"
         id="stop34629-0" />
      <stop
         offset="0.7"
         stop-color="#F2F2F2"
         id="stop34631-2" />
      <stop
         offset="0.9"
         stop-color="#D2D2D2"
         id="stop34633-2" />
      <stop
         offset="1"
         stop-color="#B3B3B3"
         id="stop34635-5" />
    </radialGradient>
    <radialGradient
       id="paint11_radial-4"
       cx="0"
       cy="0"
       r="1"
       gradientUnits="userSpaceOnUse"
       gradientTransform="matrix(1.73554,0,0,2.03142,425.139,257.125)">
      <stop
         stop-color="#9E9E9E"
         id="stop34658-4" />
      <stop
         offset="0.2"
         stop-color="#E0E0E0"
         id="stop34660-2" />
      <stop
         offset="0.3"
         stop-color="#F9F9F9"
         id="stop34662-9" />
      <stop
         offset="0.7"
         stop-color="#F2F2F2"
         id="stop34664-9" />
      <stop
         offset="0.9"
         stop-color="#D2D2D2"
         id="stop34666-9" />
      <stop
         offset="1"
         stop-color="#B3B3B3"
         id="stop34668-3" />
    </radialGradient>
    <clipPath
       id="clip0-3-1">
      <rect
         width="673.7"
         height="575.9"
         fill="white"
         id="rect34685-6" />
    </clipPath>
    <clipPath
       id="clip0-11">
      <rect
         width="673.7"
         height="575.9"
         fill="white"
         id="rect69061" />
    </clipPath>
    <clipPath
       id="clip0-5">
      <rect
         width="674.5"
         height="572.5"
         fill="white"
         id="rect69316" />
    </clipPath>
  </defs>
  <g
     transform="matrix(0.21203291,0,0,0.21203291,-1.0161976,10.588359)"
     id="g69389"
     style="fill:none">
    <g
       clip-path="url(#clip0-5)"
       id="g69314">
      <path
         fill-rule="evenodd"
         clip-rule="evenodd"
         d="M 28.098,366.925 84.1849,338.881 V 324.359 L 28.098,327.197 Z"
         fill="#134901"
         id="path69196" />
      <path
         fill-rule="evenodd"
         clip-rule="evenodd"
         d="M 30.7688,360.915 H 14.2432 V 205.341 H 470.617 V 330.034 H 30.7688 Z"
         fill="#1b6801"
         id="path69198" />
      <path
         d="M 470.617,271.029 H 14.2432 v 26.173 H 470.617 Z"
         fill="#4aac29"
         id="path69200" />
      <path
         d="M 470.617,245.238 H 14.2432 v 26.173 H 470.617 Z"
         fill="#9ee287"
         id="path69202" />
      <path
         d="M 470.617,205.421 H 14.2432 v 39.815 H 470.617 Z"
         fill="#ffffff"
         id="path69204" />
      <path
         d="m 272.359,218.566 c 0,1.265 1.066,2.331 2.331,2.331 1.266,0 2.331,-1.066 2.331,-2.331 v -8.658 c 0,-1.265 -1.065,-2.331 -2.331,-2.331 -1.265,0 -2.331,1.066 -2.331,2.331 z"
         fill="#4aac29"
         id="path69206" />
      <path
         d="m 29.8103,218.566 c 0,1.265 1.0655,2.331 2.3309,2.331 1.2653,0 2.3309,-1.066 2.3309,-2.331 v -8.658 c 0,-1.265 -0.999,-2.331 -2.3309,-2.331 -1.2654,0 -2.3309,1.066 -2.3309,2.331 z"
         fill="#4aac29"
         id="path69208" />
      <path
         d="m 191.51,218.566 c 0,1.265 1.065,2.331 2.331,2.331 1.265,0 2.33,-1.066 2.33,-2.331 v -8.658 c 0,-1.265 -1.065,-2.331 -2.33,-2.331 -1.266,0 -2.331,1.066 -2.331,2.331 z"
         fill="#4aac29"
         id="path69210" />
      <path
         d="m 434.104,218.566 c 0,1.265 1.066,2.331 2.331,2.331 1.266,0 2.331,-1.066 2.331,-2.331 v -8.658 c 0,-1.265 -1.065,-2.331 -2.331,-2.331 -1.265,0 -2.331,1.066 -2.331,2.331 z"
         fill="#4aac29"
         id="path69212" />
      <path
         d="m 110.66,218.566 c 0,1.265 1.065,2.331 2.331,2.331 1.265,0 2.331,-1.066 2.331,-2.331 v -8.658 c 0,-1.265 -1.066,-2.331 -2.331,-2.331 -1.266,0 -2.331,1.066 -2.331,2.331 z"
         fill="#4aac29"
         id="path69214" />
      <path
         d="m 353.255,218.566 c 0,1.265 1.065,2.331 2.33,2.331 1.266,0 2.331,-1.066 2.331,-2.331 v -8.658 c 0,-1.265 -1.065,-2.331 -2.331,-2.331 -1.265,0 -2.33,1.066 -2.33,2.331 z"
         fill="#4aac29"
         id="path69216" />
      <path
         d="M 38.6143,215.25 H 27.0964 v 83.629 h 11.5179 z"
         fill="#1b6801"
         id="path69218" />
      <path
         d="m 119.285,215.25 h -11.518 v 83.629 h 11.518 z"
         fill="#1b6801"
         id="path69220" />
      <path
         d="m 199.955,215.25 h -11.517 v 83.629 h 11.517 z"
         fill="#1b6801"
         id="path69222" />
      <path
         d="m 280.626,215.25 h -11.518 v 83.629 h 11.518 z"
         fill="#1b6801"
         id="path69224" />
      <path
         d="m 361.297,215.25 h -11.518 v 83.629 h 11.518 z"
         fill="#1b6801"
         id="path69226" />
      <path
         d="m 441.8,215.25 h -11.517 v 83.629 H 441.8 Z"
         fill="#1b6801"
         id="path69228" />
      <path
         d="m 10.2505,215.236 0.4237,-9.79 H 467.546 v 9.79 z"
         fill="#161a1e"
         id="path69230" />
      <path
         d="m 134.793,369.253 c -0.826,-4.804 -1.276,-9.684 -1.276,-14.713 0,-45.942 36.182,-83.175 80.847,-83.175 44.666,0 80.773,37.158 80.773,83.1 0,5.029 -0.45,9.984 -1.276,14.713 H 134.793 Z"
         fill="#161a1e"
         id="path69232" />
      <path
         d="m 147.779,369.253 c -0.525,-3.378 -0.75,-6.831 -0.75,-10.36 0,-38.284 30.177,-69.287 67.335,-69.287 37.159,0 67.336,31.003 67.336,69.287 0,3.529 -0.3,6.982 -0.751,10.36 z"
         fill="#1e1616"
         id="path69234" />
      <path
         d="m 150.992,360.931 c 0,35.233 28.533,63.766 63.766,63.766 35.232,0 63.766,-28.533 63.766,-63.766 0,-35.233 -28.534,-63.766 -63.766,-63.766 -35.233,0 -63.766,28.533 -63.766,63.766 z"
         fill="#161a1e"
         id="path69236" />
      <path
         d="m 171.503,360.931 c 0,23.902 19.353,43.255 43.255,43.255 23.902,0 43.255,-19.353 43.255,-43.255 0,-23.902 -19.353,-43.255 -43.255,-43.255 -23.902,0 -43.255,19.353 -43.255,43.255 z"
         fill="#000000"
         id="path69238" />
      <path
         d="m 175.224,360.931 c 0,21.834 17.699,39.45 39.451,39.45 21.752,0 39.533,-17.616 39.533,-39.45 0,-21.835 -17.699,-39.451 -39.45,-39.451 -21.752,0 -39.534,17.616 -39.534,39.451 z"
         fill="#cccbc3"
         id="path69240" />
      <path
         d="m 242.299,346.209 c 2.233,4.135 3.556,8.767 3.722,13.729 h -7.278 c -0.166,-3.639 -1.076,-7.03 -2.73,-10.09 z"
         fill="#444746"
         id="path69242" />
      <path
         d="m 234.938,373.75 6.368,3.639 c -2.563,4.053 -5.954,7.526 -10.09,10.09 l -3.639,-6.368 c 2.978,-1.82 5.459,-4.384 7.361,-7.361 z"
         fill="#444746"
         id="path69244" />
      <path
         d="m 227.577,340.751 3.639,-6.369 c 4.053,2.564 7.527,5.955 10.09,10.09 l -6.368,3.64 c -1.902,-2.978 -4.383,-5.459 -7.361,-7.361 z"
         fill="#444746"
         id="path69246" />
      <path
         d="m 245.938,361.923 c -0.165,4.963 -1.489,9.594 -3.722,13.729 l -6.368,-3.639 c 1.571,-3.06 2.564,-6.451 2.729,-10.09 z"
         fill="#444746"
         id="path69248" />
      <path
         d="m 200.036,333.39 c 4.135,-2.233 8.767,-3.557 13.729,-3.64 v 7.361 c -3.639,0.166 -7.03,1.075 -10.09,2.73 z"
         fill="#444746"
         id="path69250" />
      <path
         d="m 183.495,359.938 c 0.165,-4.962 1.489,-9.594 3.639,-13.729 l 6.368,3.639 c -1.571,3.06 -2.564,6.451 -2.729,10.09 z"
         fill="#444746"
         id="path69252" />
      <path
         d="m 194.578,348.112 -6.369,-3.64 c 2.564,-4.052 5.955,-7.526 10.09,-10.09 l 3.639,6.369 c -2.977,1.902 -5.541,4.383 -7.36,7.361 z"
         fill="#444746"
         id="path69254" />
      <path
         d="m 215.75,329.75 c 4.963,0.166 9.594,1.489 13.729,3.64 l -3.639,6.368 c -3.06,-1.572 -6.451,-2.564 -10.09,-2.729 z"
         fill="#444746"
         id="path69256" />
      <path
         d="m 229.479,388.472 c -4.135,2.233 -8.766,3.556 -13.729,3.639 v -7.278 c 3.639,-0.166 7.03,-1.075 10.09,-2.729 z"
         fill="#444746"
         id="path69258" />
      <path
         d="m 193.502,372.013 -6.368,3.639 c -2.233,-4.135 -3.556,-8.766 -3.639,-13.729 h 7.278 c 0.248,3.639 1.158,7.03 2.729,10.09 z"
         fill="#444746"
         id="path69260" />
      <path
         d="m 201.938,381.111 -3.639,6.368 c -4.052,-2.564 -7.526,-5.955 -10.09,-10.09 l 6.369,-3.639 c 1.819,2.977 4.383,5.541 7.36,7.361 z"
         fill="#444746"
         id="path69262" />
      <path
         d="m 213.765,392.194 c -4.962,-0.165 -9.594,-1.489 -13.729,-3.639 l 3.639,-6.368 c 3.06,1.571 6.451,2.563 10.09,2.729 z"
         fill="#444746"
         id="path69264" />
      <path
         d="m 194.908,360.931 c 0,11 8.85,19.849 19.85,19.849 11,0 19.849,-8.849 19.849,-19.849 0,-11 -8.849,-19.849 -19.849,-19.849 -11,0 -19.85,8.932 -19.85,19.849 z"
         fill="#9c9f9a"
         id="path69266" />
      <path
         d="m 558.154,372.637 c 0,11.804 9.56,21.365 21.365,21.365 11.804,0 21.365,-9.561 21.365,-21.365 0,-11.805 -9.561,-21.366 -21.365,-21.366 -11.805,0 -21.365,9.561 -21.365,21.366 z"
         fill="#161a1e"
         id="path69268" />
      <path
         d="m 565.026,372.636 c 0,8.009 6.484,14.493 14.493,14.493 8.008,0 14.492,-6.484 14.492,-14.493 0,-8.008 -6.484,-14.492 -14.492,-14.492 -8.009,0 -14.493,6.484 -14.493,14.492 z"
         fill="#000000"
         id="path69270" />
      <path
         d="m 566.273,372.637 c 0,7.315 5.93,13.218 13.218,13.218 7.288,0 13.218,-5.931 13.218,-13.218 0,-7.316 -5.93,-13.219 -13.218,-13.219 -7.288,0 -13.218,5.903 -13.218,13.219 z"
         fill="#cccbc3"
         id="path69272" />
      <path
         d="m 588.746,367.704 c 0.748,1.386 1.192,2.937 1.247,4.6 h -2.438 c -0.056,-1.219 -0.361,-2.355 -0.915,-3.381 z"
         fill="#444746"
         id="path69274" />
      <path
         d="m 586.28,376.932 2.134,1.219 c -0.859,1.358 -1.995,2.522 -3.381,3.381 l -1.219,-2.134 c 0.997,-0.637 1.829,-1.469 2.466,-2.466 z"
         fill="#444746"
         id="path69276" />
      <path
         d="m 583.814,365.875 1.219,-2.134 c 1.358,0.859 2.522,1.995 3.381,3.381 l -2.134,1.219 c -0.637,-0.997 -1.469,-1.856 -2.466,-2.466 z"
         fill="#444746"
         id="path69278" />
      <path
         d="m 589.966,372.969 c -0.056,1.663 -0.499,3.215 -1.247,4.6 l -2.134,-1.219 c 0.526,-1.025 0.859,-2.161 0.914,-3.381 z"
         fill="#444746"
         id="path69280" />
      <path
         d="m 574.558,363.409 c 1.386,-0.748 2.938,-1.192 4.6,-1.22 v 2.467 c -1.219,0.055 -2.355,0.36 -3.38,0.914 z"
         fill="#444746"
         id="path69282" />
      <path
         d="m 569.044,372.304 c 0.055,-1.663 0.499,-3.214 1.219,-4.6 l 2.134,1.219 c -0.527,1.026 -0.859,2.162 -0.915,3.381 z"
         fill="#444746"
         id="path69284" />
      <path
         d="m 572.729,368.341 -2.133,-1.219 c 0.859,-1.358 1.995,-2.522 3.38,-3.381 l 1.22,2.134 c -0.97,0.61 -1.829,1.469 -2.467,2.466 z"
         fill="#444746"
         id="path69286" />
      <path
         d="m 579.851,362.162 c 1.663,0.055 3.215,0.498 4.6,1.219 l -1.219,2.134 c -1.026,-0.527 -2.162,-0.859 -3.381,-0.915 z"
         fill="#444746"
         id="path69288" />
      <path
         d="m 584.451,381.864 c -1.385,0.748 -2.937,1.192 -4.6,1.219 v -2.438 c 1.219,-0.055 2.355,-0.36 3.381,-0.915 z"
         fill="#444746"
         id="path69290" />
      <path
         d="m 572.397,376.35 -2.134,1.219 c -0.748,-1.385 -1.191,-2.937 -1.219,-4.6 h 2.438 c 0.084,1.22 0.388,2.356 0.915,3.381 z"
         fill="#444746"
         id="path69292" />
      <path
         d="m 575.223,379.398 -1.219,2.134 c -1.358,-0.859 -2.522,-1.996 -3.381,-3.381 l 2.134,-1.219 c 0.61,0.997 1.469,1.829 2.466,2.466 z"
         fill="#444746"
         id="path69294" />
      <path
         d="m 579.186,383.083 c -1.663,-0.055 -3.214,-0.498 -4.6,-1.219 l 1.219,-2.134 c 1.026,0.527 2.162,0.86 3.381,0.915 z"
         fill="#444746"
         id="path69296" />
      <path
         d="m 572.868,372.636 c 0,3.686 2.965,6.651 6.651,6.651 3.685,0 6.65,-2.965 6.65,-6.651 0,-3.685 -2.965,-6.65 -6.65,-6.65 -3.686,0 -6.651,2.965 -6.651,6.65 z"
         fill="#9c9f9a"
         id="path69298" />
      <path
         d="M 5.99088,60.7145 C 6.37213,60.4199 6.80783,60.3021 7.24355,60.2432 H 14.3238 V 329.189 h 10.8928 c 1.5794,0.236 3.2133,0.118 4.6839,0.707 1.2526,0.472 2.5598,1.414 2.5598,4.655 v 30.812 c -0.1634,0.413 -0.3813,0.766 -0.7081,1.061 -0.2178,0.176 -0.4357,0.294 -0.6535,0.471 h -2.5053 c 0,0 -3.8125,0.766 -9.5312,-1.885 C 13.3435,362.358 4.95606,344.389 4.95606,344.389 L 4.79264,62.8354 C 5.0105,61.9517 5.28286,61.1858 5.99088,60.7145 Z"
         fill="#161a1e"
         id="path69300" />
      <path
         d="m 474.363,205.858 c -0.381,-0.295 -0.817,-0.413 -1.253,-0.472 h -7.08 v 93.498 h -10.893 c -1.579,0.236 -3.213,0.118 -4.683,0.707 -1.253,0.471 -2.56,1.414 -2.56,4.654 v 30.813 c 0.163,0.412 0.381,0.766 0.708,1.06 0.218,0.177 0.435,0.295 0.653,0.472 h 2.506 c 0,0 3.812,0.765 9.531,-1.886 5.718,-2.651 14.106,-20.62 14.106,-20.62 l 0.163,-106.164 c -0.218,-0.825 -0.49,-1.532 -1.198,-2.062 z"
         fill="#161a1e"
         id="path69302" />
      <path
         d="M 674.525,320.413 H 372.287 V 333.6 h 302.238 z"
         fill="#161a1e"
         id="path69304" />
      <path
         d="m 427.799,342.806 93.824,-8.958 -1.254,-13.128 -93.823,8.959 z"
         fill="#161a1e"
         id="path69306" />
      <path
         d="m 429.554,326.923 h -7.512 v 15.858 h 7.512 z"
         fill="#161a1e"
         id="path69308" />
      <path
         fill-rule="evenodd"
         clip-rule="evenodd"
         d="m 608.039,365.146 c 0,0 -21.144,3.051 -29.459,4.187 -1.838,0.227 -3.165,1.928 -2.938,3.767 0.027,0.216 0.053,0.433 0.08,0.649 0.107,0.865 0.552,1.798 1.267,2.259 0.729,0.569 1.635,0.786 2.608,0.666 8.409,-1.258 29.35,-4.174 29.35,-4.174 z"
         fill="#161a1e"
         id="path69310" />
      <path
         fill-rule="evenodd"
         clip-rule="evenodd"
         d="m 612.765,372.978 c 0,0 0.169,-55 0.225,-69.323 0.045,-1.861 -1.496,-3.33 -3.357,-3.374 -1.002,-0.024 -2.004,-0.048 -3.006,-0.072 -0.859,-0.021 -1.871,0.385 -2.458,0.944 -0.732,0.698 -1.039,1.55 -1.06,2.409 -0.059,14.466 -0.222,69.179 -0.222,69.179 z"
         fill="#161a1e"
         id="path69312" />
    </g>
  </g>
</svg>
