<?xml version="1.0" encoding="UTF-8" standalone="no"?>
<svg
   xmlns:dc="http://purl.org/dc/elements/1.1/"
   xmlns:cc="http://creativecommons.org/ns#"
   xmlns:rdf="http://www.w3.org/1999/02/22-rdf-syntax-ns#"
   xmlns:svg="http://www.w3.org/2000/svg"
   xmlns="http://www.w3.org/2000/svg"
   xmlns:sodipodi="http://sodipodi.sourceforge.net/DTD/sodipodi-0.dtd"
   xmlns:inkscape="http://www.inkscape.org/namespaces/inkscape"
   inkscape:version="1.0 (4035a4fb49, 2020-05-01)"
   sodipodi:docname="pickup-truck-8.svg"
   id="svg744"
   version="1.1"
   fill="none"
   viewBox="0 0 142 124"
   height="124"
   width="142">
  <metadata
     id="metadata748">
    <rdf:RDF>
      <cc:Work
         rdf:about="">
        <dc:format>image/svg+xml</dc:format>
        <dc:type
           rdf:resource="http://purl.org/dc/dcmitype/StillImage" />
        <dc:title></dc:title>
      </cc:Work>
    </rdf:RDF>
  </metadata>
  <sodipodi:namedview
     inkscape:current-layer="svg744"
     inkscape:window-maximized="1"
     inkscape:window-y="-8"
     inkscape:window-x="1592"
     inkscape:cy="37.313387"
     inkscape:cx="41.441634"
     inkscape:zoom="2.0869471"
     width="142px"
     lock-margins="true"
     showgrid="false"
     id="namedview746"
     inkscape:window-height="1017"
     inkscape:window-width="1920"
     inkscape:pageshadow="2"
     inkscape:pageopacity="0"
     guidetolerance="10"
     gridtolerance="10"
     objecttolerance="10"
     borderopacity="1"
     bordercolor="#666666"
     pagecolor="#ffffff" />
  <defs
     id="defs742">
    <clipPath
       id="clip0">
      <rect
         y="0"
         x="0"
         id="rect739"
         fill="#ffffff"
         height="575.90002"
         width="673.70001" />
    </clipPath>
    <linearGradient
       id="paint0_linear"
       x1="639.053"
       y1="257.754"
       x2="620.802"
       y2="264.974"
       gradientUnits="userSpaceOnUse">
      <stop
         stop-color="#282828"
         id="stop34559" />
      <stop
         offset="0.3"
         stop-color="#464646"
         id="stop34561" />
      <stop
         offset="0.7"
         stop-color="#A0A0A0"
         id="stop34563" />
      <stop
         offset="1"
         stop-color="white"
         id="stop34565" />
    </linearGradient>
    <linearGradient
       id="paint1_linear"
       x1="548.486"
       y1="132.436"
       x2="548.486"
       y2="16.1419"
       gradientUnits="userSpaceOnUse">
      <stop
         stop-color="#5E595D"
         id="stop34568" />
      <stop
         offset="0.3"
         stop-color="#313035"
         id="stop34570" />
      <stop
         offset="1"
         stop-color="#49484B"
         id="stop34572" />
    </linearGradient>
    <linearGradient
       id="paint2_linear"
       x1="544.347"
       y1="202.606"
       x2="544.347"
       y2="182.896"
       gradientUnits="userSpaceOnUse">
      <stop
         id="stop34575" />
      <stop
         offset="1"
         stop-color="#333333"
         id="stop34577" />
    </linearGradient>
    <linearGradient
       id="paint3_linear"
       x1="530.346"
       y1="36.326"
       x2="530.346"
       y2="-217.703"
       gradientUnits="userSpaceOnUse">
      <stop
         stop-color="#5E595D"
         id="stop34580" />
      <stop
         offset="0.3"
         stop-color="#313035"
         id="stop34582" />
      <stop
         offset="0.6"
         stop-color="#3E3C41"
         id="stop34584" />
      <stop
         offset="0.8"
         stop-color="#5D5B5F"
         id="stop34586" />
      <stop
         offset="1"
         stop-color="#605D60"
         id="stop34588" />
    </linearGradient>
    <linearGradient
       id="paint4_linear"
       x1="536.252"
       y1="182.617"
       x2="536.252"
       y2="126.671"
       gradientUnits="userSpaceOnUse">
      <stop
         stop-color="#5E595D"
         id="stop34591" />
      <stop
         offset="0.3"
         stop-color="#313035"
         id="stop34593" />
      <stop
         offset="1"
         stop-color="#49484B"
         id="stop34595" />
    </linearGradient>
    <linearGradient
       id="paint5_linear"
       x1="647.849"
       y1="334.525"
       x2="638.609"
       y2="338.181"
       gradientUnits="userSpaceOnUse">
      <stop
         stop-color="#FF8000"
         id="stop34598" />
      <stop
         offset="0.3"
         stop-color="#FFA700"
         id="stop34600" />
      <stop
         offset="0.4"
         stop-color="#FFC000"
         id="stop34602" />
      <stop
         offset="1"
         stop-color="#FF8900"
         id="stop34604" />
    </linearGradient>
    <linearGradient
       id="paint6_linear"
       x1="349.194"
       y1="249.787"
       x2="323.183"
       y2="249.787"
       gradientUnits="userSpaceOnUse">
      <stop
         stop-color="#7C7C7C"
         id="stop34607" />
      <stop
         offset="0.6"
         stop-color="#3C3C3C"
         id="stop34609" />
      <stop
         offset="1"
         stop-color="#A8A8A8"
         id="stop34611" />
    </linearGradient>
    <linearGradient
       id="paint7_linear"
       x1="355.801"
       y1="249.791"
       x2="347.778"
       y2="249.763"
       gradientUnits="userSpaceOnUse">
      <stop
         stop-color="#2A2A2A"
         id="stop34614" />
      <stop
         offset="0.3"
         stop-color="#2A2A2A"
         id="stop34616" />
      <stop
         offset="0.7"
         stop-color="#D8D8D8"
         id="stop34618" />
      <stop
         offset="0.8"
         stop-color="#D8D8D8"
         id="stop34620" />
      <stop
         offset="1"
         stop-color="#999999"
         id="stop34622" />
    </linearGradient>
    <radialGradient
       id="paint8_radial"
       cx="0"
       cy="0"
       r="1"
       gradientUnits="userSpaceOnUse"
       gradientTransform="matrix(0,-2.52313,2.15559,0,358.826,262.965)">
      <stop
         stop-color="#9E9E9E"
         id="stop34625" />
      <stop
         offset="0.2"
         stop-color="#E0E0E0"
         id="stop34627" />
      <stop
         offset="0.3"
         stop-color="#F9F9F9"
         id="stop34629" />
      <stop
         offset="0.7"
         stop-color="#F2F2F2"
         id="stop34631" />
      <stop
         offset="0.9"
         stop-color="#D2D2D2"
         id="stop34633" />
      <stop
         offset="1"
         stop-color="#B3B3B3"
         id="stop34635" />
    </radialGradient>
    <linearGradient
       id="paint9_linear"
       x1="435.74"
       y1="250.628"
       x2="435.74"
       y2="232.769"
       gradientUnits="userSpaceOnUse">
      <stop
         stop-color="#7C7C7C"
         id="stop34638" />
      <stop
         offset="0.4"
         stop-color="#7C7C7C"
         id="stop34640" />
      <stop
         offset="0.8"
         stop-color="#EFEFEF"
         id="stop34642" />
      <stop
         offset="1"
         stop-color="#A8A8A8"
         id="stop34644" />
    </linearGradient>
    <linearGradient
       id="paint10_linear"
       x1="435.741"
       y1="254.685"
       x2="435.763"
       y2="248.23"
       gradientUnits="userSpaceOnUse">
      <stop
         stop-color="#999999"
         id="stop34647" />
      <stop
         offset="0.2"
         stop-color="#D8D8D8"
         id="stop34649" />
      <stop
         offset="0.3"
         stop-color="#D8D8D8"
         id="stop34651" />
      <stop
         offset="0.7"
         stop-color="#2A2A2A"
         id="stop34653" />
      <stop
         offset="1"
         stop-color="#2A2A2A"
         id="stop34655" />
    </linearGradient>
    <radialGradient
       id="paint11_radial"
       cx="0"
       cy="0"
       r="1"
       gradientUnits="userSpaceOnUse"
       gradientTransform="matrix(1.73554,0,0,2.03142,425.139,257.125)">
      <stop
         stop-color="#9E9E9E"
         id="stop34658" />
      <stop
         offset="0.2"
         stop-color="#E0E0E0"
         id="stop34660" />
      <stop
         offset="0.3"
         stop-color="#F9F9F9"
         id="stop34662" />
      <stop
         offset="0.7"
         stop-color="#F2F2F2"
         id="stop34664" />
      <stop
         offset="0.9"
         stop-color="#D2D2D2"
         id="stop34666" />
      <stop
         offset="1"
         stop-color="#B3B3B3"
         id="stop34668" />
    </radialGradient>
    <linearGradient
       id="paint12_linear"
       x1="40.2206"
       y1="331.498"
       x2="30.9828"
       y2="335.152"
       gradientUnits="userSpaceOnUse">
      <stop
         stop-color="#FF8000"
         id="stop34671" />
      <stop
         offset="0.3"
         stop-color="#FFA700"
         id="stop34673" />
      <stop
         offset="0.4"
         stop-color="#FFC000"
         id="stop34675" />
      <stop
         offset="1"
         stop-color="#FF8900"
         id="stop34677" />
    </linearGradient>
    <linearGradient
       id="paint13_linear"
       x1="21.7032"
       y1="272.391"
       x2="44.1152"
       y2="272.391"
       gradientUnits="userSpaceOnUse">
      <stop
         stop-color="#DB2A23"
         id="stop34680" />
      <stop
         offset="1"
         stop-color="#FF6962"
         id="stop34682" />
    </linearGradient>
    <clipPath
       id="clip0-3">
      <rect
         width="673.7"
         height="575.9"
         fill="white"
         id="rect34685" />
    </clipPath>
    <clipPath
       id="clip0-1">
      <rect
         width="674.5"
         height="572.5"
         fill="white"
         id="rect43405" />
    </clipPath>
    <clipPath
       id="clip0-19">
      <rect
         y="0"
         x="0"
         id="rect739-8"
         fill="#ffffff"
         height="575.90002"
         width="673.70001" />
    </clipPath>
    <radialGradient
       id="paint8_radial-0"
       cx="0"
       cy="0"
       r="1"
       gradientUnits="userSpaceOnUse"
       gradientTransform="matrix(0,-2.52313,2.15559,0,358.826,262.965)">
      <stop
         stop-color="#9E9E9E"
         id="stop34625-1" />
      <stop
         offset="0.2"
         stop-color="#E0E0E0"
         id="stop34627-3" />
      <stop
         offset="0.3"
         stop-color="#F9F9F9"
         id="stop34629-0" />
      <stop
         offset="0.7"
         stop-color="#F2F2F2"
         id="stop34631-2" />
      <stop
         offset="0.9"
         stop-color="#D2D2D2"
         id="stop34633-2" />
      <stop
         offset="1"
         stop-color="#B3B3B3"
         id="stop34635-5" />
    </radialGradient>
    <radialGradient
       id="paint11_radial-4"
       cx="0"
       cy="0"
       r="1"
       gradientUnits="userSpaceOnUse"
       gradientTransform="matrix(1.73554,0,0,2.03142,425.139,257.125)">
      <stop
         stop-color="#9E9E9E"
         id="stop34658-4" />
      <stop
         offset="0.2"
         stop-color="#E0E0E0"
         id="stop34660-2" />
      <stop
         offset="0.3"
         stop-color="#F9F9F9"
         id="stop34662-9" />
      <stop
         offset="0.7"
         stop-color="#F2F2F2"
         id="stop34664-9" />
      <stop
         offset="0.9"
         stop-color="#D2D2D2"
         id="stop34666-9" />
      <stop
         offset="1"
         stop-color="#B3B3B3"
         id="stop34668-3" />
    </radialGradient>
    <clipPath
       id="clip0-3-1">
      <rect
         width="673.7"
         height="575.9"
         fill="white"
         id="rect34685-6" />
    </clipPath>
    <clipPath
       id="clip0-11">
      <rect
         width="673.7"
         height="575.9"
         fill="white"
         id="rect69061" />
    </clipPath>
    <clipPath
       id="clip0-5">
      <rect
         width="674.5"
         height="572.5"
         fill="white"
         id="rect69316" />
    </clipPath>
    <clipPath
       id="clip0-2">
      <rect
         width="673.7"
         height="575.9"
         fill="white"
         id="rect69571" />
    </clipPath>
    <clipPath
       id="clip0-8">
      <rect
         width="673.7"
         height="575.9"
         fill="white"
         id="rect69856" />
    </clipPath>
  </defs>
  <g
     transform="matrix(0.21077631,0,0,0.21077631,-1.3099765e-6,2.73207)"
     id="g69959"
     style="fill:none">
    <g
       clip-path="url(#clip0-8)"
       id="g69854">
      <path
         d="m 286.273,259.575 c 3.282,0 5.984,-2.638 5.984,-5.984 V 136.99 c 0,-3.282 -2.702,-5.985 -5.984,-5.985 h -19.112 c -3.217,-0.193 -12.548,1.159 -24.324,19.176 -11.261,17.117 -62.355,88.223 -62.869,88.931 -1.931,2.703 -1.287,6.435 1.351,8.301 2.703,1.931 6.435,1.287 8.301,-1.351 2.124,-2.96 51.801,-72.007 63.191,-89.317 5.277,-8.044 9.395,-11.454 11.84,-12.87 1.159,-0.643 1.866,-0.836 2.124,-0.901 h -0.129 l -0.386,-0.064 0.708,0.064 h 13.32 v 110.617 c 0.065,3.282 2.703,5.984 5.985,5.984 z"
         fill="#494d52"
         id="path69676" />
      <path
         d="m 286.273,134.287 h -19.305 c 0,0 -8.88,-0.064 -15.315,8.108 l -64.929,92.47 67.31,-92.534 c 0,0 4.569,-5.47 13.384,-5.92 9.91,-0.451 18.855,-2.124 18.855,-2.124 z"
         fill="#ffffff"
         id="path69678" />
      <path
         d="m 661.494,272.252 c 0,0 5.277,2.317 6.306,7.078 1.03,4.762 1.995,18.34 2.317,23.81 0.322,5.469 -1.866,8.043 -4.762,8.365 z"
         fill="#ee6d22"
         id="path69680" />
      <path
         d="m 663.296,273.282 -0.065,-0.065 z"
         fill="#ee6d22"
         id="path69682" />
      <path
         d="m 663.296,273.475 c 0,-0.065 0,-0.129 0,-0.193 l -0.065,-0.065 c 0,0.129 0.065,0.193 0.065,0.258 z"
         fill="#f99f2e"
         id="path69684" />
      <path
         d="m 315.101,369.806 c 0,3.732 1.738,6.757 3.861,6.757 h 153.924 c 2.123,0 3.861,-3.025 3.861,-6.757 v -12.162 c 0,-3.732 -1.738,-6.757 -3.861,-6.757 H 318.962 c -2.123,0 -3.861,3.025 -3.861,6.757 z"
         fill="#000000"
         id="path69686" />
      <path
         d="m 310.532,374.568 c 0,2.831 1.674,5.083 3.797,5.083 h 163.512 c 2.059,0 3.796,-2.252 3.796,-5.083 0,-2.832 -1.673,-5.084 -3.796,-5.084 H 314.265 c -2.059,0 -3.733,2.252 -3.733,5.084 z"
         fill="#494d52"
         id="path69688" />
      <path
         d="m 310.854,372.508 h 170.397 c -0.514,-1.673 -1.737,-2.831 -3.153,-3.024 h -0.064 -0.064 c 0,0 0,0 -0.065,0 h -0.064 -163.641 -0.064 -0.064 c -1.416,0.064 -2.703,1.287 -3.218,3.024 z"
         fill="#74787c"
         id="path69690" />
      <path
         d="m 286.273,365.237 h 20.334 V 239.884 h -20.334 z"
         fill="#161a1e"
         id="path69692" />
      <path
         d="M 18.2576,367.296 H 293.223 V 238.147 H 18.2576 l -1.8661,30.695 v 40.347 z"
         fill="#4aac29"
         id="path69694" />
      <path
         d="m 16.9706,259.897 0.7078,-11.711 z"
         fill="#4aac29"
         id="path69696" />
      <path
         d="M 40.7799,268.777 H 293.223 v -20.656 h -21.686 v 2.767 c 0,1.223 -1.03,2.252 -2.252,2.252 -1.223,0 -2.253,-1.029 -2.253,-2.252 v -2.767 h -74.066 v 2.767 c 0,1.223 -1.029,2.252 -2.252,2.252 -1.223,0 -2.252,-1.029 -2.252,-2.252 v -2.767 h -74.066 v 2.767 c 0,1.223 -1.03,2.252 -2.253,2.252 -1.222,0 -2.252,-1.029 -2.252,-2.252 v -2.767 H 35.6963 v 2.767 c 0,1.223 -0.9653,2.252 -2.2523,2.252 -1.2226,0 -2.2522,-1.029 -2.2522,-2.252 v -2.767 H 17.6141 l -0.7079,11.712 h 21.7501 c 14.1569,1.094 3.9897,7.786 3.9897,7.786 0,0 -0.7078,0.45 -1.8661,1.158 z"
         fill="#9ee287"
         id="path69698" />
      <path
         d="m 17.4854,250.116 0.4504,-3.153 H 293.223 v 3.153 z"
         fill="#4aac29"
         id="path69700" />
      <path
         d="m 293.223,309.51 v 57.786 H 18.2576 L 16.3915,309.51 Z"
         fill="#1b6801"
         id="path69702" />
      <path
         d="m 293.223,348.57 v 18.79 H 18.2576 l -0.5792,-18.79 z"
         fill="#134901"
         id="path69704" />
      <path
         d="m 295.668,237.568 204.953,11.647 c 0,0 151.735,7.079 160.358,20.399 5.985,4.569 6.628,41.248 6.821,42.985 0,7.98 -0.193,15.959 -0.064,23.938 0.193,15.444 -6.178,15.508 -21.493,31.467 -0.45,0.515 -1.287,0.515 -1.93,0.708 L 295.732,367.296 V 237.568 Z"
         fill="#4aac29"
         id="path69706" />
      <path
         d="m 665.419,310.218 c 0.773,0.515 1.48,1.094 2.317,1.48 0.064,0.258 0.064,0.579 0.129,0.837 0,7.979 -0.193,15.958 -0.065,23.938 0.193,15.444 -6.177,15.508 -21.492,31.467 -0.451,0.514 -1.287,0.514 -1.931,0.707 l -348.581,-1.415 v -57.078 h 369.623 z"
         fill="#1b6801"
         id="path69708" />
      <path
         d="m 295.668,348.57 h 369.687 c -3.089,5.47 -9.202,9.138 -19.112,19.498 -0.45,0.515 -1.287,0.515 -1.93,0.708 L 295.732,367.36 v -18.79 z"
         fill="#134901"
         id="path69710" />
      <path
         d="m 299.271,143.553 c 0.579,-0.386 1.159,-0.708 1.802,-0.965 42.921,-0.965 72.972,0.901 99.613,2.381 25.74,1.415 116.279,126.832 116.279,126.832 L 295.668,269.034 V 149.538 c 0.193,-1.094 0.515,-2.188 0.901,-3.282 0.643,-0.965 1.48,-1.866 2.702,-2.703 z"
         fill="#4aac29"
         id="path69712" />
      <path
         d="m 52.1697,367.94 c -0.7079,-4.119 -1.0939,-8.366 -1.0939,-12.742 0,-39.639 31.2094,-71.685 69.6902,-71.685 38.481,0 69.691,32.111 69.691,71.685 0,4.312 -0.387,8.559 -1.094,12.742 z"
         fill="#161a1e"
         id="path69714" />
      <path
         d="m 63.3665,367.94 c -0.4504,-2.896 -0.6435,-5.921 -0.6435,-8.945 0,-33.011 25.9972,-59.716 58.043,-59.716 32.046,0 58.043,26.769 58.043,59.716 0,3.024 -0.257,6.049 -0.643,8.945 z"
         fill="#000000"
         id="path69716" />
      <path
         d="m 69.6727,381.517 c 0,27.542 22.3292,49.871 49.8703,49.871 27.542,0 49.871,-22.329 49.871,-49.871 0,-27.541 -22.329,-49.871 -49.871,-49.871 -27.5411,0 -49.8703,22.33 -49.8703,49.871 z"
         fill="#2d3132"
         id="path69718" />
      <path
         d="m 69.6727,381.517 c 0,27.542 22.3292,49.871 49.8703,49.871 27.542,0 49.871,-22.329 49.871,-49.871 0,-27.541 -22.329,-49.871 -49.871,-49.871 -27.5411,0 -49.8703,22.33 -49.8703,49.871 z"
         fill="#161a1e"
         id="path69720" />
      <path
         d="m 85.7601,381.517 c 0,18.726 15.1219,33.848 33.8479,33.848 18.726,0 33.848,-15.186 33.848,-33.848 0,-18.661 -15.122,-33.848 -33.848,-33.848 -18.726,0 -33.8479,15.123 -33.8479,33.848 z"
         fill="#000000"
         id="path69722" />
      <path
         d="m 88.6557,381.517 c 0,17.053 13.8353,30.888 30.8873,30.888 17.053,0 30.888,-13.835 30.888,-30.888 0,-17.052 -13.835,-30.888 -30.888,-30.888 -17.052,0 -30.8873,13.836 -30.8873,30.888 z"
         fill="#cccbc3"
         id="path69724" />
      <path
         d="m 141.101,369.999 c 1.737,3.217 2.767,6.885 2.895,10.746 h -5.727 c -0.128,-2.831 -0.836,-5.534 -2.123,-7.915 z"
         fill="#444746"
         id="path69726" />
      <path
         d="m 135.373,391.556 4.955,2.831 c -1.994,3.218 -4.697,5.856 -7.85,7.851 l -2.832,-4.955 c 2.317,-1.48 4.247,-3.411 5.727,-5.727 z"
         fill="#444746"
         id="path69728" />
      <path
         d="m 129.582,365.687 2.831,-4.955 c 3.218,1.995 5.856,4.698 7.851,7.851 l -4.955,2.831 c -1.416,-2.252 -3.346,-4.247 -5.727,-5.727 z"
         fill="#444746"
         id="path69730" />
      <path
         d="m 143.996,382.29 c -0.128,3.861 -1.158,7.528 -2.895,10.746 l -4.955,-2.831 c 1.222,-2.381 1.995,-5.02 2.123,-7.915 z"
         fill="#444746"
         id="path69732" />
      <path
         d="m 108.025,359.96 c 3.217,-1.737 6.885,-2.767 10.746,-2.896 v 5.728 c -2.831,0.128 -5.534,0.836 -7.915,2.123 z"
         fill="#444746"
         id="path69734" />
      <path
         d="m 95.1551,380.745 c 0.1287,-3.861 1.1583,-7.529 2.8957,-10.746 l 4.9552,2.831 c -1.223,2.381 -1.995,5.019 -2.124,7.915 z"
         fill="#444746"
         id="path69736" />
      <path
         d="m 103.778,371.479 -4.955,-2.831 c 1.995,-3.218 4.697,-5.856 7.851,-7.851 l 2.831,4.955 c -2.252,1.415 -4.247,3.41 -5.727,5.727 z"
         fill="#444746"
         id="path69738" />
      <path
         d="m 120.38,357.064 c 3.861,0.129 7.529,1.159 10.746,2.896 l -2.831,4.955 c -2.381,-1.223 -5.019,-1.995 -7.915,-2.123 z"
         fill="#444746"
         id="path69740" />
      <path
         d="m 131.126,403.074 c -3.217,1.737 -6.885,2.767 -10.746,2.896 v -5.727 c 2.831,-0.129 5.534,-0.901 7.915,-2.124 z"
         fill="#444746"
         id="path69742" />
      <path
         d="m 103.006,390.14 -4.9552,2.831 c -1.7374,-3.217 -2.767,-6.885 -2.8957,-10.746 h 5.7269 c 0.129,2.896 0.837,5.598 2.124,7.915 z"
         fill="#444746"
         id="path69744" />
      <path
         d="m 109.569,397.283 -2.831,4.955 c -3.217,-1.995 -5.856,-4.698 -7.8506,-7.851 l 4.9546,-2.831 c 1.416,2.316 3.411,4.247 5.727,5.727 z"
         fill="#444746"
         id="path69746" />
      <path
         d="m 118.771,405.906 c -3.861,-0.129 -7.529,-1.159 -10.746,-2.896 l 2.831,-4.955 c 2.381,1.223 5.02,1.995 7.915,2.124 z"
         fill="#444746"
         id="path69748" />
      <path
         d="m 104.035,381.517 c 0,8.558 6.95,15.508 15.509,15.508 8.558,0 15.508,-6.95 15.508,-15.508 0,-8.558 -6.95,-15.508 -15.508,-15.508 -8.559,0 -15.509,6.885 -15.509,15.508 z"
         fill="#9c9f9a"
         id="path69750" />
      <path
         d="m 523.014,268.069 c -0.064,0 -0.129,0 -0.193,0 z m -0.193,0 -9.138,-0.836 c 0.065,0.064 0.129,0.193 0.194,0.257 3.539,0.193 6.499,0.386 8.944,0.579 z"
         fill="#2e72b9"
         id="path69752" />
      <path
         d="m 295.668,268.777 c 65.7,-0.772 130.886,-1.866 175.738,-1.866 17.76,0 32.303,0.193 42.471,0.58 -0.065,-0.065 -0.129,-0.194 -0.194,-0.258 l -110.938,-9.974 -72.457,-1.223 c -2.574,-0.901 -5.213,-1.801 -7.336,-3.282 -1.158,-0.836 -2.059,-1.801 -2.638,-2.895 l -24.518,-2.188 v 21.106 z"
         fill="#9ee287"
         id="path69754" />
      <path
         d="m 308.538,273.475 v 15.057 c 0,0 0.128,2.96 3.732,1.673 3.603,-1.287 4.247,-1.673 4.247,-1.673 0,0 1.866,-0.386 2.51,-3.346 0.643,-2.96 1.673,-20.399 1.673,-20.399 0,0 0.386,-2.445 -2.381,-6.177 -2.767,-3.732 -7.4,-3.411 -8.559,-2.059 0,0 -0.515,0 -1.029,2.509 -0.515,2.51 -0.193,14.415 -0.193,14.415 z"
         fill="#4aac29"
         id="path69756" />
      <path
         d="m 309.439,260.669 -0.258,25.354 c 0,0 0,2.831 1.802,3.153 1.802,0.386 3.41,-1.158 3.797,-5.084 0.321,-3.861 1.222,-18.661 1.222,-18.661 0,0 0.386,-5.534 -1.802,-7.271 -2.187,-1.674 -4.504,-0.708 -4.761,2.509 z"
         fill="#def6d6"
         id="path69758" />
      <path
         d="m 266.968,250.888 c 0,1.223 1.03,2.252 2.252,2.252 1.223,0 2.252,-1.029 2.252,-2.252 v -8.43 c 0,-1.222 -1.029,-2.252 -2.252,-2.252 -1.222,0 -2.252,1.03 -2.252,2.252 z"
         fill="#4aac29"
         id="path69760" />
      <path
         d="m 31.1918,250.888 c 0,1.223 1.0296,2.252 2.2522,2.252 1.287,0 2.2522,-1.029 2.2522,-2.252 v -8.43 c 0,-1.222 -0.9652,-2.252 -2.2522,-2.252 -1.2226,0 -2.2522,1.03 -2.2522,2.252 z"
         fill="#4aac29"
         id="path69762" />
      <path
         d="m 188.397,250.888 c 0,1.223 1.03,2.252 2.253,2.252 1.222,0 2.252,-1.029 2.252,-2.252 v -8.43 c 0,-1.222 -1.03,-2.252 -2.252,-2.252 -1.223,0 -2.253,1.03 -2.253,2.252 z"
         fill="#4aac29"
         id="path69764" />
      <path
         d="m 109.827,250.888 c 0,1.223 1.029,2.252 2.252,2.252 1.223,0 2.252,-1.029 2.252,-2.252 v -8.43 c 0,-1.222 -1.029,-2.252 -2.252,-2.252 -1.223,0 -2.252,1.03 -2.252,2.252 z"
         fill="#4aac29"
         id="path69766" />
      <path
         d="m 16.1984,247.671 2.0592,-9.524 H 293.223 v 9.524 z"
         fill="#4aac29"
         id="path69768" />
      <path
         d="M 17.9359,239.627 H 293.223 v -1.544 H 18.2576 Z"
         fill="#317abf"
         id="path69770" />
      <path
         d="m 1.46243,331.196 c 0.45045,-0.322 0.9652,-0.45 1.47999,-0.515 H 24.3064 c 1.8662,0.258 3.7966,0.129 5.5984,0.772 1.4801,0.515 3.0245,1.545 3.0245,5.084 v 33.912 c -0.1931,0.451 -0.4505,0.837 -0.8366,1.158 -0.2574,0.193 -0.5148,0.386 -0.7722,0.515 h -2.9601 c 0,0 -4.5044,0.837 -11.3898,-2.059 -6.821,-2.896 -16.730823,-22.715 -16.730823,-22.715 l -0.1930775,-13.9 C 0.304096,332.547 0.690239,331.711 1.46243,331.196 Z"
         fill="#161a1e"
         id="path69772" />
      <path
         d="m 607.698,332.483 c 1.287,-1.48 4.183,-1.802 4.183,-1.802 h 59.394 c 0.451,0.065 0.837,0.193 1.223,0.515 0.643,0.579 0.965,1.351 1.222,2.188 l -0.128,13.899 c 0,0 -8.044,19.756 -13.578,22.716 -5.534,2.895 -9.202,2.059 -9.202,2.059 h -41.377 c -1.094,-0.644 -1.994,-1.802 -2.252,-3.475 l 0.515,-0.515 c 2.574,-11.518 3.539,-20.334 0,-35.585 z"
         fill="#161a1e"
         id="path69774" />
      <path
         d="m 609.821,345.675 c -0.257,-3.926 -0.965,-8.173 -2.123,-13.128 1.158,4.891 1.802,9.202 2.123,13.128 z"
         fill="#185dab"
         id="path69776" />
      <path
         d="m 609.821,345.675 h 63.771 l 0.128,-12.291 c -0.257,-0.837 -0.514,-1.673 -1.222,-2.188 -0.322,-0.322 -0.772,-0.45 -1.223,-0.515 h -59.459 c 0,0 -2.831,0.322 -4.182,1.802 1.222,4.955 1.866,9.266 2.187,13.192 z"
         fill="#363a3c"
         id="path69778" />
      <path
         d="M 0.175449,345.675 H 32.9293 v -9.138 c 0,-3.539 -1.5444,-4.569 -3.0245,-5.084 -1.7374,-0.643 -3.7322,-0.514 -5.5984,-0.772 H 2.94242 c -0.51479,0.065 -1.09389,0.193 -1.47999,0.515 -0.772187,0.579 -1.158315,1.351 -1.4800615,2.188 z"
         fill="#363a3c"
         id="path69780" />
      <path
         d="M 38.7207,259.897 H 16.9706 c 0,0 -1.48,0.579 -1.6731,2.188 -0.193,1.609 0,18.532 0,18.532 0,0 -0.2574,1.287 1.1583,1.481 1.4157,0.193 26.2546,-14.35 26.2546,-14.35 0,0 10.1028,-6.757 -3.9897,-7.851 z"
         fill="#4aac29"
         id="path69782" />
      <path
         d="m 17.228,278.43 c 1.4157,0 22.0075,-12.034 22.0075,-12.034 0,0 8.4941,-5.598 -3.3462,-6.563 H 17.6784 c 0,0 -1.287,0.45 -1.4157,1.801 -0.1287,1.352 0,15.509 0,15.509 0,0 -0.2574,1.093 0.9653,1.287 z"
         fill="#ab665c"
         id="path69784" />
      <path
         d="m 29.0039,277.272 -13.0629,6.563 c 0,0 -0.7079,0.322 -0.7722,1.673 v 9.267 c 0,0 -0.1931,1.158 0.9652,1.351 1.2227,0.193 11.5829,-8.751 11.5829,-8.751 0,0 1.2227,-1.03 1.7375,-2.768 0.5148,-1.737 1.2226,-5.727 1.2226,-5.727 0,0 0.6435,-2.767 -1.6731,-1.608 z"
         fill="#1a4ca1"
         id="path69786" />
      <path
         d="m 25.7221,279.523 -9.9741,5.02 c 0,0 -0.5792,0.257 -0.5792,1.222 v 7.079 c 0,0 -0.193,0.836 0.7079,1.029 0.9009,0.129 8.8158,-6.692 8.8158,-6.692 0,0 0.9653,-0.772 1.3514,-2.124 0.3861,-1.351 0.9009,-4.375 0.9009,-4.375 0,0 0.5791,-2.059 -1.2227,-1.159 z"
         fill="#ee6d22"
         id="path69788" />
      <path
         d="m 15.2976,263.243 c 0,-0.579 0.0643,-1.03 0.0643,-1.223 0.1931,-1.608 1.6731,-2.187 1.6731,-2.187 h 21.7501 c 5.8558,0.45 7.5932,1.866 7.5289,3.41 z"
         fill="#4aac29"
         id="path69790" />
      <path
         d="m 30.7414,277.979 c 0,0 0.0643,0 0.0643,-0.064 0,-0.45 -0.193,-0.901 -0.7722,-0.901 h -0.0643 c 0.5791,0 0.7722,0.515 0.7722,0.965 z"
         fill="#4c81c2"
         id="path69792" />
      <path
         d="m 15.2331,285.444 c 0.1287,-0.708 0.5148,-0.901 0.5148,-0.901 l 9.9742,-5.02 c 0.3217,-0.128 0.5791,-0.193 0.7722,-0.193 0.7078,0 0.5791,1.03 0.5791,1.287 1.2226,-0.901 2.4453,-1.737 3.6679,-2.574 0,-0.45 -0.193,-0.965 -0.7722,-0.965 -0.2574,0 -0.5147,0.129 -0.9008,0.322 l -13.063,6.563 c 0,-0.064 -0.7078,0.194 -0.7722,1.481 z"
         fill="#4867b0"
         id="path69794" />
      <path
         d="m 15.2332,289.112 c 1.9304,-1.352 3.8609,-2.767 5.7914,-4.119 2.0592,-1.415 3.9896,-2.96 6.0488,-4.44 0.0644,-0.322 0.1931,-1.287 -0.5791,-1.287 -0.1931,0 -0.4505,0.064 -0.7722,0.193 l -9.9742,5.019 c 0,0 -0.4504,0.193 -0.5147,0.901 z"
         fill="#f19259"
         id="path69796" />
      <path
         d="m 500.621,367.94 c -0.708,-4.119 -1.094,-8.366 -1.094,-12.742 0,-39.639 31.209,-71.685 69.69,-71.685 38.481,0 69.69,32.111 69.69,71.685 0,4.312 -0.386,8.559 -1.094,12.742 z"
         fill="#161a1e"
         id="path69798" />
      <path
         d="m 511.882,367.94 c -0.451,-2.896 -0.644,-5.921 -0.644,-8.945 0,-33.011 25.997,-59.716 58.043,-59.716 32.046,0 58.044,26.769 58.044,59.716 0,3.024 -0.258,6.049 -0.644,8.945 z"
         fill="#000000"
         id="path69800" />
      <path
         d="m 518.188,381.517 c 0,27.542 22.329,49.871 49.871,49.871 27.541,0 49.871,-22.329 49.871,-49.871 0,-27.541 -22.33,-49.871 -49.871,-49.871 -27.542,0 -49.871,22.33 -49.871,49.871 z"
         fill="#2d3132"
         id="path69802" />
      <path
         d="m 518.188,381.517 c 0,27.542 22.329,49.871 49.871,49.871 27.541,0 49.871,-22.329 49.871,-49.871 0,-27.541 -22.33,-49.871 -49.871,-49.871 -27.542,0 -49.871,22.33 -49.871,49.871 z"
         fill="#161a1e"
         id="path69804" />
      <path
         d="m 534.211,381.517 c 0,18.726 15.122,33.848 33.848,33.848 18.661,0 33.847,-15.122 33.847,-33.848 0,-18.661 -15.122,-33.848 -33.847,-33.848 -18.662,0 -33.848,15.123 -33.848,33.848 z"
         fill="#000000"
         id="path69806" />
      <path
         d="m 537.171,381.518 c 0,17.052 13.835,30.887 30.888,30.887 17.052,0 30.887,-13.835 30.887,-30.887 0,-17.053 -13.835,-30.888 -30.887,-30.888 -17.053,0 -30.888,13.835 -30.888,30.888 z"
         fill="#cccbc3"
         id="path69808" />
      <path
         d="m 589.616,369.999 c 1.737,3.217 2.767,6.885 2.895,10.746 h -5.727 c -0.128,-2.831 -0.836,-5.534 -2.123,-7.915 z"
         fill="#444746"
         id="path69810" />
      <path
         d="m 583.889,391.556 4.955,2.831 c -1.995,3.218 -4.698,5.856 -7.851,7.851 l -2.831,-4.955 c 2.252,-1.48 4.247,-3.411 5.727,-5.727 z"
         fill="#444746"
         id="path69812" />
      <path
         d="m 578.097,365.687 2.832,-4.955 c 3.217,1.995 5.855,4.698 7.85,7.851 l -4.955,2.831 c -1.415,-2.252 -3.41,-4.247 -5.727,-5.727 z"
         fill="#444746"
         id="path69814" />
      <path
         d="m 592.511,382.29 c -0.128,3.861 -1.158,7.528 -2.895,10.746 l -4.955,-2.831 c 1.222,-2.381 1.995,-5.02 2.123,-7.915 z"
         fill="#444746"
         id="path69816" />
      <path
         d="m 556.54,359.96 c 3.218,-1.737 6.886,-2.767 10.747,-2.896 v 5.728 c -2.832,0.128 -5.535,0.836 -7.915,2.123 z"
         fill="#444746"
         id="path69818" />
      <path
         d="m 543.67,380.745 c 0.129,-3.861 1.159,-7.529 2.896,-10.746 l 4.955,2.831 c -1.223,2.381 -1.995,5.02 -2.124,7.915 z"
         fill="#444746"
         id="path69820" />
      <path
         d="m 552.293,371.479 -4.955,-2.831 c 1.995,-3.218 4.698,-5.856 7.851,-7.851 l 2.831,4.955 c -2.316,1.415 -4.247,3.41 -5.727,5.727 z"
         fill="#444746"
         id="path69822" />
      <path
         d="m 568.895,357.064 c 3.861,0.129 7.529,1.159 10.747,2.896 l -2.832,4.955 c -2.381,-1.223 -5.019,-1.995 -7.915,-2.123 z"
         fill="#444746"
         id="path69824" />
      <path
         d="m 579.642,403.075 c -3.218,1.737 -6.886,2.767 -10.747,2.895 v -5.727 c 2.832,-0.129 5.534,-0.901 7.915,-2.123 z"
         fill="#444746"
         id="path69826" />
      <path
         d="m 551.457,390.14 -4.955,2.831 c -1.738,-3.217 -2.767,-6.885 -2.896,-10.746 h 5.727 c 0.193,2.896 0.901,5.598 2.124,7.915 z"
         fill="#444746"
         id="path69828" />
      <path
         d="m 558.02,397.283 -2.831,4.955 c -3.218,-1.995 -5.856,-4.698 -7.851,-7.851 l 4.955,-2.831 c 1.48,2.316 3.411,4.247 5.727,5.727 z"
         fill="#444746"
         id="path69830" />
      <path
         d="m 567.287,405.906 c -3.861,-0.129 -7.529,-1.159 -10.747,-2.896 l 2.832,-4.955 c 2.38,1.223 5.019,1.995 7.915,2.124 z"
         fill="#444746"
         id="path69832" />
      <path
         d="m 552.551,381.518 c 0,8.558 6.949,15.508 15.508,15.508 8.558,0 15.508,-6.95 15.508,-15.508 0,-8.559 -6.95,-15.509 -15.508,-15.509 -8.559,0 -15.508,6.886 -15.508,15.509 z"
         fill="#9c9f9a"
         id="path69834" />
      <path
         d="m 322.888,252.819 c -2.767,-1.866 -3.733,-4.698 -4.054,-7.722 0,-16.087 0.45,-46.846 1.415,-70.591 l 0.129,-0.322 c 0.064,-0.837 0.064,-1.738 0,-2.638 0.193,-3.926 0.322,-7.594 0.579,-10.94 0.064,-0.193 0.129,-0.45 0.257,-0.643 1.416,-3.54 4.505,-4.505 7.851,-5.02 20.528,0.451 71.171,-1.158 82.11,6.242 0,0 6.757,0.258 33.848,32.497 l 44.594,54.89 c 0,0 1.158,9.716 -17.825,9.91 l -141.44,-2.381 c -2.703,-0.901 -5.277,-1.802 -7.464,-3.282 z"
         fill="#161a1e"
         id="path69836" />
      <path
         d="m 391.548,161.442 c 0,0 16.216,-0.257 22.909,5.985 6.692,6.177 60.295,70.72 60.295,70.72 0,0 11.197,12.291 1.995,15.379 l -125.739,-3.41 c 0,0 -19.112,2.316 -19.112,-7.207 0,-9.524 2.896,-72.586 2.896,-72.586 0,0 -0.965,-11.197 9.524,-11.004 z"
         fill="#02384a"
         id="path69838" />
      <path
         d="m 476.811,253.526 c 8.494,-2.895 -0.386,-13.577 -1.802,-15.186 1.352,1.609 10.296,12.291 1.802,15.186 z m -0.128,0 h -1.03 z"
         fill="#2c2f30"
         id="path69840" />
      <path
         d="m 476.811,253.526 c 8.494,-2.895 -0.386,-13.577 -1.802,-15.186 -0.128,-0.129 -0.193,-0.193 -0.193,-0.193 0,0 -53.603,-64.478 -60.295,-70.72 -6.242,-5.792 -20.656,-5.985 -22.715,-5.985 h -0.258 l -47.296,-2.123 c -0.129,0 -0.194,0 -0.322,0 -8.559,0 -9.267,7.85 -9.267,10.296 0,0.45 0,0.708 0,0.708 0,0.45 -0.772,17.76 -1.544,35.456 12.355,1.48 24.646,3.475 36.744,6.049 37.129,7.722 73.937,20.913 105.79,41.634 h 1.03 z"
         fill="#005167"
         id="path69842" />
      <path
         d="m 632.73,306.1 c 4.697,-0.129 29.214,-0.708 28.764,0.836 -0.837,2.767 -2.059,3.99 -2.059,3.99 l -25.354,0.257 c -1.222,-0.193 -2.702,-5.019 -1.351,-5.083 z"
         fill="#ee6d22"
         id="path69844" />
      <path
         d="m 641.674,310.476 17.825,-0.193 c 0,0 0.901,-0.901 1.48,-2.832 0.193,-0.579 -4.89,-0.772 -10.038,-0.772 -4.312,0 -8.687,0.129 -10.167,0.129 -0.966,0.064 0.064,3.475 0.9,3.668 z"
         fill="#f78d25"
         id="path69846" />
      <path
         d="m 483.246,241.943 11.39,7.529 c 0,0 5.212,3.668 1.416,7.593 0,0 -1.802,2.06 -6.564,2.188 -4.762,0.129 -14.672,-2.188 -14.672,-2.188 z"
         fill="#000000"
         id="path69848" />
      <path
         d="m 456.091,235.831 c 3.024,-6.5 11.776,-5.985 11.776,-5.985 6.563,0.386 15.444,4.505 19.111,9.974 4.312,6.306 3.733,20.463 -4.311,19.305 -9.266,-1.351 -5.727,-0.386 -20.656,-3.732 -3.861,-0.901 -9.588,-11.647 -5.92,-19.562 z"
         fill="#def6d6"
         id="path69850" />
      <path
         d="m 466.902,251.467 c 11.518,2.574 8.815,1.802 15.894,2.896 6.177,0.901 6.628,-9.974 3.282,-14.865 -2.832,-4.182 -9.653,-7.4 -14.736,-7.657 0,0 -6.757,-0.386 -9.074,4.569 -2.767,6.049 1.673,14.35 4.634,15.057 z m -10.811,-15.636 c 3.024,-6.5 11.776,-5.985 11.776,-5.985 6.563,0.386 15.444,4.505 19.111,9.974 4.312,6.306 3.733,20.463 -4.311,19.305 -9.266,-1.351 -5.727,-0.386 -20.656,-3.732 -3.861,-0.901 -9.588,-11.647 -5.92,-19.562 z"
         fill="#4aac29"
         id="path69852" />
    </g>
  </g>
</svg>
