<?xml version="1.0" encoding="UTF-8" standalone="no"?>
<svg
   xmlns:dc="http://purl.org/dc/elements/1.1/"
   xmlns:cc="http://creativecommons.org/ns#"
   xmlns:rdf="http://www.w3.org/1999/02/22-rdf-syntax-ns#"
   xmlns:svg="http://www.w3.org/2000/svg"
   xmlns="http://www.w3.org/2000/svg"
   xmlns:sodipodi="http://sodipodi.sourceforge.net/DTD/sodipodi-0.dtd"
   xmlns:inkscape="http://www.inkscape.org/namespaces/inkscape"
   inkscape:version="1.0 (4035a4fb49, 2020-05-01)"
   sodipodi:docname="pickup-truck.svg"
   id="svg744"
   version="1.1"
   fill="none"
   viewBox="0 0 142 124"
   height="124"
   width="142">
  <metadata
     id="metadata748">
    <rdf:RDF>
      <cc:Work
         rdf:about="">
        <dc:format>image/svg+xml</dc:format>
        <dc:type
           rdf:resource="http://purl.org/dc/dcmitype/StillImage" />
        <dc:title></dc:title>
      </cc:Work>
    </rdf:RDF>
  </metadata>
  <sodipodi:namedview
     inkscape:current-layer="svg744"
     inkscape:window-maximized="1"
     inkscape:window-y="-8"
     inkscape:window-x="1592"
     inkscape:cy="37.313387"
     inkscape:cx="41.441634"
     inkscape:zoom="2.0869471"
     width="142px"
     lock-margins="true"
     showgrid="false"
     id="namedview746"
     inkscape:window-height="1017"
     inkscape:window-width="1920"
     inkscape:pageshadow="2"
     inkscape:pageopacity="0"
     guidetolerance="10"
     gridtolerance="10"
     objecttolerance="10"
     borderopacity="1"
     bordercolor="#666666"
     pagecolor="#ffffff" />
  <defs
     id="defs742">
    <clipPath
       id="clip0">
      <rect
         y="0"
         x="0"
         id="rect739"
         fill="#ffffff"
         height="575.90002"
         width="673.70001" />
    </clipPath>
    <linearGradient
       id="paint0_linear"
       x1="639.053"
       y1="257.754"
       x2="620.802"
       y2="264.974"
       gradientUnits="userSpaceOnUse">
      <stop
         stop-color="#282828"
         id="stop34559" />
      <stop
         offset="0.3"
         stop-color="#464646"
         id="stop34561" />
      <stop
         offset="0.7"
         stop-color="#A0A0A0"
         id="stop34563" />
      <stop
         offset="1"
         stop-color="white"
         id="stop34565" />
    </linearGradient>
    <linearGradient
       id="paint1_linear"
       x1="548.486"
       y1="132.436"
       x2="548.486"
       y2="16.1419"
       gradientUnits="userSpaceOnUse">
      <stop
         stop-color="#5E595D"
         id="stop34568" />
      <stop
         offset="0.3"
         stop-color="#313035"
         id="stop34570" />
      <stop
         offset="1"
         stop-color="#49484B"
         id="stop34572" />
    </linearGradient>
    <linearGradient
       id="paint2_linear"
       x1="544.347"
       y1="202.606"
       x2="544.347"
       y2="182.896"
       gradientUnits="userSpaceOnUse">
      <stop
         id="stop34575" />
      <stop
         offset="1"
         stop-color="#333333"
         id="stop34577" />
    </linearGradient>
    <linearGradient
       id="paint3_linear"
       x1="530.346"
       y1="36.326"
       x2="530.346"
       y2="-217.703"
       gradientUnits="userSpaceOnUse">
      <stop
         stop-color="#5E595D"
         id="stop34580" />
      <stop
         offset="0.3"
         stop-color="#313035"
         id="stop34582" />
      <stop
         offset="0.6"
         stop-color="#3E3C41"
         id="stop34584" />
      <stop
         offset="0.8"
         stop-color="#5D5B5F"
         id="stop34586" />
      <stop
         offset="1"
         stop-color="#605D60"
         id="stop34588" />
    </linearGradient>
    <linearGradient
       id="paint4_linear"
       x1="536.252"
       y1="182.617"
       x2="536.252"
       y2="126.671"
       gradientUnits="userSpaceOnUse">
      <stop
         stop-color="#5E595D"
         id="stop34591" />
      <stop
         offset="0.3"
         stop-color="#313035"
         id="stop34593" />
      <stop
         offset="1"
         stop-color="#49484B"
         id="stop34595" />
    </linearGradient>
    <linearGradient
       id="paint5_linear"
       x1="647.849"
       y1="334.525"
       x2="638.609"
       y2="338.181"
       gradientUnits="userSpaceOnUse">
      <stop
         stop-color="#FF8000"
         id="stop34598" />
      <stop
         offset="0.3"
         stop-color="#FFA700"
         id="stop34600" />
      <stop
         offset="0.4"
         stop-color="#FFC000"
         id="stop34602" />
      <stop
         offset="1"
         stop-color="#FF8900"
         id="stop34604" />
    </linearGradient>
    <linearGradient
       id="paint6_linear"
       x1="349.194"
       y1="249.787"
       x2="323.183"
       y2="249.787"
       gradientUnits="userSpaceOnUse">
      <stop
         stop-color="#7C7C7C"
         id="stop34607" />
      <stop
         offset="0.6"
         stop-color="#3C3C3C"
         id="stop34609" />
      <stop
         offset="1"
         stop-color="#A8A8A8"
         id="stop34611" />
    </linearGradient>
    <linearGradient
       id="paint7_linear"
       x1="355.801"
       y1="249.791"
       x2="347.778"
       y2="249.763"
       gradientUnits="userSpaceOnUse">
      <stop
         stop-color="#2A2A2A"
         id="stop34614" />
      <stop
         offset="0.3"
         stop-color="#2A2A2A"
         id="stop34616" />
      <stop
         offset="0.7"
         stop-color="#D8D8D8"
         id="stop34618" />
      <stop
         offset="0.8"
         stop-color="#D8D8D8"
         id="stop34620" />
      <stop
         offset="1"
         stop-color="#999999"
         id="stop34622" />
    </linearGradient>
    <radialGradient
       id="paint8_radial"
       cx="0"
       cy="0"
       r="1"
       gradientUnits="userSpaceOnUse"
       gradientTransform="matrix(0,-2.52313,2.15559,0,358.826,262.965)">
      <stop
         stop-color="#9E9E9E"
         id="stop34625" />
      <stop
         offset="0.2"
         stop-color="#E0E0E0"
         id="stop34627" />
      <stop
         offset="0.3"
         stop-color="#F9F9F9"
         id="stop34629" />
      <stop
         offset="0.7"
         stop-color="#F2F2F2"
         id="stop34631" />
      <stop
         offset="0.9"
         stop-color="#D2D2D2"
         id="stop34633" />
      <stop
         offset="1"
         stop-color="#B3B3B3"
         id="stop34635" />
    </radialGradient>
    <linearGradient
       id="paint9_linear"
       x1="435.74"
       y1="250.628"
       x2="435.74"
       y2="232.769"
       gradientUnits="userSpaceOnUse">
      <stop
         stop-color="#7C7C7C"
         id="stop34638" />
      <stop
         offset="0.4"
         stop-color="#7C7C7C"
         id="stop34640" />
      <stop
         offset="0.8"
         stop-color="#EFEFEF"
         id="stop34642" />
      <stop
         offset="1"
         stop-color="#A8A8A8"
         id="stop34644" />
    </linearGradient>
    <linearGradient
       id="paint10_linear"
       x1="435.741"
       y1="254.685"
       x2="435.763"
       y2="248.23"
       gradientUnits="userSpaceOnUse">
      <stop
         stop-color="#999999"
         id="stop34647" />
      <stop
         offset="0.2"
         stop-color="#D8D8D8"
         id="stop34649" />
      <stop
         offset="0.3"
         stop-color="#D8D8D8"
         id="stop34651" />
      <stop
         offset="0.7"
         stop-color="#2A2A2A"
         id="stop34653" />
      <stop
         offset="1"
         stop-color="#2A2A2A"
         id="stop34655" />
    </linearGradient>
    <radialGradient
       id="paint11_radial"
       cx="0"
       cy="0"
       r="1"
       gradientUnits="userSpaceOnUse"
       gradientTransform="matrix(1.73554,0,0,2.03142,425.139,257.125)">
      <stop
         stop-color="#9E9E9E"
         id="stop34658" />
      <stop
         offset="0.2"
         stop-color="#E0E0E0"
         id="stop34660" />
      <stop
         offset="0.3"
         stop-color="#F9F9F9"
         id="stop34662" />
      <stop
         offset="0.7"
         stop-color="#F2F2F2"
         id="stop34664" />
      <stop
         offset="0.9"
         stop-color="#D2D2D2"
         id="stop34666" />
      <stop
         offset="1"
         stop-color="#B3B3B3"
         id="stop34668" />
    </radialGradient>
    <linearGradient
       id="paint12_linear"
       x1="40.2206"
       y1="331.498"
       x2="30.9828"
       y2="335.152"
       gradientUnits="userSpaceOnUse">
      <stop
         stop-color="#FF8000"
         id="stop34671" />
      <stop
         offset="0.3"
         stop-color="#FFA700"
         id="stop34673" />
      <stop
         offset="0.4"
         stop-color="#FFC000"
         id="stop34675" />
      <stop
         offset="1"
         stop-color="#FF8900"
         id="stop34677" />
    </linearGradient>
    <linearGradient
       id="paint13_linear"
       x1="21.7032"
       y1="272.391"
       x2="44.1152"
       y2="272.391"
       gradientUnits="userSpaceOnUse">
      <stop
         stop-color="#DB2A23"
         id="stop34680" />
      <stop
         offset="1"
         stop-color="#FF6962"
         id="stop34682" />
    </linearGradient>
    <clipPath
       id="clip0-3">
      <rect
         width="673.7"
         height="575.9"
         fill="white"
         id="rect34685" />
    </clipPath>
    <clipPath
       id="clip0-1">
      <rect
         width="674.5"
         height="572.5"
         fill="white"
         id="rect43405" />
    </clipPath>
    <clipPath
       id="clip0-19">
      <rect
         y="0"
         x="0"
         id="rect739-8"
         fill="#ffffff"
         height="575.90002"
         width="673.70001" />
    </clipPath>
    <radialGradient
       id="paint8_radial-0"
       cx="0"
       cy="0"
       r="1"
       gradientUnits="userSpaceOnUse"
       gradientTransform="matrix(0,-2.52313,2.15559,0,358.826,262.965)">
      <stop
         stop-color="#9E9E9E"
         id="stop34625-1" />
      <stop
         offset="0.2"
         stop-color="#E0E0E0"
         id="stop34627-3" />
      <stop
         offset="0.3"
         stop-color="#F9F9F9"
         id="stop34629-0" />
      <stop
         offset="0.7"
         stop-color="#F2F2F2"
         id="stop34631-2" />
      <stop
         offset="0.9"
         stop-color="#D2D2D2"
         id="stop34633-2" />
      <stop
         offset="1"
         stop-color="#B3B3B3"
         id="stop34635-5" />
    </radialGradient>
    <radialGradient
       id="paint11_radial-4"
       cx="0"
       cy="0"
       r="1"
       gradientUnits="userSpaceOnUse"
       gradientTransform="matrix(1.73554,0,0,2.03142,425.139,257.125)">
      <stop
         stop-color="#9E9E9E"
         id="stop34658-4" />
      <stop
         offset="0.2"
         stop-color="#E0E0E0"
         id="stop34660-2" />
      <stop
         offset="0.3"
         stop-color="#F9F9F9"
         id="stop34662-9" />
      <stop
         offset="0.7"
         stop-color="#F2F2F2"
         id="stop34664-9" />
      <stop
         offset="0.9"
         stop-color="#D2D2D2"
         id="stop34666-9" />
      <stop
         offset="1"
         stop-color="#B3B3B3"
         id="stop34668-3" />
    </radialGradient>
    <clipPath
       id="clip0-3-1">
      <rect
         width="673.7"
         height="575.9"
         fill="white"
         id="rect34685-6" />
    </clipPath>
    <clipPath
       id="clip0-11">
      <rect
         width="673.7"
         height="575.9"
         fill="white"
         id="rect69061" />
    </clipPath>
    <clipPath
       id="clip0-5">
      <rect
         width="674.5"
         height="572.5"
         fill="white"
         id="rect69316" />
    </clipPath>
    <clipPath
       id="clip0-2">
      <rect
         width="673.7"
         height="575.9"
         fill="white"
         id="rect69571" />
    </clipPath>
  </defs>
  <g
     transform="matrix(0.21077631,0,0,0.21077631,-1.3099765e-6,0.37939997)"
     id="g69674"
     style="fill:none">
    <g
       clip-path="url(#clip0-2)"
       id="g69569">
      <path
         d="M 287.884,377.305 H 308.33 V 251.266 h -20.446 z"
         fill="#260004"
         id="path69391" />
      <path
         d="M 18.3359,379.375 H 294.742 V 249.454 H 18.3359 l -1.8763,30.862 v 40.569 z"
         fill="#4aac29"
         id="path69393" />
      <path
         d="m 17.0418,271.323 0.7117,-11.776 z"
         fill="#ee6256"
         id="path69395" />
      <path
         d="M 40.9816,280.317 H 294.807 v -20.77 h -21.805 v 2.783 c 0,1.229 -1.035,2.264 -2.264,2.264 -1.229,0 -2.265,-1.035 -2.265,-2.264 v -2.783 h -74.536 v 2.783 c 0,1.229 -1.035,2.264 -2.265,2.264 -1.229,0 -2.264,-1.035 -2.264,-2.264 v -2.783 h -74.472 v 2.783 c 0,1.229 -1.035,2.264 -2.265,2.264 -1.229,0 -2.264,-1.035 -2.264,-2.264 v -2.783 H 35.9348 v 2.783 c 0,1.229 -1.0352,2.264 -2.2645,2.264 -1.2294,0 -2.2646,-1.035 -2.2646,-2.264 v -2.783 H 17.7536 l -0.7117,11.776 h 21.9339 c 5.8879,0.453 7.5701,1.876 7.5701,3.429 h -0.0647 c -0.0647,2.135 -3.5586,4.465 -3.5586,4.465 0,0 -0.7117,0.388 -1.941,1.1 z"
         fill="#9ee287"
         id="path69397" />
      <path
         d="m 17.5595,261.553 0.4529,-3.17 H 294.807 v 3.17 z"
         fill="#def6d6"
         id="path69399" />
      <path
         d="M 294.807,321.208 V 379.31 H 18.3359 l -1.8764,-58.102 z"
         fill="#1b6801"
         id="path69401" />
      <path
         d="m 294.807,360.482 v 18.893 H 18.3359 l -0.5823,-18.893 z"
         fill="#134901"
         id="path69403" />
      <path
         d="m 297.33,248.872 206.076,11.711 c 0,0 84.242,11.517 159.619,44.644 6.018,4.594 6.729,8.735 7.7,13.976 0.323,1.682 0.582,3.429 0.776,5.176 0,8.023 -0.194,16.046 -0.064,24.069 0.129,15.528 -6.212,15.593 -21.611,31.639 -0.453,0.518 -1.294,0.518 -1.941,0.712 l -350.49,-1.424 V 248.872 Z"
         fill="#4aac29"
         id="path69405" />
      <path
         d="m 297.33,321.984 h 371.907 l 0.129,0.065 c 0.13,0.194 0.259,0.388 0.518,0.453 0.194,0.065 0.388,0.129 0.582,0.129 0.453,0 0.582,-0.388 0.518,-0.776 -0.065,-0.388 -0.389,-0.712 -0.777,-0.906 0.259,0 0.518,0 0.712,0.065 0.194,1.1 0.323,2.2 0.518,3.364 0,8.023 -0.195,16.046 -0.065,24.07 0.129,15.528 -6.211,15.593 -21.611,31.639 -0.452,0.517 -1.294,0.517 -1.941,0.711 l -350.49,-1.423 z"
         fill="#1b6801"
         id="path69407" />
      <path
         d="m 297.33,360.482 h 371.713 c -3.106,5.5 -9.253,9.188 -19.217,19.605 -0.453,0.517 -1.294,0.517 -1.941,0.711 l -350.49,-1.423 v -18.893 z"
         fill="#134901"
         id="path69409" />
      <path
         d="m 303.801,153.566 c 46.132,-1.23 89.094,1.811 118.016,11.258 34.227,11.128 97.958,118.533 97.958,118.533 L 297.266,280.575 V 251.33 Z"
         fill="#9ee287"
         id="path69411" />
      <path
         d="m 469.632,379.957 c -0.712,-4.141 -1.1,-8.411 -1.1,-12.811 0,-39.856 31.38,-72.078 70.072,-72.078 38.691,0 70.072,32.287 70.072,72.078 0,4.335 -0.388,8.606 -1.1,12.811 z"
         fill="#161a1e"
         id="path69413" />
      <path
         d="m 480.89,379.957 c -0.453,-2.911 -0.647,-5.952 -0.647,-8.993 0,-33.192 26.139,-60.044 58.361,-60.044 32.221,0 58.361,26.916 58.361,60.044 0,3.041 -0.259,6.082 -0.647,8.993 z"
         fill="#000000"
         id="path69415" />
      <path
         d="m 487.295,381.252 c 0,27.692 22.452,50.143 50.144,50.143 27.692,0 50.144,-22.451 50.144,-50.143 0,-27.693 -22.452,-50.144 -50.144,-50.144 -27.692,-0.065 -50.144,22.386 -50.144,50.144 z"
         fill="#2d3132"
         id="path69417" />
      <path
         d="m 487.295,381.252 c 0,27.692 22.452,50.143 50.144,50.143 27.692,0 50.144,-22.451 50.144,-50.143 0,-27.693 -22.452,-50.144 -50.144,-50.144 -27.692,-0.065 -50.144,22.386 -50.144,50.144 z"
         fill="#161a1e"
         id="path69419" />
      <path
         d="m 503.406,381.251 c 0,18.829 15.205,34.034 34.033,34.034 18.764,0 34.033,-15.205 34.033,-34.034 0,-18.763 -15.205,-34.033 -34.033,-34.033 -18.764,0 -34.033,15.205 -34.033,34.033 z"
         fill="#000000"
         id="path69421" />
      <path
         d="m 506.382,381.251 c 0,17.146 13.911,31.057 31.057,31.057 17.146,0 31.057,-13.911 31.057,-31.057 0,-17.146 -13.911,-31.056 -31.057,-31.056 -17.146,-0.065 -31.057,13.846 -31.057,31.056 z"
         fill="#cccbc3"
         id="path69423" />
      <path
         d="m 559.114,369.605 c 1.747,3.235 2.782,6.923 2.912,10.805 h -5.759 c -0.129,-2.847 -0.841,-5.564 -2.135,-7.958 z"
         fill="#444746"
         id="path69425" />
      <path
         d="m 553.356,391.28 4.982,2.847 c -2.006,3.235 -4.723,5.888 -7.894,7.894 l -2.847,-4.982 c 2.265,-1.424 4.271,-3.365 5.759,-5.759 z"
         fill="#444746"
         id="path69427" />
      <path
         d="m 547.532,365.335 2.847,-4.982 c 3.235,2.005 5.888,4.723 7.894,7.893 l -4.982,2.847 c -1.424,-2.265 -3.429,-4.27 -5.759,-5.758 z"
         fill="#444746"
         id="path69429" />
      <path
         d="m 562.026,382.028 c -0.13,3.882 -1.165,7.57 -2.912,10.805 l -4.982,-2.847 c 1.229,-2.394 2.006,-5.047 2.135,-7.958 z"
         fill="#444746"
         id="path69431" />
      <path
         d="m 525.857,359.576 c 3.235,-1.747 6.923,-2.782 10.806,-2.911 v 5.758 c -2.847,0.129 -5.565,0.841 -7.959,2.135 z"
         fill="#444746"
         id="path69433" />
      <path
         d="m 512.852,380.41 c 0.13,-3.882 1.165,-7.57 2.912,-10.805 l 4.982,2.847 c -1.229,2.394 -2.006,5.047 -2.135,7.958 z"
         fill="#444746"
         id="path69435" />
      <path
         d="m 521.522,371.158 -4.982,-2.847 c 2.006,-3.235 4.723,-5.888 7.894,-7.894 l 2.847,4.983 c -2.265,1.423 -4.271,3.429 -5.759,5.758 z"
         fill="#444746"
         id="path69437" />
      <path
         d="m 538.215,356.665 c 3.883,0.129 7.571,1.164 10.806,2.911 l -2.847,4.982 c -2.394,-1.229 -5.047,-2.006 -7.959,-2.135 z"
         fill="#444746"
         id="path69439" />
      <path
         d="m 549.021,402.862 c -3.235,1.747 -6.923,2.782 -10.806,2.912 v -5.759 c 2.847,-0.129 5.565,-0.841 7.959,-2.135 z"
         fill="#444746"
         id="path69441" />
      <path
         d="m 520.746,389.922 -4.982,2.847 c -1.747,-3.235 -2.782,-6.924 -2.912,-10.806 h 5.759 c 0.129,2.912 0.906,5.565 2.135,7.959 z"
         fill="#444746"
         id="path69443" />
      <path
         d="m 527.345,397.103 -2.846,4.982 c -3.236,-2.005 -5.888,-4.723 -7.894,-7.893 l 4.982,-2.847 c 1.423,2.329 3.429,4.27 5.758,5.758 z"
         fill="#444746"
         id="path69445" />
      <path
         d="m 536.663,405.774 c -3.883,-0.13 -7.571,-1.165 -10.806,-2.912 l 2.847,-4.982 c 2.394,1.229 5.047,2.006 7.959,2.135 z"
         fill="#444746"
         id="path69447" />
      <path
         d="m 521.846,381.251 c 0,8.606 6.988,15.593 15.593,15.593 8.605,0 15.593,-6.987 15.593,-15.593 0,-8.605 -6.988,-15.593 -15.593,-15.593 -8.605,-0.065 -15.593,6.923 -15.593,15.593 z"
         fill="#9c9f9a"
         id="path69449" />
      <path
         d="m 52.4338,379.957 c -0.7117,-4.141 -1.0999,-8.411 -1.0999,-12.811 0,-39.856 31.3804,-72.078 70.0721,-72.078 38.692,0 70.072,32.287 70.072,72.143 0,4.335 -0.388,8.605 -1.1,12.811 H 52.4338 Z"
         fill="#161a1e"
         id="path69451" />
      <path
         d="m 63.6919,379.957 c -0.4529,-2.911 -0.647,-5.952 -0.647,-8.993 0,-33.192 26.1396,-60.044 58.3611,-60.044 32.222,0 58.361,26.916 58.361,60.044 0,3.041 -0.259,6.082 -0.647,8.993 z"
         fill="#000000"
         id="path69453" />
      <path
         d="m 70.0975,381.252 c 0,27.692 22.4515,50.143 50.1435,50.143 27.693,0 50.144,-22.451 50.144,-50.143 0,-27.693 -22.451,-50.144 -50.144,-50.144 -27.692,-0.065 -50.1435,22.386 -50.1435,50.144 z"
         fill="#2d3132"
         id="path69455" />
      <path
         d="m 70.0975,381.252 c 0,27.692 22.4515,50.143 50.1435,50.143 27.693,0 50.144,-22.451 50.144,-50.143 0,-27.693 -22.451,-50.144 -50.144,-50.144 -27.692,-0.065 -50.1435,22.386 -50.1435,50.144 z"
         fill="#161a1e"
         id="path69457" />
      <path
         d="m 86.2082,381.251 c 0,18.829 15.2698,34.034 34.0328,34.034 18.764,0 34.034,-15.205 34.034,-34.034 0,-18.763 -15.205,-34.033 -34.034,-34.033 -18.828,0 -34.0328,15.205 -34.0328,34.033 z"
         fill="#000000"
         id="path69459" />
      <path
         d="m 89.1844,381.251 c 0,17.146 13.9106,31.057 31.0566,31.057 17.146,0 31.057,-13.911 31.057,-31.057 0,-17.146 -13.911,-31.056 -31.057,-31.056 -17.146,-0.065 -31.0566,13.846 -31.0566,31.056 z"
         fill="#cccbc3"
         id="path69461" />
      <path
         d="m 141.916,369.605 c 1.747,3.235 2.783,6.923 2.912,10.805 h -5.758 c -0.13,-2.847 -0.842,-5.564 -2.136,-7.958 z"
         fill="#444746"
         id="path69463" />
      <path
         d="m 136.158,391.28 4.982,2.847 c -2.006,3.235 -4.723,5.888 -7.894,7.894 l -2.847,-4.982 c 2.265,-1.424 4.271,-3.365 5.759,-5.759 z"
         fill="#444746"
         id="path69465" />
      <path
         d="m 130.335,365.335 2.847,-4.982 c 3.235,2.005 5.888,4.723 7.893,7.893 l -4.982,2.847 c -1.423,-2.265 -3.429,-4.27 -5.758,-5.758 z"
         fill="#444746"
         id="path69467" />
      <path
         d="m 144.828,382.028 c -0.129,3.882 -1.165,7.57 -2.912,10.805 l -4.982,-2.847 c 1.23,-2.394 2.006,-5.047 2.136,-7.958 z"
         fill="#444746"
         id="path69469" />
      <path
         d="m 108.66,359.576 c 3.235,-1.747 6.923,-2.782 10.805,-2.911 v 5.758 c -2.847,0.129 -5.564,0.841 -7.958,2.135 z"
         fill="#444746"
         id="path69471" />
      <path
         d="m 95.6546,380.41 c 0.1294,-3.882 1.1646,-7.57 2.9116,-10.805 l 4.9818,2.847 c -1.229,2.394 -2.006,5.047 -2.135,7.958 z"
         fill="#444746"
         id="path69473" />
      <path
         d="m 104.325,371.158 -4.9824,-2.847 c 2.0054,-3.235 4.7234,-5.888 7.8934,-7.894 l 2.847,4.983 c -2.264,1.423 -4.27,3.429 -5.758,5.758 z"
         fill="#444746"
         id="path69475" />
      <path
         d="m 121.018,356.665 c 3.882,0.129 7.57,1.164 10.805,2.911 l -2.847,4.982 c -2.394,-1.229 -5.047,-2.006 -7.958,-2.135 z"
         fill="#444746"
         id="path69477" />
      <path
         d="m 131.823,402.862 c -3.235,1.747 -6.923,2.782 -10.805,2.912 v -5.759 c 2.847,-0.129 5.564,-0.841 7.958,-2.135 z"
         fill="#444746"
         id="path69479" />
      <path
         d="m 103.548,389.922 -4.9818,2.847 c -1.747,-3.235 -2.7822,-6.924 -2.9116,-10.806 h 5.7584 c 0.129,2.912 0.906,5.565 2.135,7.959 z"
         fill="#444746"
         id="path69481" />
      <path
         d="m 110.148,397.103 -2.847,4.982 c -3.235,-2.005 -5.888,-4.723 -7.8937,-7.893 l 4.9817,-2.847 c 1.424,2.329 3.43,4.27 5.759,5.758 z"
         fill="#444746"
         id="path69483" />
      <path
         d="m 119.465,405.774 c -3.882,-0.13 -7.57,-1.165 -10.805,-2.912 l 2.847,-4.982 c 2.394,1.229 5.046,2.006 7.958,2.135 z"
         fill="#444746"
         id="path69485" />
      <path
         d="m 104.583,381.251 c 0,8.606 6.988,15.593 15.594,15.593 8.605,0 15.593,-6.987 15.593,-15.593 0,-8.605 -6.988,-15.593 -15.593,-15.593 -8.606,0 -15.594,6.923 -15.594,15.593 z"
         fill="#9c9f9a"
         id="path69487" />
      <path
         d="m 305.418,245.313 c 0.906,-40.762 1.876,-56.356 4.206,-87.93 4.917,-0.259 87.412,1.359 101.776,10.999 0,0 10.481,3.559 27.822,27.822 l 41.085,59.979 c 0,0 6.47,12.681 -6.47,13.781 L 307.23,257.024 c -0.777,-3.947 -1.941,-7.829 -1.812,-11.711 z"
         fill="#161a1e"
         id="path69489" />
      <path
         d="m 482.378,245.96 c -18.052,-32.869 -48.527,-74.472 -48.527,-74.472 24.652,18.44 56.938,65.802 74.084,92.588 -0.065,0.065 -14.623,1.747 -25.557,-18.116 z"
         fill="#02384a"
         id="path69491" />
      <path
         d="m 323.276,251.395 c -2.912,-30.216 -4.659,-60.561 -4.918,-90.906 19.023,0 41.41,1.164 67.679,4.205 0,0 -9.123,-1.035 4.788,0.583 9.64,1.1 19.734,3.752 29.051,12.034 14.169,12.682 57.455,80.36 57.455,80.36 0,0 4.788,9.641 -8.994,9.058 -8.152,-0.388 -68.195,-5.952 -144.738,-11.97 -0.129,-1.1 -0.194,-2.199 -0.323,-3.364 z"
         fill="#02384a"
         id="path69493" />
      <path
         d="m 475.584,217.232 c 0,-0.065 -0.065,-0.065 -0.065,-0.065 0.065,0 0.065,0 0.065,0.065 z m -0.129,-0.194 c 0,0 0,-0.065 0,0 0,-0.065 0,0 0,0 z m -0.13,-0.194 c 0,-0.065 -0.065,-0.065 -0.065,-0.13 0,0.065 0.065,0.13 0.065,0.13 z m -0.065,-0.065 c -12.94,-17.211 -26.851,-33.645 -39.144,-43.48 12.293,9.835 26.204,26.269 39.144,43.48 z m -39.144,-43.48 c -0.065,-0.064 -0.065,-0.064 -0.13,-0.129 0,0 0.065,0.065 0.13,0.129 z m -0.194,-0.129 c -0.065,-0.065 -0.13,-0.129 -0.194,-0.194 0.064,0.065 0.129,0.129 0.194,0.194 z m -0.194,-0.194 c -0.065,0 -0.065,-0.065 -0.13,-0.065 0.065,0 0.065,0 0.13,0.065 z m -0.13,-0.13 c -0.064,0 -0.064,-0.064 -0.129,-0.064 0.065,0 0.065,0.064 0.129,0.064 z m -0.323,-0.194 c 0,-0.064 0,-0.064 0,0 0,-0.064 0,-0.064 0,0 z m -0.13,-0.129 -0.064,-0.065 c 0.064,0.065 0.064,0.065 0.064,0.065 z m -0.129,-0.065 -0.065,-0.064 c 0.065,0 0.065,0 0.065,0.064 z m -0.388,-0.323 c 0,0 0,-0.065 0,0 0,-0.065 0,0 0,0 z m -0.518,-0.388 c 0,0 0,-0.065 0,0 0,-0.065 0,0 0,0 z"
         fill="#e94c4f"
         id="path69495" />
      <path
         d="m 501.788,254.694 c -7.246,-11.064 -16.175,-24.069 -25.622,-36.75 -0.064,-0.13 -0.194,-0.259 -0.258,-0.324 -0.065,-0.064 -0.065,-0.129 -0.13,-0.194 -0.065,-0.065 -0.065,-0.065 -0.129,-0.129 0,-0.065 -0.065,-0.065 -0.065,-0.065 0,-0.065 -0.065,-0.065 -0.065,-0.129 l -0.064,-0.065 c 0,-0.065 -0.065,-0.065 -0.065,-0.13 0,-0.064 -0.065,-0.064 -0.065,-0.129 -12.94,-17.211 -26.851,-33.645 -39.144,-43.48 -0.065,-0.064 -0.065,-0.064 -0.13,-0.129 -0.064,-0.065 -0.129,-0.129 -0.194,-0.194 -0.065,0 -0.065,-0.065 -0.129,-0.065 -0.065,0 -0.065,-0.064 -0.13,-0.064 0,0 0,0 -0.064,-0.065 0,0 -0.065,0 -0.065,-0.065 l -0.065,-0.065 c 0,0 -0.064,0 -0.064,-0.064 l -0.065,-0.065 -0.065,-0.065 c 0,0 -0.065,0 -0.065,-0.064 l -0.064,-0.065 -0.065,-0.065 c 0,0 0,0 -0.065,-0.064 l -0.064,-0.065 c 0,0 0,0 -0.065,-0.065 -0.065,0 -0.065,-0.065 -0.065,-0.065 0,0 0,0 -0.065,0 l -0.064,-0.064 c 0,0 0,0 -0.065,0 l -0.065,-0.065 c -0.064,0 -0.064,-0.065 -0.129,-0.065 -0.065,0 -0.065,-0.064 -0.129,-0.064 -0.065,0 -0.065,-0.065 -0.13,-0.065 -0.065,0 -0.065,-0.065 -0.129,-0.065 0,0 30.539,41.603 48.526,74.472 0.13,0.259 0.259,0.518 0.453,0.776 6.276,2.524 12.488,5.112 18.699,7.829 z"
         fill="#0d6279"
         id="path69497" />
      <path
         d="m 465.879,240.201 c -1.682,-2.588 -3.559,-5.37 -5.5,-8.217 2.006,2.912 3.818,5.629 5.5,8.217 z M 319.135,192.386 c 0,-0.194 0,-0.323 0,-0.517 0,0.194 0,0.388 0,0.517 z m 0,-0.582 c -0.259,-5.694 -0.453,-11.323 -0.582,-17.016 0.129,5.629 0.323,11.322 0.582,17.016 z M 422.14,179.64 c 0,-0.065 0,-0.065 0,0 0,-0.065 0,-0.065 0,0 z m -0.064,-0.065 c 0,-0.064 0,-0.064 0,0 0,-0.064 0,-0.064 0,0 z m -0.324,-0.388 c 0,0 -0.065,0 0,0 -0.065,0 0,0 0,0 z m -0.065,0 c 0,-0.064 0,-0.064 0,0 0,-0.064 0,-0.064 0,0 z m -0.064,-0.064 c 0,0 0,-0.065 0,0 0,-0.065 0,0 0,0 z m 0,-0.065 c -0.065,0 -0.065,0 0,0 -0.065,0 -0.065,0 0,0 z m -0.065,-0.065 -0.065,-0.065 c 0,0 0,0.065 0.065,0.065 z m -0.129,-0.065 c 0,0 0,-0.064 0,0 0,-0.064 0,0 0,0 z m 0,-0.064 c -0.13,-0.13 -0.259,-0.259 -0.389,-0.388 0.13,0.129 0.259,0.258 0.389,0.388 z m -0.453,-0.388 c -0.194,-0.195 -0.324,-0.324 -0.518,-0.453 0.194,0.129 0.388,0.258 0.518,0.453 z m -0.453,-0.518 c -0.065,-0.065 -0.13,-0.129 -0.194,-0.129 0.064,0.064 0.129,0.064 0.194,0.129 z m -0.194,-0.129 -0.065,-0.065 c 0,0 0.065,0 0.065,0.065 z m -0.065,-0.13 -0.065,-0.065 c 0,0.065 0,0.065 0.065,0.065 z m -0.129,-0.065 -0.065,-0.064 c 0.065,0 0.065,0.064 0.065,0.064 z m -0.065,-0.064 -0.065,-0.065 z m -0.065,-0.065 -0.065,-0.065 c 0,0 0,0 0.065,0.065 z m -0.129,-0.065 c 0,-0.064 0,-0.064 0,0 0,-0.064 0,-0.064 0,0 z m -101.323,-2.782 c 0,-0.194 0,-0.323 0,-0.517 0,0.194 0,0.323 0,0.517 z m 0,-0.712 c 0,-0.129 0,-0.258 0,-0.388 0,0.065 0,0.259 0,0.388 z m 0,-0.776 c 0,-0.065 0,-0.194 0,-0.259 -0.065,0.13 0,0.194 0,0.259 z m -0.065,-0.712 v -0.064 c 0,0 0,0.064 0,0.064 z"
         fill="#2a434b"
         id="path69499" />
      <path
         d="m 465.879,240.201 c -1.682,-2.588 -3.559,-5.37 -5.5,-8.217 -12.487,-18.634 -28.792,-42.185 -37.98,-52.02 0,0 0,0 -0.065,-0.065 l -0.064,-0.064 c -0.065,-0.065 -0.065,-0.065 -0.13,-0.13 0,0 0,0 -0.064,-0.064 0,0 0,0 -0.065,-0.065 0,0 0,0 -0.065,-0.065 l -0.064,-0.065 -0.065,-0.064 c 0,0 0,0 -0.065,-0.065 0,0 0,0 -0.065,-0.065 0,0 0,0 -0.064,-0.064 0,0 0,0 -0.065,-0.065 l -0.065,-0.065 c 0,0 0,0 -0.064,-0.065 -0.13,-0.129 -0.259,-0.258 -0.389,-0.388 l -0.064,-0.064 c -0.194,-0.195 -0.324,-0.324 -0.518,-0.453 -0.065,-0.065 -0.129,-0.13 -0.194,-0.13 l -0.065,-0.064 -0.064,-0.065 -0.065,-0.065 -0.065,-0.065 -0.065,-0.064 c 0,0 0,0 -0.064,-0.065 -9.253,-8.346 -19.411,-10.935 -29.051,-12.034 -6.018,-0.712 -7.765,-0.906 -7.765,-0.906 0.13,0 2.912,0.323 2.912,0.323 -26.204,-3.041 -48.526,-4.205 -67.549,-4.205 h -0.129 c 0.065,3.946 0.129,7.958 0.194,11.905 v 0.064 c 0,0.13 0,0.324 0,0.453 0,0.065 0,0.194 0,0.259 0,0.13 0,0.194 0,0.324 0,0.129 0,0.258 0,0.388 0,0.065 0,0.129 0,0.194 0,0.194 0,0.323 0,0.518 0,0.064 0,0.064 0,0.129 0.129,5.694 0.323,11.323 0.582,17.017 0,0.064 0,0.064 0,0.129 0,0.194 0,0.323 0,0.518 0.13,3.558 0.324,7.052 0.518,10.611 43.285,6.47 85.924,16.887 127.592,30.668 6.341,1.812 12.552,4.012 18.699,6.276 z"
         fill="#0d6279"
         id="path69501" />
      <path
         d="m 475.908,253.271 11.452,7.635 c 0,0 5.241,3.688 1.423,7.635 0,0 -1.811,2.07 -6.599,2.2 -4.788,0.129 -14.752,-2.2 -14.752,-2.2 z"
         fill="#000000"
         id="path69503" />
      <path
         d="m 448.539,247.189 c 3.041,-6.535 11.84,-6.017 11.84,-6.017 6.6,0.388 15.529,4.529 19.217,10.029 4.335,6.34 3.752,20.575 -4.336,19.41 -9.317,-1.359 -5.758,-0.388 -20.769,-3.753 -3.882,-0.905 -9.64,-11.711 -5.952,-19.669 z"
         fill="#161a1e"
         id="path69505" />
      <path
         d="m 476.296,270.676 c 0.582,0 1.164,-0.065 1.617,-0.259 3.041,-1.035 4.4,-5.047 4.4,-9.317 0,-3.559 -0.971,-7.376 -2.653,-9.899 -3.753,-5.5 -12.617,-9.641 -19.216,-10.029 0,0 -0.194,0 -0.518,0 -1.876,0 -8.799,0.388 -11.387,6.017 -0.842,1.812 -1.165,3.753 -1.165,5.694 0,6.664 4.141,13.264 7.182,13.976 15.075,3.429 11.517,2.393 20.769,3.752 0.324,0.065 0.647,0.065 0.971,0.065 z m -12.682,-27.563 c 0.259,0 0.388,0 0.388,0 5.047,0.323 11.906,3.494 14.817,7.699 3.17,4.659 2.912,14.947 -2.588,14.947 -0.259,0 -0.453,0 -0.712,-0.065 -7.182,-1.035 -4.399,-0.259 -15.981,-2.912 -3.041,-0.711 -7.441,-8.993 -4.594,-15.14 1.941,-4.206 7.182,-4.529 8.67,-4.529 z"
         fill="#363a3c"
         id="path69507" />
      <path
         d="m 525.663,279.54 -8.605,-0.776 c 0.065,0.064 0.129,0.194 0.129,0.258 3.365,0.195 6.212,0.324 8.476,0.518 z"
         fill="#f04f41"
         id="path69509" />
      <path
         d="m 297.33,280.316 c 66.061,-0.776 131.604,-1.876 176.701,-1.876 18.181,0 32.998,0.194 43.221,0.647 -0.065,-0.065 -0.129,-0.194 -0.129,-0.259 L 297.33,259.094 Z"
         fill="#def6d6"
         id="path69511" />
      <path
         d="M 338.028,265.823 318.1,264.594 c 0,0 -3.947,-0.13 -2.588,3.364 1.358,3.494 1.811,4.141 1.811,4.141 0,0 0.388,1.812 4.206,2.588 3.817,0.841 26.851,3.3 26.851,3.3 0,0 3.235,0.518 8.411,-1.682 5.177,-2.265 5.177,-6.6 3.559,-7.764 0,0 0.065,-0.453 -3.235,-1.165 -3.3,-0.841 -19.087,-1.553 -19.087,-1.553 z"
         fill="#4aac29"
         id="path69513" />
      <path
         d="m 354.915,267.764 -33.58,-2.394 c 0,0 -3.753,-0.259 -4.4,1.359 -0.647,1.617 1.229,3.3 6.341,3.947 5.111,0.647 24.587,2.653 24.587,2.653 0,0 7.311,0.841 9.834,-1.036 2.588,-1.811 1.424,-4.076 -2.782,-4.529 z"
         fill="#def6d6"
         id="path69515" />
      <path
         d="m 637.339,300.115 c 5.241,-0.258 9.899,-0.388 14.752,1.877 4.594,2.135 11.323,4.788 13.717,7.182 0.841,1.035 1.488,2.264 2.07,3.494 1.1,3.752 1.747,7.699 1.876,11.581 -0.129,1.229 -0.388,2.265 -0.776,3.041 -1.424,2.912 -23.81,-13.846 -34.227,-22.322 -1.359,-1.423 -2.718,-4.464 2.588,-4.853 z"
         fill="#cccbc3"
         id="path69517" />
      <path
         d="m 652.091,301.992 c -2.782,-1.294 -5.5,-1.812 -8.347,-1.941 2.847,0.129 5.565,0.647 8.347,1.941 z m -8.347,-1.941 c -0.065,0 -0.065,0 0,0 -0.065,0 -0.065,0 0,0 z"
         fill="#e37a77"
         id="path69519" />
      <path
         d="m 669.172,326.708 c 0.259,-0.712 0.453,-1.488 0.518,-2.394 -0.13,-3.947 -0.777,-7.829 -1.877,-11.582 -0.582,-1.229 -1.229,-2.458 -2.07,-3.494 -2.329,-2.458 -9.123,-5.046 -13.717,-7.181 -2.782,-1.294 -5.5,-1.812 -8.347,-1.942 0,0 0,0 -0.064,0 0,0 0,0 -0.065,0 -0.647,0 -1.229,-0.064 -1.876,-0.064 -1.165,0 -2.33,0.064 -3.494,0.129 13.458,4.206 23.745,14.558 30.992,26.528 z"
         fill="#dfdfd8"
         id="path69521" />
      <path
         d="m 268.409,262.329 c 0,1.23 1.035,2.265 2.264,2.265 1.23,0 2.265,-1.035 2.265,-2.265 v -8.476 c 0,-1.229 -1.035,-2.264 -2.265,-2.264 -1.229,0 -2.264,1.035 -2.264,2.264 z"
         fill="#1b6801"
         id="path69523" />
      <path
         d="m 31.4057,262.329 c 0,1.23 1.0352,2.265 2.2646,2.265 1.2293,0 2.2645,-1.035 2.2645,-2.265 v -8.476 c 0,-1.229 -1.0352,-2.264 -2.2645,-2.264 -1.2294,0 -2.2646,1.035 -2.2646,2.264 z"
         fill="#1b6801"
         id="path69525" />
      <path
         d="m 189.408,262.329 c 0,1.23 1.035,2.265 2.264,2.265 1.23,0 2.265,-1.035 2.265,-2.265 v -8.476 c 0,-1.229 -1.035,-2.264 -2.265,-2.264 -1.229,0 -2.264,1.035 -2.264,2.264 z"
         fill="#1b6801"
         id="path69527" />
      <path
         d="m 110.407,262.329 c 0,1.23 1.035,2.265 2.264,2.265 1.23,0 2.265,-1.035 2.265,-2.265 v -8.476 c 0,-1.229 -1.035,-2.264 -2.265,-2.264 -1.229,0 -2.264,1.035 -2.264,2.264 z"
         fill="#1b6801"
         id="path69529" />
      <path
         d="m 16.2654,259.03 2.0705,-9.576 H 294.742 v 9.576 z"
         fill="#4aac29"
         id="path69531" />
      <path
         d="M 18.0124,251.006 H 294.807 v -1.552 H 18.3359 Z"
         fill="#def6d6"
         id="path69533" />
      <path
         d="m 591.983,344.371 c 1.617,-1.488 5.176,-1.811 5.176,-1.811 h 73.566 c 0.518,0.064 1.1,0.194 1.488,0.517 0.776,0.582 1.165,1.359 1.488,2.2 l -0.194,13.976 c 0,0 -9.964,19.863 -16.822,22.839 -6.859,2.912 -11.453,2.071 -11.453,2.071 h -51.243 c -1.359,-0.647 -2.459,-1.812 -2.847,-3.494 l 0.582,-0.518 c 3.429,-11.646 4.594,-20.445 0.259,-35.78 z"
         fill="#161a1e"
         id="path69535" />
      <path
         d="m 1.44866,343.013 c 0.45292,-0.324 0.97054,-0.453 1.48816,-0.518 H 24.4178 c 1.8764,0.259 3.8174,0.13 5.5644,0.777 1.4881,0.517 3.041,1.552 3.041,5.111 v 34.098 c -0.1941,0.453 -0.4529,0.841 -0.8411,1.165 -0.2589,0.194 -0.5176,0.388 -0.7765,0.517 h -2.9762 c 0,0 -4.5292,0.841 -11.4523,-2.07 -6.8584,-2.912 -16.822471,-22.84 -16.822471,-22.84 L -0.0394707,345.277 C 0.284039,344.371 0.672241,343.595 1.44866,343.013 Z"
         fill="#161a1e"
         id="path69537" />
      <path
         d="m 593.471,350.389 c -0.324,-1.489 -0.712,-3.041 -1.1,-4.659 0.388,1.618 0.776,3.17 1.1,4.659 z"
         fill="#363a3c"
         id="path69539" />
      <path
         d="m 594.571,357.571 c -0.194,-2.265 -0.583,-4.659 -1.1,-7.182 0.517,2.588 0.906,4.982 1.1,7.182 z"
         fill="#161a1e"
         id="path69541" />
      <path
         d="m 592.371,345.73 v -0.064 c -0.065,0 0,0.064 0,0.064 z m -0.065,-0.129 v -0.065 c 0,0.065 0,0.065 0,0.065 z"
         fill="#363a3c"
         id="path69543" />
      <path
         d="m 594.571,357.571 h 78.936 l 0.194,-12.358 c -0.323,-0.842 -0.647,-1.683 -1.488,-2.2 -0.453,-0.324 -0.97,-0.453 -1.488,-0.518 h -73.566 c 0,0 -3.559,0.324 -5.176,1.812 0,0.064 0,0.064 0,0.129 v 0.065 c 0,0 0,0 0,0.065 v 0.064 c 0,0.065 0.064,0.13 0.064,0.259 v 0.065 c 0,0.064 0.065,0.129 0.065,0.259 v 0.064 c 0,0 0,0 0,0.065 v 0.065 0.064 0.065 c 0,0 0,0 0,0.065 v 0.065 c 0.453,1.617 0.777,3.17 1.1,4.658 0.777,2.653 1.165,5.047 1.359,7.247 z"
         fill="#363a3c"
         id="path69545" />
      <path
         d="M 0.15464,357.571 H 33.0879 v -9.188 c 0,-3.559 -1.5528,-4.594 -3.041,-5.111 -1.7469,-0.647 -3.7527,-0.518 -5.5644,-0.777 H 3.00152 c -0.58232,0.065 -1.09992,0.194 -1.48814,0.518 -0.776419,0.582 -1.164621,1.358 -1.4881305,2.2 z"
         fill="#363a3c"
         id="path69547" />
      <path
         d="M 38.9111,271.323 H 17.0419 c 0,0 -1.4882,0.517 -1.6823,2.2 -0.1941,1.617 0,18.634 0,18.634 0,0 -0.2588,1.294 1.1647,1.488 1.4234,0.194 26.3983,-14.429 26.3983,-14.429 0,0 10.2229,-6.793 -4.0115,-7.893 z"
         fill="#4aac29"
         id="path69549" />
      <path
         d="M 36.0642,271.323 H 17.7536 c 0,0 -1.2293,0.453 -1.4234,1.811 -0.1294,1.359 0,15.594 0,15.594 0,0 -0.2589,1.099 0.9705,1.229 1.1646,0.129 22.128,-12.099 22.128,-12.099 0,0 8.5407,-5.629 -3.3645,-6.535 z"
         fill="#ec3d2d"
         id="path69551" />
      <path
         d="m 29.1411,288.857 -13.1345,6.6 c 0,0 -0.7117,0.323 -0.7764,1.617 v 9.317 c 0,0 -0.2588,1.165 0.9705,1.359 1.1647,0.194 11.6464,-8.799 11.6464,-8.799 0,0 1.2293,-1.036 1.7469,-2.783 0.5176,-1.747 1.2294,-5.758 1.2294,-5.758 0,0 0.647,-2.718 -1.6823,-1.553 z"
         fill="#cd5227"
         id="path69553" />
      <path
         d="m 25.906,291.057 -10.0288,5.047 c 0,0 -0.5824,0.258 -0.5824,1.229 v 7.117 c 0,0 -0.1941,0.841 0.7118,1.035 0.9058,0.13 8.8641,-6.729 8.8641,-6.729 0,0 0.9706,-0.776 1.3588,-2.135 0.3882,-1.358 0.9705,-4.399 0.9705,-4.399 0,0 0.4529,-2.071 -1.294,-1.165 z"
         fill="#ee6d22"
         id="path69555" />
      <path
         d="m 46.4812,274.752 h 0.0647 c 0.0647,-1.488 -1.6823,-2.912 -7.5701,-3.429 h -0.0647 c 5.8878,0.453 7.5701,1.876 7.5701,3.429 z"
         fill="#f37c73"
         id="path69557" />
      <path
         d="m 15.3596,274.752 h 0.9058 c 0,-0.776 0,-1.359 0.0647,-1.553 0.1294,-1.359 1.4235,-1.812 1.4235,-1.812 h -0.6471 c 0,0 -1.4881,0.518 -1.6822,2.2 0,0.13 -0.0647,0.583 -0.0647,1.165 z m 26.916,0 h 4.2056 c 0.0647,-1.488 -1.6823,-2.912 -7.5701,-3.429 h -2.8469 c 5.629,0.453 6.6643,1.941 6.2114,3.429 z"
         fill="#4aac29"
         id="path69559" />
      <path
         d="m 16.2654,274.752 h 26.0102 c 0.4529,-1.488 -0.5824,-2.976 -6.2114,-3.429 H 17.7536 c 0,0 -1.2294,0.453 -1.4235,1.811 0,0.259 -0.0647,0.842 -0.0647,1.618 z"
         fill="#f17568"
         id="path69561" />
      <path
         d="m 30.8881,289.569 c 0,0 0.0647,0 0.0647,-0.065 -0.0647,-0.453 -0.1942,-0.906 -0.7765,-0.906 0,0 0,0 -0.0647,0 0.5824,0 0.7765,0.453 0.7765,0.971 z"
         fill="#de6765"
         id="path69563" />
      <path
         d="m 15.3596,297.01 c 0.1294,-0.712 0.5176,-0.906 0.5176,-0.906 l 10.0288,-5.047 c 0.3235,-0.129 0.5823,-0.259 0.7764,-0.259 0.7765,0 0.647,1.035 0.5823,1.294 1.2294,-0.906 2.4587,-1.747 3.6881,-2.588 0,-0.453 -0.1942,-0.97 -0.7765,-0.97 -0.2588,0 -0.5176,0.129 -0.9705,0.323 l -13.1345,6.6 c 0,0 -0.7117,0.323 -0.7117,1.553 z"
         fill="#d9805b"
         id="path69565" />
      <path
         d="m 15.3596,300.762 c 1.941,-1.359 3.8821,-2.782 5.8232,-4.141 2.0057,-1.423 4.0115,-2.976 6.0172,-4.464 0.0647,-0.324 0.1941,-1.294 -0.5823,-1.294 -0.1941,0 -0.4529,0.065 -0.7764,0.259 l -10.0288,5.046 c 0,0 -0.4529,0.194 -0.5176,0.906 v 0.065 3.623 z"
         fill="#f19259"
         id="path69567" />
    </g>
  </g>
</svg>
