<svg width="24" height="24" viewBox="0 0 24 24" fill="none" xmlns="http://www.w3.org/2000/svg">
<path d="M12.0007 20.774L3.76272 19.038C3.44465 18.9711 3.11494 18.9847 2.80343 19.0774C2.49192 19.1701 2.20846 19.3391 1.97872 19.569L1.26172 20.286" stroke="white" stroke-width="1.5" stroke-linecap="round" stroke-linejoin="round"/>
<path d="M15.6465 17.335L18.9925 2.28C19.089 1.84594 19.3306 1.45776 19.6775 1.17959C20.0244 0.901411 20.4558 0.749873 20.9005 0.75H22.7525" stroke="white" stroke-width="1.5" stroke-linecap="round" stroke-linejoin="round"/>
<path d="M14.9355 23.25C16.5924 23.25 17.9355 21.9069 17.9355 20.25C17.9355 18.5931 16.5924 17.25 14.9355 17.25C13.2787 17.25 11.9355 18.5931 11.9355 20.25C11.9355 21.9069 13.2787 23.25 14.9355 23.25Z" stroke="white" stroke-width="1.5" stroke-linecap="round" stroke-linejoin="round"/>
<path d="M9.11469 16.823L3.16269 15.4C2.77594 15.3075 2.44175 15.0652 2.23361 14.7263C2.02546 14.3875 1.96039 13.9798 2.05269 13.593L4.66569 2.65202C4.71139 2.46032 4.79442 2.2795 4.91004 2.11991C5.02565 1.96031 5.17158 1.82506 5.33948 1.72188C5.50739 1.6187 5.69398 1.54963 5.88859 1.51859C6.0832 1.48756 6.28202 1.49518 6.47369 1.54102L13.7737 3.28402C14.1604 3.37655 14.4946 3.61888 14.7028 3.95772C14.9109 4.29657 14.976 4.70421 14.8837 5.09102L12.9607 13.12" stroke="white" stroke-width="1.5" stroke-linecap="round" stroke-linejoin="round"/>
<path d="M11.582 2.76131L8.66406 2.06433L7.6186 6.4412L10.5365 7.13818L11.582 2.76131Z" stroke="white" stroke-width="1.5" stroke-linecap="round" stroke-linejoin="round"/>
</svg>
