<svg width="25" height="24" viewBox="0 0 25 24" fill="none" xmlns="http://www.w3.org/2000/svg">
<g clip-path="url(#clip0)">
<path d="M4.25586 21.75C5.08429 21.75 5.75586 21.0784 5.75586 20.25C5.75586 19.4216 5.08429 18.75 4.25586 18.75C3.42743 18.75 2.75586 19.4216 2.75586 20.25C2.75586 21.0784 3.42743 21.75 4.25586 21.75Z" stroke="white" stroke-width="1.5" stroke-linecap="round" stroke-linejoin="round"/>
<path d="M20.7559 21.75C21.5843 21.75 22.2559 21.0784 22.2559 20.25C22.2559 19.4216 21.5843 18.75 20.7559 18.75C19.9274 18.75 19.2559 19.4216 19.2559 20.25C19.2559 21.0784 19.9274 21.75 20.7559 21.75Z" stroke="white" stroke-width="1.5" stroke-linecap="round" stroke-linejoin="round"/>
<path d="M1.25586 2.25H2.75586C3.15368 2.25 3.53521 2.40804 3.81652 2.68934C4.09782 2.97064 4.25586 3.35218 4.25586 3.75V15C4.25586 15.3978 4.41389 15.7794 4.6952 16.0607C4.9765 16.342 5.35803 16.5 5.75586 16.5H23.7559" stroke="white" stroke-width="1.5" stroke-linecap="round" stroke-linejoin="round"/>
<path d="M7.25586 16.5H14.7559V10.071C14.7556 9.78686 14.6425 9.51445 14.4415 9.31363C14.2405 9.11281 13.968 9 13.6839 9H8.32686C8.04281 9 7.7704 9.11284 7.56955 9.31369C7.3687 9.51454 7.25586 9.78695 7.25586 10.071V16.5Z" stroke="white" stroke-width="1.5" stroke-linecap="round" stroke-linejoin="round"/>
<path d="M14.7559 16.5H22.2559V11.357C22.2242 11.1026 22.0944 10.8705 21.8942 10.7104C21.6939 10.5503 21.439 10.4748 21.1839 10.5H15.8269C15.5718 10.4748 15.317 10.5504 15.1169 10.7105C14.9168 10.8706 14.7872 11.1026 14.7559 11.357V16.5Z" stroke="white" stroke-width="1.5" stroke-linecap="round" stroke-linejoin="round"/>
<path d="M11.0059 6V5.25C11.0059 4.85218 11.1639 4.47064 11.4452 4.18934C11.7265 3.90804 12.108 3.75 12.5059 3.75H17.0059C17.4037 3.75 17.7852 3.90804 18.0665 4.18934C18.3478 4.47064 18.5059 4.85218 18.5059 5.25V7.5" stroke="white" stroke-width="1.5" stroke-linecap="round" stroke-linejoin="round"/>
<path d="M4.25586 21.75C5.08429 21.75 5.75586 21.0784 5.75586 20.25C5.75586 19.4216 5.08429 18.75 4.25586 18.75C3.42743 18.75 2.75586 19.4216 2.75586 20.25C2.75586 21.0784 3.42743 21.75 4.25586 21.75Z" stroke="white" stroke-width="1.5" stroke-linecap="round" stroke-linejoin="round"/>
<path d="M20.7559 21.75C21.5843 21.75 22.2559 21.0784 22.2559 20.25C22.2559 19.4216 21.5843 18.75 20.7559 18.75C19.9274 18.75 19.2559 19.4216 19.2559 20.25C19.2559 21.0784 19.9274 21.75 20.7559 21.75Z" stroke="white" stroke-width="1.5" stroke-linecap="round" stroke-linejoin="round"/>
<path d="M1.25586 2.25H2.75586C3.15368 2.25 3.53521 2.40804 3.81652 2.68934C4.09782 2.97064 4.25586 3.35218 4.25586 3.75V15C4.25586 15.3978 4.41389 15.7794 4.6952 16.0607C4.9765 16.342 5.35803 16.5 5.75586 16.5H23.7559" stroke="white" stroke-width="1.5" stroke-linecap="round" stroke-linejoin="round"/>
<path d="M7.25586 16.5H14.7559V10.071C14.7556 9.78686 14.6425 9.51445 14.4415 9.31363C14.2405 9.11281 13.968 9 13.6839 9H8.32686C8.04281 9 7.7704 9.11284 7.56955 9.31369C7.3687 9.51454 7.25586 9.78695 7.25586 10.071V16.5Z" stroke="white" stroke-width="1.5" stroke-linecap="round" stroke-linejoin="round"/>
<path d="M14.7559 16.5H22.2559V11.357C22.2242 11.1026 22.0944 10.8705 21.8942 10.7104C21.6939 10.5503 21.439 10.4748 21.1839 10.5H15.8269C15.5718 10.4748 15.317 10.5504 15.1169 10.7105C14.9168 10.8706 14.7872 11.1026 14.7559 11.357V16.5Z" stroke="white" stroke-width="1.5" stroke-linecap="round" stroke-linejoin="round"/>
<path d="M11.0059 6V5.25C11.0059 4.85218 11.1639 4.47064 11.4452 4.18934C11.7265 3.90804 12.108 3.75 12.5059 3.75H17.0059C17.4037 3.75 17.7852 3.90804 18.0665 4.18934C18.3478 4.47064 18.5059 4.85218 18.5059 5.25V7.5" stroke="white" stroke-width="1.5" stroke-linecap="round" stroke-linejoin="round"/>
</g>
<defs>
<clipPath id="clip0">
<rect width="24" height="24" fill="white" transform="translate(0.5)"/>
</clipPath>
</defs>
</svg>
